<svg id="profile_icon" data-name="profile icon" xmlns="http://www.w3.org/2000/svg" xmlns:xlink="http://www.w3.org/1999/xlink" width="16.448" height="19.5" viewBox="0 0 16.448 19.5">
  <defs>
    <clipPath id="clip-path">
      <rect id="Rectangle_1978" data-name="Rectangle 1978" width="16.448" height="19.5" fill="#506077"/>
    </clipPath>
  </defs>
  <g id="Group_33295" data-name="Group 33295" clip-path="url(#clip-path)">
    <path id="Path_10771" data-name="Path 10771" d="M10.656,4.137A3.645,3.645,0,1,1,7.011,7.782a3.649,3.649,0,0,1,3.645-3.645m0,10.142a6.529,6.529,0,0,1,6.5,5.949H4.161a6.529,6.529,0,0,1,6.5-5.949M10.656,3a4.781,4.781,0,1,0,4.781,4.781A4.781,4.781,0,0,0,10.656,3m0,10.142A7.656,7.656,0,0,0,3,20.8q0,.285.021.565H18.291q.02-.28.021-.565a7.656,7.656,0,0,0-7.656-7.656" transform="translate(-2.432 -2.433)" fill="#506077"/>
  </g>
</svg>
