<svg id="Component_40_1" data-name="Component 40 – 1" xmlns="http://www.w3.org/2000/svg" xmlns:xlink="http://www.w3.org/1999/xlink" width="24" height="24" viewBox="0 0 24 24">
  <defs>
    <clipPath id="clip-path">
      <rect id="Rectangle_1977" data-name="Rectangle 1977" width="19.669" height="19.5" fill="none" stroke="#506077" stroke-width="1"/>
    </clipPath>
  </defs>
  <rect id="Rectangle_2118" data-name="Rectangle 2118" width="24" height="24" fill="none"/>
  <g id="sos_phone_call" data-name="sos phone call" transform="translate(2 2)">
    <g id="Group_33293" data-name="Group 33293" transform="translate(0 0)" clip-path="url(#clip-path)">
      <path id="Path_10768" data-name="Path 10768" d="M13.663,22.015A6.692,6.692,0,0,0,9.6,20.48a9.622,9.622,0,0,0-1.474,1.552,6.237,6.237,0,0,1-2.306-1.969,6.23,6.23,0,0,1-1.487-2.644,9.619,9.619,0,0,0,1.807-1.147,6.692,6.692,0,0,0-.72-4.287,8.355,8.355,0,0,0-4.084.534C.764,14.2.575,18,3.734,21.995a9.706,9.706,0,0,0,8.882,3.633A6.707,6.707,0,0,0,13.663,22.015Z" transform="translate(-0.558 -6.653)" fill="none" stroke="#506077" stroke-width="1"/>
      <path id="Path_10769" data-name="Path 10769" d="M20.74,19.391H17.646v-.455l1.441-1.208c.371-.337.692-.6.841-.774a2.347,2.347,0,0,0,.36-.512,1.3,1.3,0,0,0,.12-.512,1.018,1.018,0,0,0-.869-.944,1.882,1.882,0,0,0-1.9.891" transform="translate(-9.841 -8.34)" fill="none" stroke="#506077" stroke-width="1"/>
      <path id="Path_10770" data-name="Path 10770" d="M29.752,18.094H26.658v-.547L28.321,15h.548v4.862" transform="translate(-14.875 -8.37)" fill="none" stroke="#506077" stroke-width="1"/>
      <line id="Line_1476" data-name="Line 1476" y2="1.768" transform="translate(10.016 0)" fill="none" stroke="#506077" stroke-width="1"/>
      <line id="Line_1477" data-name="Line 1477" x2="0.605" y2="1.662" transform="translate(6.69 0.587)" fill="none" stroke="#506077" stroke-width="1"/>
      <line id="Line_1478" data-name="Line 1478" x2="1.136" y2="1.354" transform="translate(3.765 2.275)" fill="none" stroke="#506077" stroke-width="1"/>
      <line id="Line_1479" data-name="Line 1479" x1="1.136" y1="1.354" transform="translate(15.13 15.82)" fill="none" stroke="#506077" stroke-width="1"/>
      <line id="Line_1480" data-name="Line 1480" x1="1.531" y1="0.884" transform="translate(16.906 13.703)" fill="none" stroke="#506077" stroke-width="1"/>
      <line id="Line_1481" data-name="Line 1481" x1="1.741" y1="0.307" transform="translate(17.851 11.106)" fill="none" stroke="#506077" stroke-width="1"/>
      <line id="Line_1482" data-name="Line 1482" x1="1.741" y2="0.307" transform="translate(17.851 8.036)" fill="none" stroke="#506077" stroke-width="1"/>
      <line id="Line_1483" data-name="Line 1483" x1="1.531" y2="0.884" transform="translate(16.906 4.862)" fill="none" stroke="#506077" stroke-width="1"/>
      <line id="Line_1484" data-name="Line 1484" x1="1.136" y2="1.354" transform="translate(15.13 2.275)" fill="none" stroke="#506077" stroke-width="1"/>
      <line id="Line_1485" data-name="Line 1485" x1="0.605" y2="1.662" transform="translate(12.737 0.587)" fill="none" stroke="#506077" stroke-width="1"/>
    </g>
  </g>
</svg>
