<svg id="stealing_icon" data-name="stealing icon" xmlns="http://www.w3.org/2000/svg" xmlns:xlink="http://www.w3.org/1999/xlink" width="26.452" height="28" viewBox="0 0 26.452 28">
  <defs>
    <clipPath id="clip-path">
      <rect id="Rectangle_2097" data-name="Rectangle 2097" width="26.452" height="28" fill="none"/>
    </clipPath>
    <clipPath id="clip-path-2">
      <rect id="Rectangle_2095" data-name="Rectangle 2095" width="26.451" height="28" fill="none"/>
    </clipPath>
    <clipPath id="clip-path-3">
      <rect id="Rectangle_2094" data-name="Rectangle 2094" width="26.18" height="26.707" fill="none"/>
    </clipPath>
  </defs>
  <g id="Group_33440" data-name="Group 33440" clip-path="url(#clip-path)">
    <g id="Group_33437" data-name="Group 33437" transform="translate(0 0)">
      <g id="Group_33436" data-name="Group 33436" clip-path="url(#clip-path-2)">
        <g id="Group_33435" data-name="Group 33435" transform="translate(0.271 0)">
          <g id="Group_33434" data-name="Group 33434" transform="translate(0 0)">
            <g id="Group_33433" data-name="Group 33433" clip-path="url(#clip-path-3)">
              <path id="Path_15676" data-name="Path 15676" d="M26.768,23.515,25.022,21.77l-1.2.15.379-3.028-2.967.478.041-2L19.211,15.3l.047-.988-1.084-1.084a3.572,3.572,0,0,0,.162-2.523l-1.5-4.878a3.594,3.594,0,0,0-.891-1.479L14.825,3.233a3.561,3.561,0,0,0-1-.7L9.214.344A3.549,3.549,0,0,0,7.684,0,3.612,3.612,0,0,0,5.147,1.048l-3.4,3.4a3.59,3.59,0,0,0-.7,4.068l2.184,4.611a3.565,3.565,0,0,0,.7,1L5.05,15.241a3.594,3.594,0,0,0,1.478.89l4.878,1.5a3.558,3.558,0,0,0,2.018.026l1.153,1.153L15.8,18.72l7.988,7.988,3.094-.115ZM9.172,5.932,6.632,8.471a1.982,1.982,0,0,1-2.8-2.8L6.368,3.128a1.982,1.982,0,0,1,2.8,2.8" transform="translate(-0.701 0)" fill="#a6c8e6"/>
            </g>
          </g>
        </g>
      </g>
    </g>
    <path id="Path_15677" data-name="Path 15677" d="M33.542,41.283l3.5-3.5.641.64-.048.988,2.074,2.073-.053,2.6,2.864-.462-.374,2.991,1.81-.226,1.263,1.264.075,2-1.985.073-8-8-1.222.095Zm-1.093,0,1.34,1.34,1.222-.094L43,50.516l3.094-.115-.114-3.077-1.746-1.745-1.2.15.379-3.029-2.967.479.041-2.005-2.064-2.065.046-.987L37.04,36.693Z" transform="translate(-19.911 -22.516)"/>
    <g id="Group_33439" data-name="Group 33439" transform="translate(0 0)">
      <g id="Group_33438" data-name="Group 33438" clip-path="url(#clip-path-2)">
        <path id="Path_15678" data-name="Path 15678" d="M11.764,21.141a3.6,3.6,0,0,1-1.058-.16l-4.878-1.5a3.594,3.594,0,0,1-1.478-.89L3.232,17.471a3.565,3.565,0,0,1-.7-1L.344,11.86a3.59,3.59,0,0,1,.7-4.068l3.4-3.4A3.612,3.612,0,0,1,6.983,3.347a3.549,3.549,0,0,1,1.53.344l4.611,2.184a3.561,3.561,0,0,1,1,.7L15.24,7.7a3.59,3.59,0,0,1,.891,1.479l1.5,4.878a3.575,3.575,0,0,1-.891,3.589l-2.45,2.449a3.555,3.555,0,0,1-2.53,1.051M6.982,4.119a2.8,2.8,0,0,0-1.99.822l-3.4,3.4a2.818,2.818,0,0,0-.553,3.19L3.226,16.14a2.8,2.8,0,0,0,.552.784L4.9,18.041a2.819,2.819,0,0,0,1.159.7l4.879,1.5a2.8,2.8,0,0,0,.83.125h0a2.79,2.79,0,0,0,1.985-.824L16.2,17.1a2.8,2.8,0,0,0,.7-2.815L15.392,9.4a2.819,2.819,0,0,0-.7-1.16L13.578,7.126a2.8,2.8,0,0,0-.785-.553L8.182,4.389a2.786,2.786,0,0,0-1.2-.27M4.53,12.4a1.981,1.981,0,0,1-1.4-3.383L5.667,6.475a1.982,1.982,0,0,1,2.8,2.8L5.931,11.818a1.97,1.97,0,0,1-1.4.58M7.069,6.669a1.2,1.2,0,0,0-.855.352L3.675,9.56a1.21,1.21,0,0,0,1.71,1.711L7.924,8.732a1.208,1.208,0,0,0-.855-2.063" transform="translate(0 -2.054)"/>
      </g>
    </g>
  </g>
</svg>
