<svg id="violence_icon" data-name="violence icon" xmlns="http://www.w3.org/2000/svg" xmlns:xlink="http://www.w3.org/1999/xlink" width="31.603" height="28" viewBox="0 0 31.603 28">
  <defs>
    <clipPath id="clip-path">
      <rect id="Rectangle_2053" data-name="Rectangle 2053" width="31.603" height="28" fill="none"/>
    </clipPath>
    <clipPath id="clip-path-2">
      <rect id="Rectangle_2052" data-name="Rectangle 2052" width="31.603" height="28" fill="none" stroke="#707070" stroke-width="0.7"/>
    </clipPath>
    <clipPath id="clip-path-3">
      <rect id="Rectangle_2051" data-name="Rectangle 2051" width="10.855" height="27.413" fill="none"/>
    </clipPath>
  </defs>
  <g id="Group_33353" data-name="Group 33353" transform="translate(0 0)" clip-path="url(#clip-path)">
    <g id="Group_33352" data-name="Group 33352" transform="translate(0 0)">
      <g id="Group_33351" data-name="Group 33351" clip-path="url(#clip-path-2)">
        <path id="Path_15514" data-name="Path 15514" d="M1316.91,1777.085l-2.461.034a1.528,1.528,0,1,1-.042-3.055l2.461-.033a1.528,1.528,0,1,1,.042,3.055" transform="translate(-1300.417 -1757.26)" fill="none" stroke="#707070" stroke-width="0.7"/>
        <path id="Path_15515" data-name="Path 15515" d="M1312.5,1453.482l-2.461.033a1.528,1.528,0,1,1-.042-3.055l1.538-.021,1.23-.017a1.527,1.527,0,1,1,.042,3.055Z" transform="translate(-1296.044 -1436.712)" fill="none" stroke="#707070" stroke-width="0.7"/>
        <path id="Path_15516" data-name="Path 15516" d="M1307.156,1184.128l-1.538.021a1.533,1.533,0,0,1-1.559-1.507,1.517,1.517,0,0,1,.422-1.073l1.408,1.928a1.539,1.539,0,0,0,1.267.63" transform="translate(-1291.67 -1170.401)" fill="none" stroke="#707070" stroke-width="0.7"/>
        <path id="Path_15517" data-name="Path 15517" d="M1631.356,1129.874l-1.23.016a1.53,1.53,0,0,0,1.224-2.425l-.466-.638,0,0,.735-.01a1.528,1.528,0,1,1,.042,3.055Z" transform="translate(-1614.64 -1116.163)" fill="none" stroke="#707070" stroke-width="0.7"/>
        <path id="Path_15518" data-name="Path 15518" d="M1479.053,806.715l-2.214-3.028,2.91-.039a1.528,1.528,0,1,1,.042,3.055l-.736.01Z" transform="translate(-1462.809 -796.051)" fill="none" stroke="#707070" stroke-width="0.7"/>
        <path id="Path_15519" data-name="Path 15519" d="M1314.449,1780.625a1.528,1.528,0,1,1-.042-3.055" transform="translate(-1300.417 -1760.767)" fill="none" stroke="#000" stroke-linecap="round" stroke-linejoin="round" stroke-width="0.7"/>
        <path id="Path_15520" data-name="Path 15520" d="M1731.672,1774.03a1.528,1.528,0,1,1,.042,3.055" transform="translate(-1715.221 -1757.26)" fill="none" stroke="#000" stroke-linecap="round" stroke-linejoin="round" stroke-width="0.7"/>
        <path id="Path_15521" data-name="Path 15521" d="M1759.593,1450.422a1.528,1.528,0,1,1,.042,3.055" transform="translate(-1742.877 -1436.711)" fill="none" stroke="#000" stroke-linecap="round" stroke-linejoin="round" stroke-width="0.7"/>
        <path id="Path_15522" data-name="Path 15522" d="M1787.514,1126.815a1.528,1.528,0,1,1,.042,3.055" transform="translate(-1770.533 -1116.163)" fill="none" stroke="#000" stroke-linecap="round" stroke-linejoin="round" stroke-width="0.7"/>
        <path id="Path_15523" data-name="Path 15523" d="M1783.1,803.648a1.528,1.528,0,1,1,.042,3.055" transform="translate(-1766.159 -796.051)" fill="none" stroke="#000" stroke-linecap="round" stroke-linejoin="round" stroke-width="0.7"/>
        <path id="Path_15524" data-name="Path 15524" d="M1310.034,1457.458a1.528,1.528,0,1,1-.042-3.055" transform="translate(-1296.044 -1440.655)" fill="none" stroke="#000" stroke-linecap="round" stroke-linejoin="round" stroke-width="0.7"/>
        <path id="Path_15525" data-name="Path 15525" d="M1710.984,1126.608l-.155,0-.735.01" transform="translate(-1693.848 -1115.958)" fill="none" stroke="#000" stroke-linecap="round" stroke-linejoin="round" stroke-width="0.7"/>
        <line id="Line_2182" data-name="Line 2182" x1="2.909" y2="0.039" transform="translate(14.03 7.597)" fill="none" stroke="#333" stroke-linecap="round" stroke-linejoin="round" stroke-width="0.7"/>
        <path id="Path_15526" data-name="Path 15526" d="M1471.278,1450l-.307,0-1.23.016-1.538.021" transform="translate(-1454.255 -1436.29)" fill="none" stroke="#000" stroke-linecap="round" stroke-linejoin="round" stroke-width="0.7"/>
        <path id="Path_15527" data-name="Path 15527" d="M1475.388,1773.6l-.307,0-2.461.033" transform="translate(-1458.63 -1756.839)" fill="none" stroke="#000" stroke-linecap="round" stroke-linejoin="round" stroke-width="0.7"/>
        <path id="Path_15528" data-name="Path 15528" d="M1258.326,2097.212l-2.461.033-2.121.029" transform="translate(-1241.833 -2077.387)" fill="none" stroke="#000" stroke-linecap="round" stroke-linejoin="round" stroke-width="0.7"/>
        <path id="Path_15529" data-name="Path 15529" d="M28.648,1892.029l4.3-.111a.487.487,0,0,1,.371.141c1.422,1.569,5.056,1.888,6.963,1.862" transform="translate(-28.376 -1874.034)" fill="none" stroke="#000" stroke-linecap="round" stroke-linejoin="round" stroke-width="0.7"/>
        <path id="Path_15530" data-name="Path 15530" d="M28.648,678.888l4.17-.084c1.153-.254,2.541-1.935,4.106-3.013l.007,0a3.384,3.384,0,0,1,1.666-.576c.687-.05,1.548-.059,2.163-.063a1.326,1.326,0,0,1,1.046.5l.6.754,2.214,3.028.466.638a1.53,1.53,0,0,1-1.224,2.425,1.54,1.54,0,0,1-1.267-.63l-1.408-1.928-.563-.773a.771.771,0,0,0-1.265.03c-.616.932-1.013,2.342-4.719,2.77" transform="translate(-28.376 -668.765)" fill="none" stroke="#000" stroke-linecap="round" stroke-linejoin="round" stroke-width="0.7"/>
        <path id="Path_15531" data-name="Path 15531" d="M1305.618,1184.03a1.533,1.533,0,0,1-1.559-1.507,1.517,1.517,0,0,1,.422-1.072h0" transform="translate(-1291.67 -1170.282)" fill="none" stroke="#000" stroke-linecap="round" stroke-linejoin="round" stroke-width="0.7"/>
        <g id="Group_33350" data-name="Group 33350" transform="translate(20.748 0.665)">
          <g id="Group_33349" data-name="Group 33349">
            <g id="Group_33348" data-name="Group 33348" clip-path="url(#clip-path-3)">
              <path id="Path_15532" data-name="Path 15532" d="M2186.245,259.681c-.826-2.074-1.709-4.334-2.137-5.557a1.359,1.359,0,0,1,.671-1.7" transform="translate(-2184.023 -250.041)" fill="#167cd9"/>
              <path id="Path_15533" data-name="Path 15533" d="M2268.285,983.032a68.8,68.8,0,0,0,.107-7.133,2.012,2.012,0,0,0-.122-.7,1.711,1.711,0,0,0-1.237-1.1,1.275,1.275,0,0,0-1.381.605,1.309,1.309,0,0,0-.163.4,3.532,3.532,0,0,0-.088.929c0,.8.018,1.571-.128,3.436a9.85,9.85,0,0,1-.67,2.937,6.2,6.2,0,0,0,1.47,6.333c.235.24.458.438.8.776a14.065,14.065,0,0,1,1.772,2.76" transform="translate(-2263.518 -964.861)" fill="#a6c8e6"/>
              <path id="Path_15534" data-name="Path 15534" d="M2257.207,24.772l-1.844-3.2a2.42,2.42,0,0,1-.3-1.542c.24-1.737.747-4.219.883-5.762a5.155,5.155,0,0,0-.406-2.81l-3.209-6.648c-.992-1.942-1.262-2.512-2.047-3.906a1.6,1.6,0,0,0-2.122-.748,1.707,1.707,0,0,0-.751,2.115l0-.007,2.806,6.967" transform="translate(-2246.693 0.002)" fill="#a6c8e6"/>
              <path id="Path_15535" data-name="Path 15535" d="M2220.432,209.976s.47-1.4.915-1.4,6.9,17.375,6.9,17.375,1.046,2.783,1.177,2.991,1.516,3.147,1.516,3.147l-5.95,1.507s-3.082-19.974-4.3-22.107a5.347,5.347,0,0,1-.254-1.509" transform="translate(-2220.085 -206.599)" fill="#a6c8e6"/>
            </g>
          </g>
        </g>
        <path id="Path_15536" data-name="Path 15536" d="M2099.919,285.852a1.359,1.359,0,0,0-.671,1.7c.427,1.224,1.311,3.483,2.136,5.557" transform="translate(-2079.221 -283.15)" fill="none" stroke="#000" stroke-linecap="round" stroke-linejoin="round" stroke-width="0.7"/>
        <path id="Path_15537" data-name="Path 15537" d="M2183.424,1016.457a68.88,68.88,0,0,0,.107-7.133,2.012,2.012,0,0,0-.121-.7,1.711,1.711,0,0,0-1.237-1.1,1.276,1.276,0,0,0-1.382.606,1.327,1.327,0,0,0-.162.4,3.522,3.522,0,0,0-.088.929c0,.8.017,1.571-.128,3.436a9.846,9.846,0,0,1-.671,2.937,6.2,6.2,0,0,0,1.471,6.333c.235.24.458.438.8.776a14.085,14.085,0,0,1,1.772,2.76" transform="translate(-2158.715 -997.969)" fill="none" stroke="#000" stroke-linecap="round" stroke-linejoin="round" stroke-width="0.7"/>
        <path id="Path_15538" data-name="Path 15538" d="M2172.347,58.2,2170.5,55a2.425,2.425,0,0,1-.3-1.542c.24-1.737.747-4.219.883-5.762a5.151,5.151,0,0,0-.406-2.81l-3.209-6.648c-.992-1.942-1.262-2.512-2.047-3.906a1.6,1.6,0,0,0-2.122-.748,1.707,1.707,0,0,0-.751,2.115l0-.007,2.806,6.967" transform="translate(-2141.891 -33.106)" fill="none" stroke="#000" stroke-linecap="round" stroke-linejoin="round" stroke-width="0.7"/>
      </g>
    </g>
  </g>
</svg>
