<svg xmlns="http://www.w3.org/2000/svg" xmlns:xlink="http://www.w3.org/1999/xlink" width="208.638" height="153.294" viewBox="0 0 208.638 153.294">
  <defs>
    <clipPath id="clip-path">
      <rect id="Rectangle_2197" data-name="Rectangle 2197" width="208.638" height="130.891" fill="none"/>
    </clipPath>
    <clipPath id="clip-path-2">
      <rect id="Rectangle_2199" data-name="Rectangle 2199" width="83" height="152" transform="translate(184.449 277)" fill="#fff" stroke="#707070" stroke-width="1"/>
    </clipPath>
    <clipPath id="clip-path-3">
      <rect id="Rectangle_2198" data-name="Rectangle 2198" width="74.121" height="317.784" fill="none"/>
    </clipPath>
  </defs>
  <g id="Group_33596" data-name="Group 33596" transform="translate(-80.16 -276)">
    <g id="Group_33593" data-name="Group 33593" transform="translate(80.16 298.403)">
      <g id="Group_33592" data-name="Group 33592" transform="translate(0)" clip-path="url(#clip-path)">
        <path id="Path_16190" data-name="Path 16190" d="M190.141,128.134c-6.3.81-173.786,2.756-173.786,2.756C-.255,122.462-3.437,99.533,3.32,86.433c6.742-13.072,11.828-9.409,11.092-36.9-1.278-47.664,45.953-24.4,63.022-35.88,53.9-36.248,46.355,11.139,88.917,11.386,49.048.285,21.992,34.419,34.759,52.8,14.107,20.308,7.223,47.962-10.968,50.3" transform="translate(-0.001 0.001)" fill="#dbebfa"/>
      </g>
    </g>
    <g id="Mask_Group_5" data-name="Mask Group 5" transform="translate(-41.449 -1)" clip-path="url(#clip-path-2)">
      <g id="Group_33595" data-name="Group 33595" transform="translate(189.351 276.933)">
        <g id="Group_33594" data-name="Group 33594" transform="translate(0 0)" clip-path="url(#clip-path-3)">
          <path id="Path_16191" data-name="Path 16191" d="M170.559,993.006c.028-.2-1.337-15.7-1.325-16.009.049-1.32,3.259-1.645,4.9,1.057,3.232,5.327,6.577,1.822,6.688,4.1.431,8.846,2.9,19.972.582,23.123-1.617,2.193-8.328,3.755-12.335,3.647s-4.951-1.254-.995-8.622a21.228,21.228,0,0,0,2.487-7.295" transform="translate(-117.224 -691.144)" fill="#16162b"/>
          <path id="Path_16192" data-name="Path 16192" d="M19.334,311.554v20.841l-15.1,6.179a6.008,6.008,0,0,1-.822-2.85c0-.1.006-.19.006-.288.055-7.2.981-19.553.981-19.553Z" transform="translate(-2.419 -220.622)" fill="#ffa59d"/>
          <path id="Path_16193" data-name="Path 16193" d="M203.926,296.161c-.307,1.042-1.8.588-1.765-.386a51.334,51.334,0,0,1-10.187-7.024c-2.176-2.06-2.838-4.548-3.31-7.276h-1.618c-.613-4.75-1.924-10.457-1.924-10.457l1.544-1.06c-.227-1.379-.429-2.758-.588-4.137-.276-2.354-.067-4.327,2.409-5.118,2.329-.748,7.956-1.643,10.108-.019.864.638,1.085,1.943,1.379,2.893.711,2.3,1.416,4.585,2.121,6.884,2.672,8.673,4.456,16.752,1.832,25.7" transform="translate(-131.091 -183.953)" fill="#ffa59d"/>
          <path id="Path_16194" data-name="Path 16194" d="M27.381,1014.33l.983,17.735a108.5,108.5,0,0,1-27.392.222,1.111,1.111,0,0,1-.721-1.806c1.6-1.966,4.445-2.471,6.864-3.318,2.81-.983,3.176-.7,5.95-1.776,3.787-1.473,4.863-6.2,5.465-10.216,2.729-1,5.943-.814,8.85-.84" transform="translate(0 -718.284)" fill="#16162b"/>
          <path id="Path_16195" data-name="Path 16195" d="M92.042,641.218a27.381,27.381,0,0,1-16.133,1.992c-10.383-44.4-15.336-122.216-15.336-122.216-.012-.245-.074-1.109-.092-1.441-3.5,44.12-8,95.927-2.624,124.613A42.263,42.263,0,0,1,48,645.319a26.813,26.813,0,0,1-8.091-1.226,441.235,441.235,0,0,1-3.813-44.114c-1.876-50.562,1.066-80.143,1.152-81.149.907-11.578,2.17-21.631,2.771-26.118a140.453,140.453,0,0,0,45.94-5.627c-1.532,24.31-1.348,72.984,1.514,109.314,1.073,13.461,2.55,28.374,4.573,44.819" transform="translate(-25.116 -344.922)" fill="#958897"/>
          <path id="Path_16196" data-name="Path 16196" d="M182.937,662.792a.337.337,0,0,1-.355-.314,223.631,223.631,0,0,1-2.737-25.458c-.178-2.582-.362-5.252-.571-7.861-1.078-13.479-1.868-24.366-2.488-34.263-1.236-19.741-1.738-36.026-1.579-51.25v-.161l-.1-.123a32.976,32.976,0,0,1-6.807-13.578.452.452,0,0,1,.075-.4.612.612,0,0,1,.467-.216.378.378,0,0,1,.4.327,31.877,31.877,0,0,0,5.217,11.445l.771,1.063.021-1.313c.088-5.394.261-10.635.514-15.576a.51.51,0,0,1,.539-.48.493.493,0,0,1,.353.13.392.392,0,0,1,.092.305c-1.015,19.862-.713,41.68.949,68.661.613,9.957,1.374,20.529,2.467,34.278.217,2.729.406,5.526.589,8.23a224.953,224.953,0,0,0,2.762,25.911.493.493,0,0,1-.1.424.644.644,0,0,1-.476.222" transform="translate(-119.167 -371.508)" fill="#4b454c"/>
          <path id="Path_16197" data-name="Path 16197" d="M81.879,83.249c7.715-.761,6.686,12.438,4.381,20.44-1.143,3.968-7.372,6.911-10.58,7.04,2.661-5.287,6.755-10.663,6.331-17.2,1.452.123-1.378-9.361-.132-10.281" transform="translate(-53.592 -58.928)" fill="#8a4632"/>
          <path id="Path_16198" data-name="Path 16198" d="M60.45,172.858a21.051,21.051,0,0,0,14.973-2.908c-3.01-4.6-4.306-13.777-3.722-19.255-2.388,1.419-4.821,2.655-7.25,3.918-1.766.93-3.533,1.861-5.27,2.882a84.538,84.538,0,0,1,1.526,9.66,51.791,51.791,0,0,1-.257,5.7" transform="translate(-41.909 -106.711)" fill="#ffa59d"/>
          <path id="Path_16199" data-name="Path 16199" d="M60.707,176.15A17.654,17.654,0,0,0,70.755,163.4l-6.3.21c-1.766.93-3.533,1.861-5.27,2.882a84.466,84.466,0,0,1,1.526,9.66" transform="translate(-41.908 -115.707)" fill="#dd6478"/>
          <path id="Path_16200" data-name="Path 16200" d="M27.863,93.829a7.672,7.672,0,0,0-.669,8.683,9.373,9.373,0,0,0,4.111,4.057c-.653-3.168-1.2-6.354-1.854-9.521-1.039.094-.584-2.935-1.588-3.218" transform="translate(-18.53 -66.442)" fill="#8a4632"/>
          <path id="Path_16201" data-name="Path 16201" d="M38.572,121.8c3.122,1.828,8.159.3,10.8-1.889s3.751-4.683,4.376-8.084c.03-.2.068-.4.095-.608-.145-.395-.277-.8-.388-1.207-.3-1.092-.48-2.224-.686-3.335a13.055,13.055,0,0,0-1.888-5.323c-1.369-1.925-.369-6.341-2.678-6.932-4.438-.623-12.774,2.671-14.4,2.7a.459.459,0,0,0-.453.527l.614,4.356,0,.007a17.369,17.369,0,0,1,.267,1.88c.285,3.222-.112,6.451.292,9.668s1.169,6.538,4.048,8.238" transform="translate(-23.61 -66.809)" fill="#ffa59d"/>
          <path id="Path_16202" data-name="Path 16202" d="M98.03,127.655a3.408,3.408,0,0,1,1.28-2.365,2.054,2.054,0,0,1,2.079.109c1.581.879,1.685,3.2,1.219,4.895a5.025,5.025,0,0,1-4.069,3.382c-.273-1.943-.26-4.074-.509-6.021" transform="translate(-69.414 -88.551)" fill="#ffa59d"/>
          <path id="Path_16203" data-name="Path 16203" d="M52.827,147.015c.059.063-.1.233-.4.329a1.983,1.983,0,0,1-1.314-.036.066.066,0,0,0-.033-.013,2.064,2.064,0,0,1-.756-.508,1.35,1.35,0,0,1-.405-.74c-.008-.1.01-.144.06-.156a.11.11,0,0,1,.072,0,5.3,5.3,0,0,1,.521.39,3.264,3.264,0,0,0,.649.373.424.424,0,0,0,.088.038,3.292,3.292,0,0,0,1.059.215c.254.018.426.025.463.108" transform="translate(-35.346 -103.306)" fill="#dd6478"/>
          <path id="Path_16204" data-name="Path 16204" d="M66.49,114.564c-1.663-.614-3.079-1.056-4.676-.172-.447.247-.23.878.453.836a11.409,11.409,0,0,1,4.189.2c.767.175,1-.506.034-.863" transform="translate(-43.608 -80.651)" fill="#8a4632"/>
          <path id="Path_16205" data-name="Path 16205" d="M35.522,119.85a3.331,3.331,0,0,1,2.12-1.091c.506-.11.98.3.431.679a20.061,20.061,0,0,0-2.225,1.438c-.463.434-.9-.232-.327-1.026" transform="translate(-24.962 -84.083)" fill="#8a4632"/>
          <path id="Path_16206" data-name="Path 16206" d="M38.756,63a7.9,7.9,0,0,0-3.461-1.459,18.921,18.921,0,0,0-4.659-.266c-1.47.084-5.955,1.387-6.824-.1-.468-.8-1.734-.106-1.263.7a2.689,2.689,0,0,0,1.917,1.312,3.341,3.341,0,0,1-2.952-1.132c-1.7,1.731-3.571,8.47.678,11.574a6.321,6.321,0,0,0,5.381,1.508,37.73,37.73,0,0,0,10.661-2.654C37.769,75.58,40.5,78,42.641,80.281c2.68-2.761,1.92-6.221,1.088-9.977-.651-2.938-2.413-5.9-4.973-7.3" transform="translate(-13.878 -43.073)" fill="#8a4632"/>
          <path id="Path_16207" data-name="Path 16207" d="M42.34,131.449a.5.5,0,0,0-.644.285,1.651,1.651,0,0,0,.255,1.494.5.5,0,0,0,.7.068.48.48,0,0,0,.167-.287,1.345,1.345,0,0,0-.479-1.56" transform="translate(-29.47 -93.054)" fill="#4c3e42"/>
          <path id="Path_16208" data-name="Path 16208" d="M69.588,126.452a.5.5,0,0,0-.645.285,1.653,1.653,0,0,0,.256,1.495.5.5,0,0,0,.7.068.481.481,0,0,0,.167-.287,1.345,1.345,0,0,0-.48-1.56" transform="translate(-48.765 -89.516)" fill="#4c3e42"/>
          <path id="Path_16209" data-name="Path 16209" d="M66.609,290.327c.1,1.593.159,2.488.159,2.488-17.984,9.4-50.6,6.945-50.6,6.945,3.126-11.928,2.991-26.621,2.152-38.022-.086-1.121-.178-2.213-.27-3.261-.711-7.92-1.674-13.712-1.851-14.919-.006-.031-.006-.055-.012-.08l-.018-.11A20.067,20.067,0,0,1,6.8,238.043l.717-10.764a23.977,23.977,0,0,1,9.863-17.818c.8-.576,1.636-1.189,2.531-1.845,1.6-1.165,3.347-2.489,5.241-4.027q1.149-.92,2.366-1.955c.748.116,1.416.221,2.059.337,1.716.306,3.218.723,5.229,1.017.043.018.11.147.153.135a.047.047,0,0,0,.018-.006,2.1,2.1,0,0,1,.613-.135,13.44,13.44,0,0,1,1.888-.147l-.074-.3s.19-.049.2-.049.65-.7,1.263-.668.975.172,1.1.061c1.778-.012,3.04.6,5.731,1.244h.019c11.137-.074,18.192,3.959,22.655,8.918a29.409,29.409,0,0,1,5.486,9.035,32.2,32.2,0,0,1,2.164,8.876,21.748,21.748,0,0,1-15.955,5.461c.435,2.274.852,4.75,1.251,7.368.129.834.251,1.674.374,2.513,1.446,9.844,2.623,19.964,3.469,28.4,0,.006.006.006.006.012.717,7.141,1.207,13.08,1.446,16.617" transform="translate(-4.813 -142.783)" fill="#a6c8e6"/>
          <path id="Path_16210" data-name="Path 16210" d="M70.938,201.788c-.265.483-.514,1-.758,1.421-.271.522-.546,1.028-.813,1.5C65.3,211.836,62.006,215.5,59,216.228a4.319,4.319,0,0,1-3.729-.758c-1.6-1.194-2.51-3.494-3.024-5.63a26.7,26.7,0,0,1-.519-2.964c1.6-1.17,3.344-2.488,5.241-4.03a18.468,18.468,0,0,1,4.422-1.618,12.251,12.251,0,0,1,5.632-.494,3.115,3.115,0,0,1,.826.17.416.416,0,0,0,.131-.032,1.663,1.663,0,0,0,.168.029,9.337,9.337,0,0,0,1.023.031A15.085,15.085,0,0,1,70.8,201l.511.108c0-.014-.375.678-.375.678" transform="translate(-36.631 -142.042)" fill="#fff"/>
          <path id="Path_16211" data-name="Path 16211" d="M73.891,194.692c-.273.5-.532.994-.8,1.467-.272.5-.536.974-.807,1.437-.478.838-.938,1.618-1.387,2.337-.564.922-1.1,1.748-1.622,2.489-10.427,15.011-11.309-3.461-11.309-3.461.223-.176.457-.354.679-.535.255-.2.506-.414.755-.639.5-.383.4-2.075.428-2.1,1.216.873,3.019-1.092,4.564-1.671,2.474-.936,6.857-4.361,7.609-1.744.143.5.291.922.556,1.736a3.984,3.984,0,0,0,.524.76c.045-.011.762-.077.81-.078" transform="translate(-41.048 -135.471)" fill="#ffa59d"/>
          <path id="Path_16212" data-name="Path 16212" d="M113.132,591.208a.6.6,0,0,1-.618-.5c-.332-2.49-.6-5.061-.819-7.86l-.02-.256-.233-.108a6.5,6.5,0,0,1-3.741-4.764.506.506,0,0,1,.11-.431.655.655,0,0,1,.48-.224.319.319,0,0,1,.34.308,5.672,5.672,0,0,0,2.215,3.669l.754.552-.059-.933c-.175-2.772-.272-5.312-.3-7.765a.424.424,0,0,1,.111-.319.522.522,0,0,1,.371-.137.462.462,0,0,1,.5.464,146.82,146.82,0,0,0,1.275,17.919.335.335,0,0,1-.054.273.427.427,0,0,1-.319.114" transform="translate(-76.261 -405.364)" fill="#4b454c"/>
          <path id="Path_16213" data-name="Path 16213" d="M55.83,159.723a.759.759,0,0,0-.119-.021c-.009-.01-.016-.023-.026-.033a.824.824,0,0,0-1.143,0,1.358,1.358,0,0,0-.509,1.434,1.061,1.061,0,0,0,1.51.632l.1-.055a.978.978,0,0,0,.823-.448,1.035,1.035,0,0,0-.634-1.508" transform="translate(-38.224 -112.903)" fill="#dd6478"/>
          <path id="Path_16214" data-name="Path 16214" d="M188.044,315.862a35.373,35.373,0,0,1-1.576-5.506c-.116-.58-1-.334-.886.244a35.319,35.319,0,0,0,1.576,5.506c.206.549,1.1.311.887-.244" transform="translate(-131.41 -219.538)" fill="#5d717f"/>
          <path id="Path_16215" data-name="Path 16215" d="M38.656,313.1v11.339a.46.46,0,0,0,.919,0V313.1a.46.46,0,0,0-.919,0" transform="translate(-27.374 -221.404)" fill="#5d717f"/>
          <path id="Path_16216" data-name="Path 16216" d="M156.57,328.585c-1.269,4.315-3.457,6.332-6.172,6.786-11.781-.54-30.464-22.459-30.464-22.459a28.018,28.018,0,0,0-2.059-4.205,3.232,3.232,0,0,1,3.377-2.654l24.683,10.273.025.012c2.654,1.318,5.253,2.734,7.754,4.291,3.1,1.919,3.892,4.444,2.856,7.956" transform="translate(-83.471 -216.726)" fill="#ffa59d"/>
          <path id="Path_16217" data-name="Path 16217" d="M31.016,315.7l-.074-.276S24,330.55,14.53,338.994a6.637,6.637,0,0,1-9.445-.464q-.162-.192-.309-.4a8.819,8.819,0,0,1-.613-.981,5.478,5.478,0,0,1-.748-2.587c0-.092.006-.172.006-.264a5.632,5.632,0,0,1,1.434-3.286c1.017-1.262,2.36-2.746,3.77-4.235.1.245,20.08-17.622,20.387-17.9a2.358,2.358,0,0,1,1.385.288c2.4,1.336,1.483,4.567.619,6.534" transform="translate(-2.418 -218.722)" fill="#ffa59d"/>
          <path id="Path_16218" data-name="Path 16218" d="M83.161,267.029q-2.368,3.561-4.735,7.129c-.787-3.267-1.117-4.082-2.478-4.635a.385.385,0,0,0-.525.369c.07,2.976.24,8.207,1.247,11.042l4.761,3.467c1.191-.967,4.015-3.784,5.2-4.747a6.687,6.687,0,0,0,1.955-2.145,3.553,3.553,0,0,0,.21-.556,1.151,1.151,0,0,0,.1-.2,6.619,6.619,0,0,0,.411-3.611c-.177-1.156-.158-.026-.259-1.277a4.47,4.47,0,0,0-.346-1.768,11.923,11.923,0,0,1-.625-1.065c-.106-.36.009-.814-.128-1.2a3.41,3.41,0,0,0-1.422-1.692c-.075-.7-.374-1.315-1.257-1.356-1.1-.052-1.662,1.229-2.1,2.243" transform="translate(-53.409 -187.503)" fill="#ffa59d"/>
          <path id="Path_16219" data-name="Path 16219" d="M95.314,272.067q3.22,2.813,6.443,5.634c-.1-3.359,0-4.232,1.172-5.124a.385.385,0,0,1,.6.218c.715,2.889,1.926,7.981,1.7,10.981l-3.683,4.6c-1.4-.62-4.869-2.6-6.262-3.214a6.69,6.69,0,0,1-2.45-1.555,3.542,3.542,0,0,1-.349-.482,1.134,1.134,0,0,1-.147-.169A6.62,6.62,0,0,1,91,279.577c-.134-1.162.145-.066-.086-1.3a4.474,4.474,0,0,1-.13-1.8,11.968,11.968,0,0,0,.323-1.192c.008-.375-.223-.783-.191-1.187a3.411,3.411,0,0,1,.927-2.007,1.291,1.291,0,0,1,.856-1.639c1.05-.34,1.927.749,2.618,1.611" transform="translate(-64.25 -191.473)" fill="#ffa59d"/>
        </g>
      </g>
    </g>
  </g>
</svg>
