<svg xmlns="http://www.w3.org/2000/svg" xmlns:xlink="http://www.w3.org/1999/xlink" width="432.023" height="336.341" viewBox="0 0 432.023 336.341">
  <defs>
    <clipPath id="clip-path">
      <rect id="Rectangle_2168" data-name="Rectangle 2168" width="432.023" height="336.341" fill="none"/>
    </clipPath>
    <clipPath id="clip-path-2">
      <rect id="Rectangle_2167" data-name="Rectangle 2167" width="432.024" height="336.341" fill="none"/>
    </clipPath>
    <clipPath id="clip-path-3">
      <rect id="Rectangle_2139" data-name="Rectangle 2139" width="78.669" height="111.997" fill="none"/>
    </clipPath>
    <clipPath id="clip-path-4">
      <rect id="Rectangle_2140" data-name="Rectangle 2140" width="53.313" height="136.877" fill="none"/>
    </clipPath>
  </defs>
  <g id="Group_33564" data-name="Group 33564" transform="translate(0)">
    <g id="Group_33563" data-name="Group 33563" transform="translate(0 0)" clip-path="url(#clip-path)">
      <g id="Group_33562" data-name="Group 33562" transform="translate(0 -0.001)">
        <g id="Group_33561" data-name="Group 33561" clip-path="url(#clip-path-2)">
          <path id="Path_15705" data-name="Path 15705" d="M414.287,283.741q-2.307,5.259-4.923,10.387c-1.342,2.631-2.8,5.243-4.4,7.775a66.216,66.216,0,0,1-10.981,13.527,39.99,39.99,0,0,1-16.119,9.349,190.249,190.249,0,0,1-23.7,4.812s0,0,0,0c-9.785,1.445-20.644,2.584-31.913,3.478-53.627,4.251-116.493,2.956-116.493,2.956-20.523.972-61.026-.35-92.542-3.6-.045,0-6.015-.615-11.663-1.352-6.258-.821-13.406-1.906-19.549-3.351a134.215,134.215,0,0,1-14.459-4.273,121.878,121.878,0,0,1-19.09-8.713,103.25,103.25,0,0,1-15.614-10.812,83.073,83.073,0,0,1-19.483-23.438c-5.907-10.74-9.17-22.755-11.148-34.853C-11.829,159.778,42.422,49.409,123.333,13.784,159.092-1.959,200-2.913,238.386,4.378c27.394,5.2,53.809,14.417,79.611,24.834,21.58,8.709,46.994,16.9,64.532,32.76,6.739,6.1,12.146,13.519,17.009,21.194,37.367,58.973,42.793,136.752,14.749,200.575" transform="translate(0 0.003)" fill="#b5d8f4" opacity="0"/>
          <g id="Group_33557" data-name="Group 33557" transform="translate(14.469 211.455)" opacity="0">
            <g id="Group_33556" data-name="Group 33556">
              <g id="Group_33555" data-name="Group 33555" clip-path="url(#clip-path-3)">
                <path id="Path_15706" data-name="Path 15706" d="M159.539,1209.57a.4.4,0,0,0,.074-.021.381.381,0,0,0,.214-.495c-20.3-51.177-37.846-87.031-49.414-100.959-.257-.309-.442-.533-.515-.647a.382.382,0,0,0-.643.411,9.047,9.047,0,0,0,.572.724c11.518,13.868,29.024,49.649,49.292,100.752a.382.382,0,0,0,.421.235" transform="translate(-102.074 -1099.796)" fill="#476f91"/>
                <path id="Path_15707" data-name="Path 15707" d="M74.1,1075.673c1.363,1.557,7.764,4.082,8.209,3.693s-1.205-7.069-2.568-8.627a3.747,3.747,0,1,0-5.641,4.933" transform="translate(-73.178 -1069.459)" fill="#476f91"/>
                <path id="Path_15708" data-name="Path 15708" d="M139.754,1108.935c-.433,2.072,1.446,8.856,2.037,8.98s5.033-5.338,5.467-7.41a3.833,3.833,0,1,0-7.5-1.57" transform="translate(-126.539 -1098.683)" fill="#476f91"/>
                <path id="Path_15709" data-name="Path 15709" d="M92.341,1154.361c2.117-.044,8.3-3.4,8.291-4.007s-6.334-3.7-8.451-3.658a3.833,3.833,0,1,0,.16,7.665" transform="translate(-85.413 -1131.424)" fill="#476f91"/>
                <path id="Path_15710" data-name="Path 15710" d="M245,1271.529c-1.1,3.379.811,15.041,1.775,15.354s9.365-8,10.463-11.377A6.434,6.434,0,1,0,245,1271.529" transform="translate(-210.759 -1228.007)" fill="#476f91"/>
                <path id="Path_15711" data-name="Path 15711" d="M157.835,1338.769c3.54.309,14.472-4.177,14.561-5.187s-9.9-7.323-13.441-7.633a6.434,6.434,0,0,0-1.12,12.82" transform="translate(-136.383 -1275.215)" fill="#476f91"/>
                <path id="Path_15712" data-name="Path 15712" d="M288.554,1336.387c-2.222,3.739-3.084,18.173-2.017,18.807s13.333-7.023,15.555-10.762a7.874,7.874,0,0,0-13.537-8.045" transform="translate(-243.986 -1280.519)" fill="#476f91"/>
                <path id="Path_15713" data-name="Path 15713" d="M172.664,1421.486c4.348-.07,17.09-6.906,17.071-8.147s-12.974-7.668-17.322-7.6a7.874,7.874,0,0,0,.251,15.746" transform="translate(-146.576 -1339.25)" fill="#476f91"/>
                <path id="Path_15714" data-name="Path 15714" d="M324.793,1420.553c-2.221,3.738-3.084,18.173-2.017,18.807s13.333-7.024,15.555-10.762a7.874,7.874,0,1,0-13.538-8.045" transform="translate(-273.06 -1348.043)" fill="#476f91"/>
                <path id="Path_15715" data-name="Path 15715" d="M208.9,1505.651c4.348-.069,17.091-6.906,17.071-8.147s-12.973-7.668-17.322-7.6a7.874,7.874,0,1,0,.251,15.745" transform="translate(-175.65 -1406.775)" fill="#476f91"/>
                <path id="Path_15716" data-name="Path 15716" d="M370.444,1533.239c-3.478,2.61-9.774,15.628-9.029,16.621s15-1.416,18.482-4.026a7.874,7.874,0,1,0-9.453-12.595" transform="translate(-304.376 -1440.275)" fill="#476f91"/>
                <path id="Path_15717" data-name="Path 15717" d="M268.794,1583.391a.613.613,0,0,1-.225.322l-.016.014a19.532,19.532,0,0,1-4.38,2.222,121.844,121.844,0,0,1-19.09-8.713,7.882,7.882,0,0,1,7.475-3.549c3.432.377,11.736,5.5,14.944,8.206.27.226.5.437.694.626.4.4.616.7.6.873" transform="translate(-211.094 -1473.952)" fill="#476f91"/>
                <path id="Path_15718" data-name="Path 15718" d="M172.587,1161.151c-.441,2.106,1.469,9,2.07,9.124s5.114-5.423,5.555-7.529a3.895,3.895,0,0,0-7.624-1.6" transform="translate(-152.879 -1140.536)" fill="#476f91"/>
                <path id="Path_15719" data-name="Path 15719" d="M125.874,1207.844c2.15-.045,8.437-3.457,8.424-4.071s-6.436-3.761-8.586-3.717a3.895,3.895,0,0,0,.162,7.788" transform="translate(-112.266 -1174.234)" fill="#476f91"/>
                <path id="Path_15720" data-name="Path 15720" d="M208.431,1205.812c-.869,2.93,1.031,12.912,1.868,13.16s7.873-7.083,8.742-10.013a5.533,5.533,0,0,0-10.609-3.147" transform="translate(-181.511 -1175.675)" fill="#476f91"/>
                <path id="Path_15721" data-name="Path 15721" d="M135.63,1271.026c3.055-.063,11.986-4.912,11.968-5.784s-9.143-5.343-12.2-5.28a5.533,5.533,0,0,0,.231,11.064" transform="translate(-118.751 -1222.295)" fill="#476f91"/>
              </g>
            </g>
          </g>
          <g id="Group_33560" data-name="Group 33560" transform="translate(360.541 172.834)" opacity="0.2">
            <g id="Group_33559" data-name="Group 33559">
              <g id="Group_33558" data-name="Group 33558" clip-path="url(#clip-path-4)">
                <path id="Path_15722" data-name="Path 15722" d="M1888.982,1047.07a.393.393,0,0,0,.086,0,.43.43,0,0,0,.374-.48c-7.684-61.556-16.7-105.623-25.383-124.083-.193-.41-.332-.706-.38-.852a.43.43,0,1,0-.817.266,10.042,10.042,0,0,0,.419.952c8.646,18.38,17.634,62.355,25.307,123.823a.431.431,0,0,0,.394.375" transform="translate(-1855.06 -912.019)" fill="#476f91"/>
                <path id="Path_15723" data-name="Path 15723" d="M1829.261,880.245c1.046,2.084,7.315,6.646,7.91,6.347s.683-8.052-.364-10.136a4.222,4.222,0,1,0-7.546,3.788" transform="translate(-1827.759 -874.128)" fill="#476f91"/>
                <path id="Path_15724" data-name="Path 15724" d="M1889.926,935.14c-1.058,2.138-.925,10.069-.314,10.372s7-4.4,8.057-6.539a4.32,4.32,0,0,0-7.742-3.833" transform="translate(-1876.161 -921.148)" fill="#476f91"/>
                <path id="Path_15725" data-name="Path 15725" d="M1826.813,971.313c2.321.549,10.019-1.366,10.176-2.029s-5.863-5.827-8.185-6.377a4.319,4.319,0,1,0-1.991,8.406" transform="translate(-1823.489 -945.259)" fill="#476f91"/>
                <path id="Path_15726" data-name="Path 15726" d="M1950.455,1144.87c-2.153,3.376-3.365,16.636-2.4,17.25s12.474-6.078,14.627-9.454a7.25,7.25,0,0,0-12.226-7.8" transform="translate(-1923.156 -1088.648)" fill="#476f91"/>
                <path id="Path_15727" data-name="Path 15727" d="M1842.8,1193.566c3.775,1.337,16.966-.468,17.347-1.545s-8.73-10.785-12.5-12.123a7.25,7.25,0,1,0-4.843,13.667" transform="translate(-1835.107 -1119.106)" fill="#476f91"/>
                <path id="Path_15728" data-name="Path 15728" d="M1969.917,1230.911c-3.479,3.45-8.5,18.952-7.513,19.945s16.528-3.9,20.007-7.346a8.872,8.872,0,0,0-12.494-12.6" transform="translate(-1934.837 -1158.304)" fill="#476f91"/>
                <path id="Path_15729" data-name="Path 15729" d="M1833.75,1289.419c4.762,1.152,20.593-2.706,20.922-4.065s-11.986-12.028-16.748-13.181a8.872,8.872,0,1,0-4.174,17.246" transform="translate(-1826.276 -1193.269)" fill="#476f91"/>
                <path id="Path_15730" data-name="Path 15730" d="M1985.672,1332.954c-3.479,3.45-8.5,18.953-7.512,19.945s16.528-3.9,20.006-7.346a8.872,8.872,0,1,0-12.494-12.6" transform="translate(-1947.478 -1240.171)" fill="#476f91"/>
                <path id="Path_15731" data-name="Path 15731" d="M1849.506,1391.461c4.762,1.153,20.593-2.705,20.922-4.064s-11.986-12.029-16.748-13.182a8.872,8.872,0,1,0-4.174,17.246" transform="translate(-1838.917 -1275.136)" fill="#476f91"/>
                <path id="Path_15732" data-name="Path 15732" d="M1866.037,1493.155c4.581,1.739,20.77-.11,21.266-1.417s-10.388-13.433-14.969-15.172a8.872,8.872,0,0,0-6.3,16.589" transform="translate(-1853.032 -1356.986)" fill="#476f91"/>
                <path id="Path_15733" data-name="Path 15733" d="M1910.887,1001.433c-1.076,2.172-.94,10.23-.319,10.537s7.109-4.471,8.185-6.643a4.389,4.389,0,0,0-7.866-3.894" transform="translate(-1892.967 -974.303)" fill="#476f91"/>
                <path id="Path_15734" data-name="Path 15734" d="M1848.2,1039.187c2.359.558,10.179-1.388,10.338-2.062s-5.957-5.92-8.315-6.479a4.388,4.388,0,1,0-2.023,8.541" transform="translate(-1840.607 -999.604)" fill="#476f91"/>
                <path id="Path_15735" data-name="Path 15735" d="M1932.091,1061.93c-1.776,2.951-2.522,14.376-1.681,14.883s10.589-5.5,12.364-8.453a6.235,6.235,0,0,0-10.683-6.43" transform="translate(-1908.993 -1022.374)" fill="#476f91"/>
                <path id="Path_15736" data-name="Path 15736" d="M1838.882,1112.5c3.35.794,14.461-1.972,14.688-2.929s-8.464-8.411-11.815-9.2a6.234,6.234,0,1,0-2.873,12.133" transform="translate(-1831.988 -1055.496)" fill="#476f91"/>
              </g>
            </g>
          </g>
          <path id="Path_15737" data-name="Path 15737" d="M1809.8,1307.146c-.048.065-.1.131-.145.194q-1.294,1.708-2.683,3.318a55.735,55.735,0,0,1-4.426,4.585,45.92,45.92,0,0,1-5.052,4.056c-13.75.531-22.975-6.831-29.168-17.065-12.355-20.418-12.631-52.267-12.625-55.716v0c0-.2,0-.3,0-.3l.024.01.388.163c25.2,10.546,39.136,22.063,46.521,32.72q.176.253.346.507c.079.119.159.237.235.352,7.014,10.569,7.651,20.234,6.584,27.181" transform="translate(-1408.558 -999.81)" fill="#476f91"/>
          <path id="Path_15738" data-name="Path 15738" d="M1809.279,1306.784q-1.293,1.708-2.683,3.317l-.66-.828L1792.6,1292.5l-.388-.489,0,0-10.445-13.131-.314-.4-26.1-32.816-.118-.147q.194.08.388.163c25.327,10.6,39.277,22.171,46.639,32.867.117.169.232.338.346.507.079.119.159.236.235.352,7.037,10.687,7.572,20.437,6.439,27.376" transform="translate(-1408.187 -999.253)" fill="#83b4df"/>
          <path id="Path_15739" data-name="Path 15739" d="M1804.988,1308.493a.2.2,0,0,1-.16-.077l-50.576-63.593a.2.2,0,1,1,.318-.253l50.576,63.593a.2.2,0,0,1-.033.285.2.2,0,0,1-.126.044" transform="translate(-1407.365 -998.43)" fill="#060633"/>
          <path id="Path_15740" data-name="Path 15740" d="M1797.592,1397.853a.188.188,0,0,1-.033,0l-22.269-3.684a.2.2,0,0,1,.066-.4l22.269,3.685a.2.2,0,0,1-.032.4" transform="translate(-1424.142 -1118.185)" fill="#060633"/>
          <path id="Path_15741" data-name="Path 15741" d="M1927.526,1393.093a.2.2,0,0,1-.2-.169l-3.75-21.837a.2.2,0,1,1,.4-.068l3.75,21.837a.2.2,0,0,1-.166.235l-.035,0" transform="translate(-1543.243 -1099.803)" fill="#060633"/>
          <path id="Path_15742" data-name="Path 15742" d="M1741.484,1542.523a45.826,45.826,0,0,1-5.052,4.057,38.507,38.507,0,0,1-7.656,4.129,35.053,35.053,0,0,1-3.411,1.164,190.289,190.289,0,0,1-23.695,4.812c-.039-.029-.077-.061-.115-.091l-.062-.052a124.716,124.716,0,0,1-21.873-23.838.1.1,0,0,0-.012-.018.229.229,0,0,0-.018-.026,123.87,123.87,0,0,1,27.672-3.144c18.531.262,28.673,6.473,34.22,13.008" transform="translate(-1347.502 -1227.09)" fill="#476f91"/>
          <path id="Path_15743" data-name="Path 15743" d="M1701.671,1569.477a190.245,190.245,0,0,0,23.695-4.812,34.668,34.668,0,0,0,3.411-1.165l-49.185-18.048c.006.008.014.018.018.026s.01.012.011.017c7.988,10.681,15.278,18.391,21.873,23.838l.062.052.113.094Z" transform="translate(-1347.502 -1239.883)" fill="#83b4df"/>
          <path id="Path_15744" data-name="Path 15744" d="M781.453,461.4V703.243c-53.627,4.251-116.493,2.955-116.493,2.955-20.533.972-61.068-.352-92.592-3.607V461.4Z" transform="translate(-459.199 -370.169)" fill="#dbebfa"/>
          <path id="Path_15745" data-name="Path 15745" d="M743.3,291.446H509.261l12.477-55.457H730.823Z" transform="translate(-408.569 -189.329)" fill="#d80c00"/>
          <rect id="Rectangle_2141" data-name="Rectangle 2141" width="25.29" height="50.144" transform="translate(268.822 35.291)" fill="#9ab8cc"/>
          <rect id="Rectangle_2142" data-name="Rectangle 2142" width="21.464" height="21.464" transform="translate(145.478 63.122)" fill="#171778"/>
          <path id="Path_15746" data-name="Path 15746" d="M754.2,337.668H730.748V314.217H754.2Zm-21.464-1.987h19.476V316.2H732.736Z" transform="translate(-586.265 -252.089)" fill="#ed6562"/>
          <rect id="Rectangle_2143" data-name="Rectangle 2143" width="1.944" height="21.464" transform="translate(155.237 63.122)" fill="#ed6562"/>
          <rect id="Rectangle_2144" data-name="Rectangle 2144" width="21.464" height="21.464" transform="translate(203.013 63.122)" fill="#171778"/>
          <path id="Path_15747" data-name="Path 15747" d="M1045.192,337.668h-23.451V314.217h23.451Zm-21.464-1.987H1043.2V316.2h-19.477Z" transform="translate(-819.722 -252.089)" fill="#ed6562"/>
          <rect id="Rectangle_2145" data-name="Rectangle 2145" width="1.944" height="21.464" transform="translate(212.773 63.122)" fill="#ed6562"/>
          <rect id="Rectangle_2146" data-name="Rectangle 2146" width="45.056" height="82.291" transform="translate(154.481 232.102)" fill="#dbebfa"/>
          <rect id="Rectangle_2147" data-name="Rectangle 2147" width="214.341" height="9.241" transform="translate(110.797 212.107)" fill="#9ab8cc"/>
          <rect id="Rectangle_2148" data-name="Rectangle 2148" width="31.074" height="4.502" transform="translate(140.219 58.112)" fill="#ed6562"/>
          <rect id="Rectangle_2149" data-name="Rectangle 2149" width="31.074" height="4.502" transform="translate(197.518 58.112)" fill="#ed6562"/>
          <path id="Path_15748" data-name="Path 15748" d="M381.254,1290.041c-4.9-24.745-29.131-49.728-31.677-52.3l-.217-.217-.01.022c-.054.132-.109.262-.163.391-10.587,25.33-12.7,43.626-10.715,56.781.03.194.059.388.091.578s.068.408.1.609a.008.008,0,0,0,0,.006c.02.119.042.24.063.36.01.059.022.121.034.183,2.17,11.787,7.7,19.223,13.064,23.822.08.022.157.042.237.059q.477.116.954.229c1.648.388,3.434.765,5.342,1.129,3.272.624,6.9,1.21,10.808,1.761.193.028.386.056.579.081,11.667-9.339,13.9-21.39,11.5-33.5" transform="translate(-271.015 -992.842)" fill="#83b4df"/>
          <path id="Path_15749" data-name="Path 15749" d="M358.25,1321.011c-1.908-.364-3.695-.741-5.342-1.128-.318-.076-.636-.151-.954-.229-5.426-4.562-11.072-12-13.3-23.882-.012-.062-.024-.123-.034-.183-.022-.12-.044-.241-.063-.36a.008.008,0,0,1,0-.006c-.036-.2-.07-.406-.1-.608-2.18-13.215-.195-31.727,10.6-57.552.054-.129.107-.259.163-.39l.02.191,4.629,43.216.054.5,1.854,17.311v0l.067.62,2.365,22.083Z" transform="translate(-270.901 -992.156)" fill="#476f91"/>
          <path id="Path_15750" data-name="Path 15750" d="M404.38,1319.718a.2.2,0,0,1-.121.057.2.2,0,0,1-.224-.18l-8.967-83.722a.2.2,0,0,1,.4-.043l8.967,83.721a.2.2,0,0,1-.059.166" transform="translate(-316.955 -991.334)" fill="#060633"/>
          <path id="Path_15751" data-name="Path 15751" d="M419.09,1380.265a.2.2,0,0,1-.306-.265l13.747-18.923a.2.2,0,0,1,.329.239l-13.747,18.923a.217.217,0,0,1-.022.026" transform="translate(-335.95 -1091.896)" fill="#060633"/>
          <path id="Path_15752" data-name="Path 15752" d="M375.551,1471.306a.325.325,0,0,1-.026.022.2.2,0,0,1-.283-.051l-13.125-18.839a.207.207,0,0,1,.051-.283.2.2,0,0,1,.283.05l13.125,18.839a.2.2,0,0,1-.024.261" transform="translate(-290.49 -1165.004)" fill="#060633"/>
          <path id="Path_15753" data-name="Path 15753" d="M517.221,1470.721l-.006.032c-1.757,9.1-5.569,18.1-13.509,21.853h0c-3.882-.4-7.622-.837-11.172-1.3q-1.431-.187-2.82-.38c-.193-.026-.386-.053-.578-.081-2.516-5.837-5.032-18.827,12.082-33.416a94.716,94.716,0,0,1,17.023-11.261.083.083,0,0,0,0,.022.055.055,0,0,0,0,.016.075.075,0,0,0,0,.022,94.07,94.07,0,0,1-1.024,24.494" transform="translate(-390.977 -1160.229)" fill="#476f91"/>
          <path id="Path_15754" data-name="Path 15754" d="M538.322,1470.721l-.006.032c-2.391,13.087-7.757,19.183-13.02,21.9h0l-.048-.006-.439-.046h0c-3.882-.4-7.622-.837-11.172-1.3l1.222-2.149.294-.515v0l11.009-19.328.459-.8v0l12.722-22.338a.086.086,0,0,0,0,.022.045.045,0,0,0,0,.016,103.655,103.655,0,0,1-1.022,24.515" transform="translate(-412.078 -1160.229)" fill="#83b4df"/>
          <path id="Path_15755" data-name="Path 15755" d="M212.082,708.015a3.461,3.461,0,0,0,1.015-.282c1.577-.81.934-3.432-.617-4.29s-3.444-.634-5.21-.79-3.787-1.039-4.059-2.791c-.206-1.325.679-2.778.044-3.958a2.984,2.984,0,0,0-1.336-1.132,10.877,10.877,0,0,0-9.479-.157,2.285,2.285,0,0,0-1.036.8,4.8,4.8,0,0,0-.356,1.18c-.5,1.716-2.523,2.492-4.309,2.559-3.507.131-8.637-.4-9.25,4.479-.453,3.607,2.246,4.675,5.215,5.475,8.723,2.35,20.638.388,29.379-1.093" transform="translate(-142.355 -556.463)" fill="#fff"/>
          <path id="Path_15756" data-name="Path 15756" d="M384.55,578.153c1.382.012,2.995.007,3.837-1.089.907-1.181.254-3.039-1-3.846a6.334,6.334,0,0,0-4.329-.6c-3.26.462-6.421,1.8-9.711,1.656a24.017,24.017,0,0,0-3.809-.19c-4.671.539-3.146,5.843.726,6.078,4.538.276,9.555-2.053,14.283-2.013" transform="translate(-294.153 -459.308)" fill="#fff"/>
          <path id="Path_15757" data-name="Path 15757" d="M1779.149,615.3a4.664,4.664,0,0,0,1.368-.381c2.126-1.091,1.259-4.625-.832-5.78s-4.641-.855-7.02-1.065-5.1-1.4-5.47-3.761c-.278-1.785.916-3.743.059-5.334a4.022,4.022,0,0,0-1.8-1.526,14.659,14.659,0,0,0-12.773-.212,3.085,3.085,0,0,0-1.4,1.079,6.489,6.489,0,0,0-.479,1.59c-.673,2.312-3.4,3.358-5.807,3.448-4.725.177-11.639-.543-12.465,6.036-.61,4.86,3.027,6.3,7.027,7.378,11.755,3.167,27.81.522,39.59-1.473" transform="translate(-1389.921 -478.062)" fill="#fff"/>
          <path id="Path_15758" data-name="Path 15758" d="M1987.849,878.06c1.24.011,2.686.006,3.441-.977a2.526,2.526,0,0,0-.894-3.449,5.684,5.684,0,0,0-3.884-.535c-2.924.415-5.759,1.617-8.71,1.486a21.48,21.48,0,0,0-3.416-.171c-4.19.484-2.822,5.241.651,5.452,4.071.248,8.571-1.842,12.812-1.806" transform="translate(-1581.927 -700.384)" fill="#fff"/>
          <path id="Path_15759" data-name="Path 15759" d="M1121.071,140.225c1.541.013,3.339.008,4.279-1.214,1.012-1.317.284-3.389-1.112-4.289a7.064,7.064,0,0,0-4.828-.665c-3.636.515-7.16,2.01-10.828,1.847a26.819,26.819,0,0,0-4.248-.212c-5.208.6-3.508,6.515.81,6.778,5.06.308,10.656-2.29,15.927-2.245" transform="translate(-883.394 -107.445)" fill="#fff"/>
          <path id="Path_15760" data-name="Path 15760" d="M751.447,99.716c2.9.025,6.273.015,8.037-2.281,1.9-2.473.533-6.366-2.089-8.057s-5.981-1.687-9.069-1.249c-6.83.968-13.45,3.775-20.342,3.469-2.665-.118-5.329-.7-7.979-.4-9.784,1.13-6.591,12.24,1.522,12.733,9.506.578,20.016-4.3,29.92-4.217" transform="translate(-572.78 -70.506)" fill="#fff"/>
          <rect id="Rectangle_2150" data-name="Rectangle 2150" width="4.706" height="6.777" transform="translate(273.386 28.515)" fill="#476f91"/>
          <rect id="Rectangle_2151" data-name="Rectangle 2151" width="4.706" height="6.777" transform="translate(284.841 28.515)" fill="#476f91"/>
          <rect id="Rectangle_2152" data-name="Rectangle 2152" width="28.487" height="3.78" transform="translate(267.223 35.291)" fill="#dbebfa"/>
          <path id="Path_15761" data-name="Path 15761" d="M882.49,1228.666H868.948a.3.3,0,0,0-.3.3v3.127h14.14v-3.127a.3.3,0,0,0-.3-.3" transform="translate(-696.899 -985.733)" fill="#fff"/>
          <rect id="Rectangle_2153" data-name="Rectangle 2153" width="0.257" height="13.619" transform="translate(178.681 232.282)" fill="#fff"/>
          <rect id="Rectangle_2154" data-name="Rectangle 2154" width="45.056" height="82.291" transform="translate(232.487 232.102)" fill="#debb83"/>
          <rect id="Rectangle_2155" data-name="Rectangle 2155" width="66.18" height="7.795" transform="translate(221.924 314.156)" fill="#9ab8cc"/>
          <path id="Path_15762" data-name="Path 15762" d="M1206.51,1241.586a.272.272,0,1,1,.181.339.271.271,0,0,1-.181-.339" transform="translate(-967.948 -995.943)" fill="#474fea"/>
          <path id="Path_15763" data-name="Path 15763" d="M1206.51,1244.4a.272.272,0,1,1,.181.339.273.273,0,0,1-.181-.339" transform="translate(-967.948 -998.199)" fill="#474fea"/>
          <path id="Path_15764" data-name="Path 15764" d="M1206.51,1247.211a.272.272,0,1,1,.181.339.272.272,0,0,1-.181-.339" transform="translate(-967.948 -1000.455)" fill="#474fea"/>
          <path id="Path_15765" data-name="Path 15765" d="M1206.51,1250.024a.272.272,0,1,1,.181.339.272.272,0,0,1-.181-.339" transform="translate(-967.948 -1002.713)" fill="#474fea"/>
          <path id="Path_15766" data-name="Path 15766" d="M1206.51,1252.837a.272.272,0,1,1,.181.339.272.272,0,0,1-.181-.339" transform="translate(-967.948 -1004.969)" fill="#474fea"/>
          <path id="Path_15767" data-name="Path 15767" d="M1206.51,1255.649a.272.272,0,1,1,.181.339.272.272,0,0,1-.181-.339" transform="translate(-967.948 -1007.226)" fill="#474fea"/>
          <path id="Path_15768" data-name="Path 15768" d="M1206.51,1258.462a.272.272,0,1,1,.181.339.272.272,0,0,1-.181-.339" transform="translate(-967.948 -1009.482)" fill="#474fea"/>
          <path id="Path_15769" data-name="Path 15769" d="M1206.51,1261.276a.272.272,0,1,1,.181.339.272.272,0,0,1-.181-.339" transform="translate(-967.948 -1011.739)" fill="#474fea"/>
          <path id="Path_15770" data-name="Path 15770" d="M1206.51,1264.088a.272.272,0,1,1,.181.339.272.272,0,0,1-.181-.339" transform="translate(-967.948 -1013.996)" fill="#474fea"/>
          <path id="Path_15771" data-name="Path 15771" d="M1206.51,1266.9a.272.272,0,1,1,.181.339.272.272,0,0,1-.181-.339" transform="translate(-967.948 -1016.253)" fill="#474fea"/>
          <path id="Path_15772" data-name="Path 15772" d="M1206.51,1269.714a.272.272,0,1,1,.181.339.272.272,0,0,1-.181-.339" transform="translate(-967.948 -1018.51)" fill="#474fea"/>
          <path id="Path_15773" data-name="Path 15773" d="M1206.51,1272.526a.272.272,0,1,1,.181.339.272.272,0,0,1-.181-.339" transform="translate(-967.948 -1020.766)" fill="#474fea"/>
          <path id="Path_15774" data-name="Path 15774" d="M1206.51,1275.339a.272.272,0,1,1,.181.34.272.272,0,0,1-.181-.34" transform="translate(-967.948 -1023.022)" fill="#474fea"/>
          <path id="Path_15775" data-name="Path 15775" d="M1206.51,1278.152a.272.272,0,1,1,.181.339.272.272,0,0,1-.181-.339" transform="translate(-967.948 -1025.279)" fill="#474fea"/>
          <path id="Path_15776" data-name="Path 15776" d="M1206.51,1280.965a.272.272,0,1,1,.181.339.272.272,0,0,1-.181-.339" transform="translate(-967.948 -1027.536)" fill="#474fea"/>
          <path id="Path_15777" data-name="Path 15777" d="M1206.51,1283.777a.272.272,0,1,1,.181.339.271.271,0,0,1-.181-.339" transform="translate(-967.948 -1029.792)" fill="#474fea"/>
          <path id="Path_15778" data-name="Path 15778" d="M1206.51,1286.591a.272.272,0,1,1,.181.339.272.272,0,0,1-.181-.339" transform="translate(-967.948 -1032.049)" fill="#474fea"/>
          <path id="Path_15779" data-name="Path 15779" d="M1206.51,1289.4a.272.272,0,1,1,.181.338.272.272,0,0,1-.181-.338" transform="translate(-967.948 -1034.305)" fill="#474fea"/>
          <path id="Path_15780" data-name="Path 15780" d="M1206.51,1292.216a.272.272,0,1,1,.181.339.272.272,0,0,1-.181-.339" transform="translate(-967.948 -1036.563)" fill="#474fea"/>
          <path id="Path_15781" data-name="Path 15781" d="M1206.51,1295.028a.272.272,0,1,1,.181.339.272.272,0,0,1-.181-.339" transform="translate(-967.948 -1038.818)" fill="#474fea"/>
          <path id="Path_15782" data-name="Path 15782" d="M1206.51,1297.842a.272.272,0,1,1,.181.339.271.271,0,0,1-.181-.339" transform="translate(-967.948 -1041.076)" fill="#474fea"/>
          <path id="Path_15783" data-name="Path 15783" d="M1206.51,1300.654a.272.272,0,1,1,.181.339.272.272,0,0,1-.181-.339" transform="translate(-967.948 -1043.332)" fill="#474fea"/>
          <path id="Path_15784" data-name="Path 15784" d="M1206.51,1303.467a.272.272,0,1,1,.181.339.272.272,0,0,1-.181-.339" transform="translate(-967.948 -1045.589)" fill="#474fea"/>
          <path id="Path_15785" data-name="Path 15785" d="M1206.51,1306.28a.272.272,0,1,1,.181.339.271.271,0,0,1-.181-.339" transform="translate(-967.948 -1047.845)" fill="#474fea"/>
          <path id="Path_15786" data-name="Path 15786" d="M1206.51,1174.079a.272.272,0,1,1,.181.339.272.272,0,0,1-.181-.339" transform="translate(-967.948 -941.783)" fill="#474fea"/>
          <path id="Path_15787" data-name="Path 15787" d="M1206.51,1176.892a.272.272,0,1,1,.181.339.272.272,0,0,1-.181-.339" transform="translate(-967.948 -944.04)" fill="#474fea"/>
          <path id="Path_15788" data-name="Path 15788" d="M1206.51,1179.7a.272.272,0,1,1,.181.339.272.272,0,0,1-.181-.339" transform="translate(-967.948 -946.296)" fill="#474fea"/>
          <path id="Path_15789" data-name="Path 15789" d="M1206.51,1182.518a.272.272,0,1,1,.181.339.272.272,0,0,1-.181-.339" transform="translate(-967.948 -948.554)" fill="#474fea"/>
          <path id="Path_15790" data-name="Path 15790" d="M1206.51,1185.33a.272.272,0,1,1,.181.339.272.272,0,0,1-.181-.339" transform="translate(-967.948 -950.81)" fill="#474fea"/>
          <path id="Path_15791" data-name="Path 15791" d="M1206.51,1188.143a.272.272,0,1,1,.181.339.272.272,0,0,1-.181-.339" transform="translate(-967.948 -953.067)" fill="#474fea"/>
          <path id="Path_15792" data-name="Path 15792" d="M1206.51,1190.956a.272.272,0,1,1,.181.339.272.272,0,0,1-.181-.339" transform="translate(-967.948 -955.323)" fill="#474fea"/>
          <path id="Path_15793" data-name="Path 15793" d="M1206.51,1193.769a.272.272,0,1,1,.181.339.272.272,0,0,1-.181-.339" transform="translate(-967.948 -957.58)" fill="#474fea"/>
          <path id="Path_15794" data-name="Path 15794" d="M1206.51,1196.581a.272.272,0,1,1,.181.339.272.272,0,0,1-.181-.339" transform="translate(-967.948 -959.836)" fill="#474fea"/>
          <path id="Path_15795" data-name="Path 15795" d="M1206.51,1199.394a.272.272,0,1,1,.181.339.272.272,0,0,1-.181-.339" transform="translate(-967.948 -962.093)" fill="#474fea"/>
          <path id="Path_15796" data-name="Path 15796" d="M1206.51,1202.207a.272.272,0,1,1,.181.339.272.272,0,0,1-.181-.339" transform="translate(-967.948 -964.35)" fill="#474fea"/>
          <path id="Path_15797" data-name="Path 15797" d="M1206.51,1205.02a.272.272,0,1,1,.181.339.272.272,0,0,1-.181-.339" transform="translate(-967.948 -966.607)" fill="#474fea"/>
          <path id="Path_15798" data-name="Path 15798" d="M1206.51,1207.832a.272.272,0,1,1,.181.339.272.272,0,0,1-.181-.339" transform="translate(-967.948 -968.863)" fill="#474fea"/>
          <path id="Path_15799" data-name="Path 15799" d="M1206.51,1210.646a.272.272,0,1,1,.181.339.272.272,0,0,1-.181-.339" transform="translate(-967.948 -971.12)" fill="#474fea"/>
          <path id="Path_15800" data-name="Path 15800" d="M1206.51,1213.458a.272.272,0,1,1,.181.34.272.272,0,0,1-.181-.34" transform="translate(-967.948 -973.376)" fill="#474fea"/>
          <path id="Path_15801" data-name="Path 15801" d="M1206.51,1216.271a.272.272,0,1,1,.181.339.272.272,0,0,1-.181-.339" transform="translate(-967.948 -975.633)" fill="#474fea"/>
          <path id="Path_15802" data-name="Path 15802" d="M1206.51,1219.083a.272.272,0,1,1,.181.339.272.272,0,0,1-.181-.339" transform="translate(-967.948 -977.89)" fill="#474fea"/>
          <path id="Path_15803" data-name="Path 15803" d="M1206.51,1221.9a.272.272,0,1,1,.181.339.272.272,0,0,1-.181-.339" transform="translate(-967.948 -980.147)" fill="#474fea"/>
          <path id="Path_15804" data-name="Path 15804" d="M1206.51,1224.709a.272.272,0,1,1,.181.339.272.272,0,0,1-.181-.339" transform="translate(-967.948 -982.403)" fill="#474fea"/>
          <path id="Path_15805" data-name="Path 15805" d="M1206.51,1227.522a.272.272,0,1,1,.181.339.272.272,0,0,1-.181-.339" transform="translate(-967.948 -984.66)" fill="#474fea"/>
          <path id="Path_15806" data-name="Path 15806" d="M1206.51,1230.334a.272.272,0,1,1,.181.339.272.272,0,0,1-.181-.339" transform="translate(-967.948 -986.916)" fill="#474fea"/>
          <path id="Path_15807" data-name="Path 15807" d="M1206.51,1233.148a.272.272,0,1,1,.181.339.272.272,0,0,1-.181-.339" transform="translate(-967.948 -989.173)" fill="#474fea"/>
          <path id="Path_15808" data-name="Path 15808" d="M1206.51,1235.96a.272.272,0,1,1,.181.339.272.272,0,0,1-.181-.339" transform="translate(-967.948 -991.429)" fill="#474fea"/>
          <path id="Path_15809" data-name="Path 15809" d="M1206.51,1238.772a.272.272,0,1,1,.181.339.272.272,0,0,1-.181-.339" transform="translate(-967.948 -993.685)" fill="#474fea"/>
          <path id="Path_15810" data-name="Path 15810" d="M1377.565,1241.586a.272.272,0,1,1,.181.339.271.271,0,0,1-.181-.339" transform="translate(-1105.182 -995.943)" fill="#474fea"/>
          <path id="Path_15811" data-name="Path 15811" d="M1377.565,1244.4a.272.272,0,1,1,.181.339.272.272,0,0,1-.181-.339" transform="translate(-1105.182 -998.199)" fill="#474fea"/>
          <path id="Path_15812" data-name="Path 15812" d="M1377.565,1247.211a.272.272,0,1,1,.181.339.272.272,0,0,1-.181-.339" transform="translate(-1105.182 -1000.455)" fill="#474fea"/>
          <path id="Path_15813" data-name="Path 15813" d="M1377.565,1250.024a.272.272,0,1,1,.181.339.271.271,0,0,1-.181-.339" transform="translate(-1105.182 -1002.713)" fill="#474fea"/>
          <path id="Path_15814" data-name="Path 15814" d="M1377.565,1252.837a.272.272,0,1,1,.181.339.271.271,0,0,1-.181-.339" transform="translate(-1105.182 -1004.969)" fill="#474fea"/>
          <path id="Path_15815" data-name="Path 15815" d="M1377.565,1255.649a.272.272,0,1,1,.181.339.272.272,0,0,1-.181-.339" transform="translate(-1105.182 -1007.226)" fill="#474fea"/>
          <path id="Path_15816" data-name="Path 15816" d="M1377.565,1258.462a.272.272,0,1,1,.181.339.272.272,0,0,1-.181-.339" transform="translate(-1105.182 -1009.482)" fill="#474fea"/>
          <path id="Path_15817" data-name="Path 15817" d="M1377.565,1261.276a.272.272,0,1,1,.181.339.272.272,0,0,1-.181-.339" transform="translate(-1105.182 -1011.739)" fill="#474fea"/>
          <path id="Path_15818" data-name="Path 15818" d="M1377.565,1264.088a.272.272,0,1,1,.181.339.271.271,0,0,1-.181-.339" transform="translate(-1105.182 -1013.996)" fill="#474fea"/>
          <path id="Path_15819" data-name="Path 15819" d="M1377.565,1266.9a.272.272,0,1,1,.181.339.271.271,0,0,1-.181-.339" transform="translate(-1105.182 -1016.253)" fill="#474fea"/>
          <path id="Path_15820" data-name="Path 15820" d="M1377.565,1269.714a.272.272,0,1,1,.181.339.272.272,0,0,1-.181-.339" transform="translate(-1105.182 -1018.51)" fill="#474fea"/>
          <path id="Path_15821" data-name="Path 15821" d="M1377.565,1272.526a.272.272,0,1,1,.181.339.271.271,0,0,1-.181-.339" transform="translate(-1105.182 -1020.766)" fill="#474fea"/>
          <path id="Path_15822" data-name="Path 15822" d="M1377.565,1275.339a.272.272,0,1,1,.181.34.271.271,0,0,1-.181-.34" transform="translate(-1105.182 -1023.022)" fill="#474fea"/>
          <path id="Path_15823" data-name="Path 15823" d="M1377.565,1278.152a.272.272,0,1,1,.181.339.271.271,0,0,1-.181-.339" transform="translate(-1105.182 -1025.279)" fill="#474fea"/>
          <path id="Path_15824" data-name="Path 15824" d="M1377.565,1280.965a.272.272,0,1,1,.181.339.271.271,0,0,1-.181-.339" transform="translate(-1105.182 -1027.536)" fill="#474fea"/>
          <path id="Path_15825" data-name="Path 15825" d="M1377.565,1283.777a.272.272,0,1,1,.181.339.271.271,0,0,1-.181-.339" transform="translate(-1105.182 -1029.792)" fill="#474fea"/>
          <path id="Path_15826" data-name="Path 15826" d="M1377.565,1286.591a.272.272,0,1,1,.181.339.271.271,0,0,1-.181-.339" transform="translate(-1105.182 -1032.049)" fill="#474fea"/>
          <path id="Path_15827" data-name="Path 15827" d="M1377.565,1289.4a.272.272,0,1,1,.181.338.272.272,0,0,1-.181-.338" transform="translate(-1105.182 -1034.305)" fill="#474fea"/>
          <path id="Path_15828" data-name="Path 15828" d="M1377.565,1292.216a.272.272,0,1,1,.181.339.271.271,0,0,1-.181-.339" transform="translate(-1105.182 -1036.563)" fill="#474fea"/>
          <path id="Path_15829" data-name="Path 15829" d="M1377.565,1295.028a.272.272,0,1,1,.181.339.272.272,0,0,1-.181-.339" transform="translate(-1105.182 -1038.818)" fill="#474fea"/>
          <path id="Path_15830" data-name="Path 15830" d="M1377.565,1297.842a.272.272,0,1,1,.181.339.271.271,0,0,1-.181-.339" transform="translate(-1105.182 -1041.076)" fill="#474fea"/>
          <path id="Path_15831" data-name="Path 15831" d="M1377.565,1300.654a.272.272,0,1,1,.181.339.272.272,0,0,1-.181-.339" transform="translate(-1105.182 -1043.332)" fill="#474fea"/>
          <path id="Path_15832" data-name="Path 15832" d="M1377.565,1303.467a.272.272,0,1,1,.181.339.271.271,0,0,1-.181-.339" transform="translate(-1105.182 -1045.589)" fill="#474fea"/>
          <path id="Path_15833" data-name="Path 15833" d="M1377.565,1306.28a.272.272,0,1,1,.181.339.271.271,0,0,1-.181-.339" transform="translate(-1105.182 -1047.845)" fill="#474fea"/>
          <path id="Path_15834" data-name="Path 15834" d="M1377.565,1174.079a.272.272,0,1,1,.181.339.271.271,0,0,1-.181-.339" transform="translate(-1105.182 -941.783)" fill="#474fea"/>
          <path id="Path_15835" data-name="Path 15835" d="M1377.565,1176.892a.272.272,0,1,1,.181.339.272.272,0,0,1-.181-.339" transform="translate(-1105.182 -944.04)" fill="#474fea"/>
          <path id="Path_15836" data-name="Path 15836" d="M1377.565,1179.7a.272.272,0,1,1,.181.339.272.272,0,0,1-.181-.339" transform="translate(-1105.182 -946.296)" fill="#474fea"/>
          <path id="Path_15837" data-name="Path 15837" d="M1377.565,1182.518a.272.272,0,1,1,.181.339.271.271,0,0,1-.181-.339" transform="translate(-1105.182 -948.554)" fill="#474fea"/>
          <path id="Path_15838" data-name="Path 15838" d="M1377.565,1185.33a.272.272,0,1,1,.181.339.271.271,0,0,1-.181-.339" transform="translate(-1105.182 -950.81)" fill="#474fea"/>
          <path id="Path_15839" data-name="Path 15839" d="M1377.565,1188.143a.272.272,0,1,1,.181.339.271.271,0,0,1-.181-.339" transform="translate(-1105.182 -953.067)" fill="#474fea"/>
          <path id="Path_15840" data-name="Path 15840" d="M1377.565,1190.956a.272.272,0,1,1,.181.339.271.271,0,0,1-.181-.339" transform="translate(-1105.182 -955.323)" fill="#474fea"/>
          <path id="Path_15841" data-name="Path 15841" d="M1377.565,1193.769a.272.272,0,1,1,.181.339.272.272,0,0,1-.181-.339" transform="translate(-1105.182 -957.58)" fill="#474fea"/>
          <path id="Path_15842" data-name="Path 15842" d="M1377.565,1196.581a.272.272,0,1,1,.181.339.271.271,0,0,1-.181-.339" transform="translate(-1105.182 -959.836)" fill="#474fea"/>
          <path id="Path_15843" data-name="Path 15843" d="M1377.565,1199.394a.272.272,0,1,1,.181.339.272.272,0,0,1-.181-.339" transform="translate(-1105.182 -962.093)" fill="#474fea"/>
          <path id="Path_15844" data-name="Path 15844" d="M1377.565,1202.207a.272.272,0,1,1,.181.339.272.272,0,0,1-.181-.339" transform="translate(-1105.182 -964.35)" fill="#474fea"/>
          <path id="Path_15845" data-name="Path 15845" d="M1377.565,1205.02a.272.272,0,1,1,.181.339.272.272,0,0,1-.181-.339" transform="translate(-1105.182 -966.607)" fill="#474fea"/>
          <path id="Path_15846" data-name="Path 15846" d="M1377.565,1207.832a.272.272,0,1,1,.181.339.272.272,0,0,1-.181-.339" transform="translate(-1105.182 -968.863)" fill="#474fea"/>
          <path id="Path_15847" data-name="Path 15847" d="M1377.565,1210.646a.272.272,0,1,1,.181.339.271.271,0,0,1-.181-.339" transform="translate(-1105.182 -971.12)" fill="#474fea"/>
          <path id="Path_15848" data-name="Path 15848" d="M1377.565,1213.458a.272.272,0,1,1,.181.34.272.272,0,0,1-.181-.34" transform="translate(-1105.182 -973.376)" fill="#474fea"/>
          <path id="Path_15849" data-name="Path 15849" d="M1377.565,1216.271a.272.272,0,1,1,.181.339.272.272,0,0,1-.181-.339" transform="translate(-1105.182 -975.633)" fill="#474fea"/>
          <path id="Path_15850" data-name="Path 15850" d="M1377.565,1219.083a.272.272,0,1,1,.181.339.272.272,0,0,1-.181-.339" transform="translate(-1105.182 -977.89)" fill="#474fea"/>
          <path id="Path_15851" data-name="Path 15851" d="M1377.565,1221.9a.272.272,0,1,1,.181.339.272.272,0,0,1-.181-.339" transform="translate(-1105.182 -980.147)" fill="#474fea"/>
          <path id="Path_15852" data-name="Path 15852" d="M1377.565,1224.709a.272.272,0,1,1,.181.339.272.272,0,0,1-.181-.339" transform="translate(-1105.182 -982.403)" fill="#474fea"/>
          <path id="Path_15853" data-name="Path 15853" d="M1377.565,1227.522a.272.272,0,1,1,.181.339.272.272,0,0,1-.181-.339" transform="translate(-1105.182 -984.66)" fill="#474fea"/>
          <path id="Path_15854" data-name="Path 15854" d="M1377.565,1230.334a.272.272,0,1,1,.181.339.272.272,0,0,1-.181-.339" transform="translate(-1105.182 -986.916)" fill="#474fea"/>
          <path id="Path_15855" data-name="Path 15855" d="M1377.565,1233.148a.272.272,0,1,1,.181.339.272.272,0,0,1-.181-.339" transform="translate(-1105.182 -989.173)" fill="#474fea"/>
          <path id="Path_15856" data-name="Path 15856" d="M1377.565,1235.96a.272.272,0,1,1,.181.339.272.272,0,0,1-.181-.339" transform="translate(-1105.182 -991.429)" fill="#474fea"/>
          <path id="Path_15857" data-name="Path 15857" d="M1377.565,1238.772a.272.272,0,1,1,.181.339.272.272,0,0,1-.181-.339" transform="translate(-1105.182 -993.685)" fill="#474fea"/>
          <rect id="Rectangle_2156" data-name="Rectangle 2156" width="40.942" height="2.186" transform="translate(234.212 234.424)" fill="#fff"/>
          <rect id="Rectangle_2157" data-name="Rectangle 2157" width="40.942" height="2.186" transform="translate(234.212 237.892)" fill="#fff"/>
          <rect id="Rectangle_2158" data-name="Rectangle 2158" width="40.942" height="2.186" transform="translate(234.212 241.36)" fill="#fff"/>
          <rect id="Rectangle_2159" data-name="Rectangle 2159" width="40.942" height="2.186" transform="translate(234.212 244.828)" fill="#fff"/>
          <rect id="Rectangle_2160" data-name="Rectangle 2160" width="40.942" height="2.186" transform="translate(234.212 248.296)" fill="#fff"/>
          <rect id="Rectangle_2161" data-name="Rectangle 2161" width="40.942" height="2.186" transform="translate(234.212 251.764)" fill="#fff"/>
          <rect id="Rectangle_2162" data-name="Rectangle 2162" width="40.942" height="2.186" transform="translate(234.212 255.233)" fill="#fff"/>
          <rect id="Rectangle_2163" data-name="Rectangle 2163" width="45.056" height="3.05" transform="translate(232.487 253.027)" fill="#0b0755"/>
          <path id="Path_15858" data-name="Path 15858" d="M1168.8,1244.887h47.839v-85.073H1168.8Zm45.057-2.782h-42.274V1162.6h42.274Z" transform="translate(-937.702 -930.494)" fill="#0b0755"/>
          <path id="Path_15859" data-name="Path 15859" d="M1270.862,1358.471a4.35,4.35,0,0,0-1.941-2.158c-.766-.428-1.746-.571-2.326-1.289-.81-1-.313-2.505-.633-3.757a3.69,3.69,0,0,0-2.134-2.335c-.915-.392-2.051-.445-2.737-1.25-.747-.875-.5-2.085-.633-3.135a5.2,5.2,0,0,0-2.472-3.631,6.686,6.686,0,0,0-1.237-.6c-2.881-1.059-6.637-.329-7.65,2.967a12.644,12.644,0,0,1-.838,3.039c-.6.979-1.808,1.558-2.14,2.656-.42,1.38.765,2.862.373,4.251a4.437,4.437,0,0,1-1.852,2.065,3.043,3.043,0,0,0-1.492,2.273c.031,1.075,1.1,2,1.24,2.984a1.343,1.343,0,0,1-.059.655c-.1.275-.285.512-.363.792a1.346,1.346,0,0,0,.891,1.506,2.577,2.577,0,0,0,1.869-.148c.591-.248,1.128-.607,1.711-.873.151-.069.306-.132.462-.187.033-.012.067-.024.1-.034a26.755,26.755,0,0,1,3.622-.739,16.611,16.611,0,0,1,4.3-.662c1.676.117,3.186.994,4.756,1.593a14.9,14.9,0,0,0,5.014.975,6.011,6.011,0,0,0,2.218-.3,3.3,3.3,0,0,0,.392-.173,3.645,3.645,0,0,0,1.558-4.494" transform="translate(-997.354 -1074.948)" fill="#060633"/>
          <path id="Path_15860" data-name="Path 15860" d="M1249.875,1528.851c.341-.8.691-1.6,1.047-2.406,1.7-3.822,3.5-7.465,4.717-8.57a1.555,1.555,0,0,1,.394-.279c2.572-1.181,10.01,1.043,10.01,1.043s.074.122.2.346a63.5,63.5,0,0,1,3.72,7.459l.136.342c.22.569.47,1.555.631,2.089Z" transform="translate(-1002.749 -1217.258)" fill="#060633"/>
          <path id="Path_15861" data-name="Path 15861" d="M1252.6,1416.172a11.815,11.815,0,0,1,9.7,5.526,39.167,39.167,0,0,1,3.649,8.028l-6.047,2.189-.626-2.4s-1.563,7.611-3.128,8.237-2.607-.521-3.545-.626-3.962.834-6.464.1-2.607-2.606-2.92-4.8-.73-4.17-.73-4.17l-.939.73-4.834-4.834s5.668-5.8,8.8-6.739a40.284,40.284,0,0,1,7.09-1.251" transform="translate(-992.19 -1136.165)" fill="#f3f7ff"/>
          <path id="Path_15862" data-name="Path 15862" d="M1352.772,1486.965a34.427,34.427,0,0,1-.523,7.258c-.71,4.39-5.318,7.258-5.318,7.258l-.467-1.739s3.053-3.928,2.184-11.283Z" transform="translate(-1080.241 -1192.96)" fill="#ffa59d"/>
          <path id="Path_15863" data-name="Path 15863" d="M1272.423,1379.42s-.469-.517-.734-.237c-.676.713.274,1.378.811,1.471Z" transform="translate(-1020.062 -1106.422)" fill="#ffa59d"/>
          <path id="Path_15864" data-name="Path 15864" d="M1277.792,1341.647a4.74,4.74,0,0,1,4.967,5.984,20.456,20.456,0,0,1-1.252,4.185,4.718,4.718,0,0,0-.311,3.441l.348,1.156c-2.52,1.777-3.92.6-3.92.6l-.414-2.727c-3,.1-3.437-5.407-3.681-7.016h0c-.011-.06-.023-.12-.032-.181a4.741,4.741,0,0,1,4.291-5.436" transform="translate(-1021.66 -1076.361)" fill="#ffa59d"/>
          <path id="Path_15865" data-name="Path 15865" d="M1278.507,1345.177a20.232,20.232,0,0,1,1.858,1.648,5.118,5.118,0,0,1,1.535,2.1,6.113,6.113,0,0,0,1.308-2.555,4.441,4.441,0,0,0,.244-1.316,4.96,4.96,0,0,0-.5-1.824,5.177,5.177,0,0,0-1.278-2.068,3.937,3.937,0,0,0-1.45-.709,6.668,6.668,0,0,0-3.744-.061,4.8,4.8,0,0,0-2.9,2.3,8.391,8.391,0,0,0-.426,4.8,4.793,4.793,0,0,1,.765-1.922,4.063,4.063,0,0,1,.8-1.085,19.959,19.959,0,0,0,1.794-1.382,5.613,5.613,0,0,0,1.987,2.087" transform="translate(-1021.315 -1075.172)" fill="#060633"/>
          <path id="Path_15866" data-name="Path 15866" d="M1313.9,1377.16a.7.7,0,0,1,.315-.386,1.187,1.187,0,0,1,1.305-.076c.663.488-.263,2.19-1.523,1.605,0,0-.377-.277-.1-1.143" transform="translate(-1054.033 -1104.359)" fill="#ffa59d"/>
          <path id="Path_15867" data-name="Path 15867" d="M1280.257,1378.258a.414.414,0,1,1,.5.3.414.414,0,0,1-.5-.3" transform="translate(-1027.114 -1105.334)" fill="#060633"/>
          <path id="Path_15868" data-name="Path 15868" d="M1300.118,1377.481a.414.414,0,1,1,.5.3.413.413,0,0,1-.5-.3" transform="translate(-1043.048 -1104.712)" fill="#060633"/>
          <path id="Path_15869" data-name="Path 15869" d="M1287.092,1393.528s.325-.29.541-.252a.615.615,0,0,1,.356.281.477.477,0,0,1,.357-.294,5.946,5.946,0,0,1,.992.1s-.559,1.153-1.342,1.036a1.038,1.038,0,0,1-.89-.834Z" transform="translate(-1032.608 -1117.782)" fill="#ea6868"/>
          <path id="Path_15870" data-name="Path 15870" d="M1287.457,1393.532a2.447,2.447,0,0,0,1.7-.637.058.058,0,0,0-.079-.085c-.052.049-1.286,1.184-2.379.258a.058.058,0,0,0-.075.089,1.547,1.547,0,0,0,.837.376" transform="translate(-1032.213 -1117.41)" fill="#240d39"/>
          <path id="Path_15871" data-name="Path 15871" d="M1300.612,1373.476a.174.174,0,0,0,.117-.088.172.172,0,0,0-.07-.233,2.071,2.071,0,0,0-1.374-.136.172.172,0,0,0-.125.209.176.176,0,0,0,.209.125,1.719,1.719,0,0,1,1.128.106.174.174,0,0,0,.116.017" transform="translate(-1042.286 -1101.496)" fill="#060633"/>
          <path id="Path_15872" data-name="Path 15872" d="M1278.89,1373.594a.172.172,0,0,0-.012-.323,2.046,2.046,0,0,0-1.376.113.172.172,0,0,0,.143.313,1.712,1.712,0,0,1,1.128-.1.169.169,0,0,0,.117,0" transform="translate(-1024.834 -1101.69)" fill="#060633"/>
          <path id="Path_15873" data-name="Path 15873" d="M1288.968,1379.945a.737.737,0,0,1-.757-.546.146.146,0,0,1,.017-.106,2.142,2.142,0,0,0,.19-1.371.145.145,0,0,1,.283-.062,2.435,2.435,0,0,1-.19,1.524c.045.109.2.344.656.251a.145.145,0,1,1,.057.284,1.278,1.278,0,0,1-.256.027" transform="translate(-1033.502 -1105.336)" fill="#ea6868"/>
          <path id="Path_15874" data-name="Path 15874" d="M1265.7,1456.925a.037.037,0,0,1-.036-.033c-.19-2.072,1.414-5,1.43-5.026a.036.036,0,1,1,.063.035c-.016.029-1.608,2.934-1.421,4.983a.036.036,0,0,1-.032.04h0" transform="translate(-1015.401 -1164.787)" fill="#272035"/>
          <path id="Path_15875" data-name="Path 15875" d="M1310.679,1480.016a6.5,6.5,0,0,1-3.281-1.033.036.036,0,1,1,.041-.059c.028.019,2.86,1.949,5.313.451a.036.036,0,1,1,.037.061,3.988,3.988,0,0,1-2.111.58" transform="translate(-1048.886 -1186.503)" fill="#272035"/>
          <path id="Path_15876" data-name="Path 15876" d="M1153.762,1426.951a23.031,23.031,0,0,0-.9-2.971c-.368-.758-.162-1.765-.647-1.712s-.411,1.671-.411,1.671-1.368-1.031-1.74-1.412-1.211-.893-1.511-.642,1.616,1.955,1.616,1.955-1.755-1.277-2.081-1.1,1.667,2.125,1.667,2.125a14.212,14.212,0,0,0-2.046-1.444c-.24.01-.237.319.276.988a8.025,8.025,0,0,0,1.212,1.221,18.25,18.25,0,0,0-1.545-.982c-.2-.054-.516.016.351.927a13,13,0,0,0,4.5,2.963Z" transform="translate(-920.561 -1140.695)" fill="#ffa59d"/>
          <path id="Path_15877" data-name="Path 15877" d="M1186.83,1452.17s-4.573,5.478-8.3,4.878-8.792-9.666-8.792-9.666l1.8-1.1s5.616,6.144,7.578,5.751,4.733-2.842,4.733-2.842Z" transform="translate(-938.456 -1160.322)" fill="#ffa59d"/>
          <path id="Path_15878" data-name="Path 15878" d="M1320.312,1547.774a13.508,13.508,0,0,1-3.075,1.064h0c-.252.056-.481.1-.675.12-1.109.138-.993-.126-.848-.24a15.253,15.253,0,0,1,1.5-.581,7.155,7.155,0,0,1-1.5.215c-.751.014-.974-.147-.853-.325a12.34,12.34,0,0,1,2.109-.7c-.124.02-2.444.385-2.4.069s1.71-.848,1.877-.9c-.191.039-2.219.451-2.24.119s.789-.677,1.258-.742,1.93-.5,1.93-.5-1.2-.8-.979-1.178.831.3,1.567.44a12.226,12.226,0,0,1,1.719.573c.134.052.26.1.373.147.3.122.508.21.508.21l.154.57.3,1.107.017.062a4.564,4.564,0,0,1-.746.467" transform="translate(-1054.367 -1238.787)" fill="#fb9391"/>
          <path id="Path_15879" data-name="Path 15879" d="M572.368,516.47l8.956,5.132H781.452V516.47Z" transform="translate(-459.199 -414.352)" fill="#9ab8cc"/>
          <path id="Path_15880" data-name="Path 15880" d="M822.114,1244.887H774.276v-85.073h47.838Zm-45.055-2.783h42.273V1162.6H777.059Z" transform="translate(-621.186 -930.494)" fill="#0b0755"/>
          <rect id="Rectangle_2164" data-name="Rectangle 2164" width="66.18" height="7.795" transform="translate(144.185 314.156)" fill="#9ab8cc"/>
          <path id="Path_15881" data-name="Path 15881" d="M788.349,1450.833h37.12c2.178-4.293-.461-8.848-4.158-8.641-1.314.074-2.228-.682-2.993-1.954a19.646,19.646,0,0,1-1.425-3.166c-.073-.2-.149-.4-.222-.6-.084-.227-.167-.457-.253-.692l-.125-.343q-.236-.642-.485-1.31c-.032-.082-.062-.163-.1-.247-2.069-5.424-5.271-11.8-14.236-13.475a24.649,24.649,0,0,0-3.248-.38c-.2-.012-.4-.02-.61-.026h0c-.044,0-.088,0-.133,0q-.417-.012-.847-.012a12.039,12.039,0,0,0-8.287,2.881v27.969Z" transform="translate(-632.476 -1139.222)" fill="#dea98e"/>
          <path id="Path_15882" data-name="Path 15882" d="M831.146,1368.342c.164,0,3.481-.963,3.121-5.084s-3.987-4.534-5.842-4.286-5.069,2.947-3.792,6.111a10.5,10.5,0,0,0,2.885,4.358Z" transform="translate(-661.352 -1090.229)" fill="#0b0755"/>
          <path id="Path_15883" data-name="Path 15883" d="M869.932,1395.115s.42-.433.641-.183c.563.637-.278,1.183-.746,1.247Z" transform="translate(-697.844 -1119.062)" fill="#ffa59d"/>
          <path id="Path_15884" data-name="Path 15884" d="M836.45,1361.776a4.1,4.1,0,0,0-4.472,5.021,17.713,17.713,0,0,0,.956,3.653,4.077,4.077,0,0,1,.165,2.983l-.336.988c2.124,1.612,3.333.827,3.333.827l.476-2.538c2.592.173,3.133-4.568,3.392-5.952h0c.011-.051.023-.1.033-.155a4.1,4.1,0,0,0-3.544-4.827" transform="translate(-667.389 -1092.501)" fill="#ffa59d"/>
          <path id="Path_15885" data-name="Path 15885" d="M832.367,1364.749a17.551,17.551,0,0,0-1.655,1.368,4.431,4.431,0,0,0-1.39,1.766,5.282,5.282,0,0,1-1.053-2.247,3.855,3.855,0,0,1-.17-1.145,4.278,4.278,0,0,1,.485-1.561,4.476,4.476,0,0,1,1.167-1.749,3.4,3.4,0,0,1,1.275-.568,5.77,5.77,0,0,1,3.236.06,4.154,4.154,0,0,1,2.433,2.071,7.253,7.253,0,0,1,.224,4.156,4.146,4.146,0,0,0-.6-1.684,3.5,3.5,0,0,0-.66-.962,17.134,17.134,0,0,1-1.508-1.248,4.852,4.852,0,0,1-1.78,1.744" transform="translate(-664.365 -1091.429)" fill="#0b0755"/>
          <path id="Path_15886" data-name="Path 15886" d="M864.931,1393.875a.358.358,0,1,0-.443.244.357.357,0,0,0,.443-.244" transform="translate(-693.353 -1117.91)" fill="#060633"/>
          <path id="Path_15887" data-name="Path 15887" d="M846.96,1392.606a.358.358,0,1,0-.443.244.357.357,0,0,0,.443-.244" transform="translate(-678.937 -1116.891)" fill="#060633"/>
          <path id="Path_15888" data-name="Path 15888" d="M853.064,1405.064s-.434-.361-.622-.335a.533.533,0,0,0-.316.232.413.413,0,0,0-.3-.265,3.978,3.978,0,0,0-1.011.287s.57,1.03,1.254,1,.994-.915.994-.915" transform="translate(-682.592 -1126.956)" fill="#ea6868"/>
          <path id="Path_15889" data-name="Path 15889" d="M844.323,1389.739a.148.148,0,0,1-.045-.275,1.777,1.777,0,0,1,1.185-.14.149.149,0,0,1,.111.179.153.153,0,0,1-.178.111,1.49,1.49,0,0,0-.973.109.147.147,0,0,1-.1.016" transform="translate(-677.285 -1114.589)" fill="#0b0755"/>
          <path id="Path_15890" data-name="Path 15890" d="M862.988,1390.951a.148.148,0,0,1,.033-.277,1.765,1.765,0,0,1,1.177.2.149.149,0,0,1-.145.26,1.489,1.489,0,0,0-.965-.167.145.145,0,0,1-.1-.012" transform="translate(-692.292 -1115.684)" fill="#0b0755"/>
          <path id="Path_15891" data-name="Path 15891" d="M855.258,1395.079a.637.637,0,0,0,.671-.449.125.125,0,0,0-.011-.092,1.849,1.849,0,0,1-.122-1.19.125.125,0,1,0-.242-.063,2.1,2.1,0,0,0,.118,1.322c-.043.093-.183.291-.574.2a.125.125,0,1,0-.058.244,1.125,1.125,0,0,0,.22.031" transform="translate(-685.902 -1117.728)" fill="#ea6868"/>
          <path id="Path_15892" data-name="Path 15892" d="M850.817,1406.156a21.206,21.206,0,0,0,2.248.082s-.49.634-1.008.569a3.363,3.363,0,0,1-1.24-.651" transform="translate(-682.593 -1128.129)" fill="#fff"/>
          <path id="Path_15893" data-name="Path 15893" d="M842.924,1387.786a1.242,1.242,0,0,0-1.226,1.051.544.544,0,0,0-.012.113.515.515,0,0,0,0,.078,1.242,1.242,0,0,0,2.469.193.971.971,0,0,0,.014-.135.566.566,0,0,0,0-.058,1.242,1.242,0,0,0-1.242-1.242m0,2.369a1.128,1.128,0,1,1,1.129-1.127,1.128,1.128,0,0,1-1.129,1.127" transform="translate(-675.264 -1113.391)" fill="#060633"/>
          <path id="Path_15894" data-name="Path 15894" d="M862.153,1389.355a1.241,1.241,0,0,0-2.393.384.444.444,0,0,0,0,.073.636.636,0,0,0,0,.064,1.241,1.241,0,0,0,1.753,1.067,1.192,1.192,0,0,0,.272-.169.663.663,0,0,0,.081-.074v0l0,0a1.213,1.213,0,0,0,.37-.811v0a.291.291,0,0,0,0-.06v-.012a1.243,1.243,0,0,0-.088-.457m-.03.515a1.091,1.091,0,0,1-.086.379s0,0,0,.006,0,.006,0,.01a.9.9,0,0,1-.1.184,1,1,0,0,1-.127.155.07.07,0,0,1-.014.014l0,0a1.126,1.126,0,1,1,.324-1.018v0a1.115,1.115,0,0,1,.018.2.5.5,0,0,1,0,.056Z" transform="translate(-689.765 -1114.02)" fill="#060633"/>
          <rect id="Rectangle_2165" data-name="Rectangle 2165" width="0.114" height="1.483" transform="translate(164.996 275.398) rotate(-83.508)" fill="#060633"/>
          <path id="Path_15895" data-name="Path 15895" d="M854.972,1394a.972.972,0,0,0-1.148-.027l-.056-.1a1.1,1.1,0,0,1,1.281.042Z" transform="translate(-684.961 -1118.128)" fill="#060633"/>
          <path id="Path_15896" data-name="Path 15896" d="M831.119,1391.814a.609.609,0,0,0-.26-.343,1.029,1.029,0,0,0-1.125-.105c-.588.4.162,1.9,1.268,1.434,0,0,.334-.228.118-.985" transform="translate(-665.513 -1116.159)" fill="#ffa59d"/>
          <path id="Path_15897" data-name="Path 15897" d="M850.974,1525.769h2.719a23.475,23.475,0,0,0-.447-4c-1.4-5.567-5.77-5.921-5.77-5.921l-3.653-.674-3.866-.712-2.4-.443-.932-.171h0l-1.127-.209-1.369-.252-.4.062h0l-.173.026h0l-.6.091-.111.018h0l-.139.02-.042.008-.091.014-.646.1h0l-3.168.481-1.035.157-.2.03-.115.018-7.256,1.1a6.671,6.671,0,0,0,.445,1.6,9.609,9.609,0,0,0,2.82,3.828c2.968,2.472,12.859,2.144,12.859,2.144l.27,2.682h7.513a15.07,15.07,0,0,0,.165-4.688c-.01-.038-.016-.053-.016-.053l.044.036a9.808,9.808,0,0,1,2.677,4.706Z" transform="translate(-657.981 -1214.158)" fill="#476f91"/>
          <path id="Path_15898" data-name="Path 15898" d="M796.857,1421.989s.275-2.116.714-2.006a42.577,42.577,0,0,0,4.726.74c.385-.08,0,1.788,0,1.788s3.187.275,4.286,2.143.9,10.393,1.83,11,6.743.983,6.743.983l-7.6,4.274-7.2-.337s-5.206,3.12-9.273.691-3.352-15.179.495-17.432,5.276-1.841,5.276-1.841" transform="translate(-632.476 -1139.219)" fill="#171778"/>
          <path id="Path_15899" data-name="Path 15899" d="M876.073,1473.11l-.013,0c-2.759-.662-2.9-6.193-2.9-6.429a.059.059,0,0,1,.014-.038,4,4,0,0,0,.921-2.542c-.107-1.335-1.832-2.858-1.849-2.873a.057.057,0,1,1,.075-.087c.072.063,1.777,1.569,1.888,2.951a4.014,4.014,0,0,1-.933,2.608c.012.382.223,5.677,2.813,6.3a.057.057,0,0,1-.013.113" transform="translate(-699.767 -1172.23)" fill="#4851ec"/>
          <path id="Path_15900" data-name="Path 15900" d="M905.16,1529.521a.058.058,0,0,1-.056-.046c-.009-.049-1.011-4.883-8.924-5.456a.057.057,0,0,1-.053-.061.054.054,0,0,1,.061-.053c8.006.579,9.019,5.5,9.028,5.548a.058.058,0,0,1-.046.067h-.01" transform="translate(-718.944 -1222.596)" fill="#0b0755"/>
          <path id="Path_15901" data-name="Path 15901" d="M869.172,1488.925s-1.248.989-6.06.41-7.787-2.606-8.876-4.092a2.942,2.942,0,0,1,.551-4.192c1.234-.871,3.52-.038,3.52-.038a7.564,7.564,0,0,1,1.413-.524,8.3,8.3,0,0,1,1.251-.232,9.429,9.429,0,0,1,.988-.055,10.438,10.438,0,0,1,1.606.12c.355.054.706.125,1.048.212a10.972,10.972,0,0,1,1.671.564,9.378,9.378,0,0,1,1.375.726,5.105,5.105,0,0,1,1.685,1.63c.015.027.031.054.045.08,1.227,2.319-.218,5.39-.218,5.39" transform="translate(-684.83 -1187.535)" fill="#f4f6fb"/>
          <path id="Path_15902" data-name="Path 15902" d="M878.58,1504.83a7.015,7.015,0,0,1-3.617-2.734.884.884,0,1,1,1.438-1.028c1.018,1.424,3.743,2.161,7.111,1.921,1.957-.139,2.523-2.321,2.528-2.343.116-.468-.809-1.737-.341-1.63.006,0,.637-.839.643-.838.474.118,1.355,2.114,1.414,2.9.1,1.317-.358,3.667-4.135,4.041a10.291,10.291,0,0,1-5.04-.285" transform="translate(-701.832 -1201.957)" fill="#f4f6fb"/>
          <path id="Path_15903" data-name="Path 15903" d="M861.9,1475.878a5.166,5.166,0,0,1,.825-2.49c.673-.681,1.318,1.681,1.334,2.175s-2.159.315-2.159.315" transform="translate(-691.487 -1181.971)" fill="#f4f6fb"/>
          <path id="Path_15904" data-name="Path 15904" d="M848.946,1489.316s-1.463-1.072-1.694-2,2.122-.249,2.551-.005-.857,2.006-.857,2.006" transform="translate(-679.72 -1192.86)" fill="#f4f6fb"/>
          <path id="Path_15905" data-name="Path 15905" d="M869.225,1490.272a.836.836,0,0,1-.1-.028l.059-.158a.664.664,0,0,0,.511-.023.581.581,0,0,0,.236-.46l.167.019a.74.74,0,0,1-.316.586.767.767,0,0,1-.558.065" transform="translate(-697.282 -1195.076)" fill="#0c0c4c"/>
          <path id="Path_15906" data-name="Path 15906" d="M861.761,1496.229a.724.724,0,0,1-.1-.029l.06-.157a.669.669,0,0,0,.511-.023.585.585,0,0,0,.236-.461l.167.02a.738.738,0,0,1-.316.585.765.765,0,0,1-.557.065" transform="translate(-691.293 -1199.855)" fill="#0c0c4c"/>
          <path id="Path_15907" data-name="Path 15907" d="M869.726,1497.031s.281-.3.355-.248,0,.374,0,.374-.517.117-.357-.126" transform="translate(-697.739 -1200.831)" fill="#f87267"/>
          <path id="Path_15908" data-name="Path 15908" d="M871.82,1495.682a.683.683,0,0,1-.314-.158l.06-.059a.712.712,0,0,0,.834.051.518.518,0,0,0,.329-.48.742.742,0,0,0-.062-.3l.076-.037a.816.816,0,0,1,.07.333.6.6,0,0,1-.376.555.921.921,0,0,1-.617.09" transform="translate(-699.191 -1199.169)" fill="#0c0c4c"/>
          <path id="Path_15909" data-name="Path 15909" d="M866.84,1500.065l-.021-.006a.816.816,0,0,1-.3-.155l.055-.063a.563.563,0,0,0,.818-.053.712.712,0,0,0,.171-.818l.073-.042a.807.807,0,0,1-.18.916.6.6,0,0,1-.613.222" transform="translate(-695.188 -1202.557)" fill="#0c0c4c"/>
          <path id="Path_15910" data-name="Path 15910" d="M865.316,1478.4c0-.037.192-1.05.484-1.069s.76,1.108.689,1.222-1.187.176-1.173-.152" transform="translate(-694.225 -1185.228)" fill="#f87267"/>
          <path id="Path_15911" data-name="Path 15911" d="M851.38,1488.837c-.034-.015-1.028-.287-1.174-.033s.663,1.169.8,1.155.679-.99.378-1.122" transform="translate(-682.089 -1194.349)" fill="#f87267"/>
          <path id="Path_15912" data-name="Path 15912" d="M876.13,1511.928a2.047,2.047,0,0,1-.3-1.318.92.92,0,0,1,.453-.588c.944-.554,1.482.01,2.105.664a6.642,6.642,0,0,0,.878.815,9.97,9.97,0,0,0,5.961.676,1.631,1.631,0,0,0,1.163-.774l.039.017a1.668,1.668,0,0,1-1.19.8,9.318,9.318,0,0,1-3.352.085,4.312,4.312,0,0,1-3.528-1.588c-.636-.668-1.139-1.195-2.053-.657a.881.881,0,0,0-.433.562,2.006,2.006,0,0,0,.3,1.286Z" transform="translate(-702.636 -1211.278)" fill="#0c0c4c"/>
          <path id="Path_15913" data-name="Path 15913" d="M878.43,1487.643l-.022-.03a1.489,1.489,0,0,0,.477-1.289,3.036,3.036,0,0,0-1.54-2.072l.018-.033a3.077,3.077,0,0,1,1.559,2.1,1.524,1.524,0,0,1-.492,1.321" transform="translate(-703.876 -1190.758)" fill="#0c0c4c"/>
          <path id="Path_15914" data-name="Path 15914" d="M832.471,1480.666a4.554,4.554,0,0,1-2.469-.817.057.057,0,0,1,.062-.1c3,1.928,4.8-.24,4.815-.263a.057.057,0,1,1,.089.072,3.4,3.4,0,0,1-2.5,1.1" transform="translate(-665.873 -1186.946)" fill="#4851ec"/>
          <path id="Path_15915" data-name="Path 15915" d="M825.634,1480.441a.057.057,0,0,1-.023-.11l1.584-.692-.222-2.76c-.484-.094-4.935-.961-7.061-1.21a.057.057,0,0,1-.051-.056c0-.213-.079-5.232.252-5.977a.057.057,0,0,1,.1.046c-.3.684-.251,5.342-.243,5.879,2.264.27,7.014,1.2,7.063,1.214a.057.057,0,0,1,.046.052l.229,2.844a.057.057,0,0,1-.034.057l-1.622.709a.06.06,0,0,1-.023,0" transform="translate(-657.75 -1179.031)" fill="#0b0755"/>
          <path id="Path_15916" data-name="Path 15916" d="M859.011,1508.133l.292.009c.9.028,3.6.121,3.914.231.377.133-.757,2.487-.757,2.487s-3.243.178-4.286-.518.838-2.209.838-2.209" transform="translate(-688.243 -1209.943)" fill="#ffa59d"/>
          <path id="Path_15917" data-name="Path 15917" d="M878.969,1520.169s1.809.818,1.969.639-1.417-1.092-1.417-1.092Z" transform="translate(-705.179 -1219.236)" fill="#ffa59d"/>
          <path id="Path_15918" data-name="Path 15918" d="M881.461,1516.657s2.678,1.1,2.881.732-2.761-1.327-2.761-1.327Z" transform="translate(-707.178 -1216.305)" fill="#ffa59d"/>
          <path id="Path_15919" data-name="Path 15919" d="M883.263,1513.34s2.764.864,2.934.477-2.867-1.079-2.867-1.079Z" transform="translate(-708.624 -1213.638)" fill="#ffa59d"/>
          <path id="Path_15920" data-name="Path 15920" d="M883.971,1509.819s2.582.843,2.744.456-2.676-1.059-2.676-1.059Z" transform="translate(-709.192 -1210.812)" fill="#ffa59d"/>
          <path id="Path_15921" data-name="Path 15921" d="M858.543,1507.489l-2.038-.255.188,2.3,1.048.235Z" transform="translate(-687.157 -1209.221)" fill="#ffa59d"/>
          <path id="Path_15922" data-name="Path 15922" d="M825.847,1351.49a2.515,2.515,0,1,0-2.515,2.515,2.515,2.515,0,0,0,2.515-2.515" transform="translate(-658.524 -1082.254)" fill="#0b0755"/>
          <path id="Path_15923" data-name="Path 15923" d="M805.14,1174.065s-6.241,28.238-16.791,37.668v-37.847Z" transform="translate(-632.476 -941.784)" fill="#476f91"/>
          <path id="Path_15924" data-name="Path 15924" d="M931.344,1174.065s-.09,24.379,14,36.533v-36.713Z" transform="translate(-747.198 -941.784)" fill="#476f91"/>
          <rect id="Rectangle_2166" data-name="Rectangle 2166" width="45.056" height="3.05" transform="translate(154.481 253.027)" fill="#0b0755"/>
          <path id="Path_15925" data-name="Path 15925" d="M921.354,1333.946a6.522,6.522,0,1,0-6.522,6.522,6.522,6.522,0,0,0,6.522-6.522" transform="translate(-728.718 -1064.964)" fill="#dea98e"/>
          <path id="Path_15926" data-name="Path 15926" d="M924.792,1339.116a5.188,5.188,0,1,0-5.188,5.189,5.188,5.188,0,0,0,5.188-5.189" transform="translate(-733.617 -1070.182)" fill="#fff"/>
          <path id="Path_15927" data-name="Path 15927" d="M930.413,1342.376l0-3.173.188.231a.117.117,0,0,0,.089.042.115.115,0,0,0,.089-.188l-.392-.481a.111.111,0,0,0-.05-.033s0,0-.005,0h-.007a.115.115,0,0,0-.063,0l-.007,0a.11.11,0,0,0-.03.016.108.108,0,0,0-.016.019l-.006.005-.355.514a.115.115,0,1,0,.189.131l.144-.209,0,3.126a.579.579,0,0,0-.457.477l-1.617,0,.167-.2a.115.115,0,0,0-.179-.146l-.32.392a.118.118,0,0,0-.011.021s0,0-.005.007,0,0,0,0a.113.113,0,0,0-.006.057s0,.007,0,.01a.118.118,0,0,0,.023.045s0,.005,0,.008l.342.355a.115.115,0,0,0,.166-.16l-.153-.158,1.6,0a.58.58,0,1,0,.679-.707" transform="translate(-744.316 -1074.063)" fill="#0b0755"/>
        </g>
      </g>
    </g>
  </g>
</svg>
