<svg xmlns="http://www.w3.org/2000/svg" xmlns:xlink="http://www.w3.org/1999/xlink" width="368.065" height="368.065" viewBox="0 0 368.065 368.065">
  <defs>
    <clipPath id="clip-path">
      <circle id="Ellipse_58" data-name="Ellipse 58" cx="130.131" cy="130.131" r="130.131" transform="translate(0 184.033) rotate(-45)" fill="none"/>
    </clipPath>
  </defs>
  <g id="Group_33575" data-name="Group 33575" transform="translate(0 0)">
    <g id="Group_33572" data-name="Group 33572" transform="translate(53.902 53.902)">
      <g id="Group_33576" data-name="Group 33576" transform="translate(0 0)">
        <path id="Path_16028" data-name="Path 16028" d="M260.261,130.128A130.131,130.131,0,1,1,130.131,0,130.131,130.131,0,0,1,260.261,130.128" transform="translate(0 0.003)" fill="#f7dfdf"/>
      </g>
    </g>
    <g id="Group_33574" data-name="Group 33574" transform="translate(0 0)">
      <g id="Group_33573" data-name="Group 33573" transform="translate(0 0)" clip-path="url(#clip-path)">
        <path id="Path_16029" data-name="Path 16029" d="M389.691,823.3c.736-4.694,2.738-16.77,2.738-16.77l72.215,1.635s5.056,28.644,5.056,37.6-.552,124.74-.552,124.74,2.1,25.226,2.57,31.7-1.413,66.69-1.413,66.69l-22.6.493s-8.772-77.415-9.439-85.55a100.838,100.838,0,0,0-1.935-13.512l-9.961-60.584c-1.316,21.507-3.24,51.212-4.141,56.619-1.441,8.649-.879,27.247-2.321,37.982s-5.506,55.842-6.9,66.236c-19.8,4.069-25.158-10.274-25.158-10.274s-.683-68.724.183-94.968c.132-4-.575-10.068-.685-21.115-.052-5.253-.944-99.987,2.342-120.921" transform="translate(-224.672 -526.362)" fill="#704f54"/>
        <path id="Path_16030" data-name="Path 16030" d="M338.932,737.062c-.609-.857,1.154-4.011,4.123-5.894s5.8-2.851,6.321-1.939c.247.432-1.552,2.943-4.521,4.827s-5.315,3.862-5.924,3.005" transform="translate(-189.859 -470.497)" fill="#252a4f"/>
        <path id="Path_16031" data-name="Path 16031" d="M330.744,697.922a57.188,57.188,0,0,0,3.926,8.446c5.157,6.4,8.383,6.933,11.6,11.72,2.173,3.237-2.364,14.7-2.364,14.7a4.434,4.434,0,0,1-3.63,1.3c-.666.222-2,.986-2.684.825-2.986-.7-6.214-5.067-7.512-7.847-.671-1.438-2.878-8.949-4.166-12.25-.966-2.475-5.94-9.151-5.94-9.151Z" transform="translate(-176.304 -448.223)" fill="#ffa59d"/>
        <path id="Path_16032" data-name="Path 16032" d="M325.382,714.816l-5.411-9.151,10.772-7.742s2.931,5.434,5.088,9.008c-8.3,1.314-10.448,7.885-10.448,7.885" transform="translate(-176.304 -448.223)" fill="#dea98e"/>
        <path id="Path_16033" data-name="Path 16033" d="M253.826,443.839c.719-3.811,24.845-38.022,28.74-41.918,7.309-7.308,11.667-8.5,11.667-8.5l.2,36.786L275.7,451.074c.845,1.627,1.71,3.484,2.575,5.613,2.459,6.05,5.183,20.358,8.054,27.424-9.876,2.014-11.458,7.815-11.458,7.815S262,472.544,258.023,464.5c-3.35-6.77-5.156-15.577-4.2-20.659" transform="translate(-128.531 -229.144)" fill="#476f91"/>
        <path id="Path_16034" data-name="Path 16034" d="M276.262,578.187q.291,0,.606-.024a.334.334,0,0,0,.307-.358.34.34,0,0,0-.358-.307c-1.492.115-2.393-.238-2.511-.647-.091-.317.295-.756.984-1.118a9.383,9.383,0,0,1,2.387-.531c1.523-.221,2.259-.35,2.361-.858.082-.41-.359-.674-.525-.774a9.035,9.035,0,0,0-4.382-.75c-1.4-.015-2.715-.03-2.861-.647a.9.9,0,0,1,.183-.927c.616-.583,2.454-.552,4.576.077a27.489,27.489,0,0,1,8.213,4.912.333.333,0,0,0,.424-.514,28.165,28.165,0,0,0-8.448-5.036c-1.893-.561-4.258-.835-5.223.079a1.527,1.527,0,0,0-.373,1.565c.267,1.124,1.766,1.14,3.5,1.159a8.605,8.605,0,0,1,4.046.655c.047.028.084.053.114.074a11.3,11.3,0,0,1-1.7.327,9.427,9.427,0,0,0-2.6.6c-1.458.767-1.4,1.58-1.314,1.893.21.729,1.184,1.151,2.6,1.151" transform="translate(-141.473 -356.309)" fill="#141f26"/>
        <path id="Path_16035" data-name="Path 16035" d="M322.538,713.469a.333.333,0,0,0,.329-.287c.57-4.084,7.3-7.924,11.424-7.448a.333.333,0,1,0,.077-.662c-5.249-.609-11.627,4.187-12.161,8.018a.334.334,0,0,0,.284.376.326.326,0,0,0,.047,0" transform="translate(-177.91 -453.329)" fill="#141f26"/>
        <path id="Path_16036" data-name="Path 16036" d="M328.348,724.689a.333.333,0,0,0,.3-.2c1.2-2.654,6.24-7.657,11.219-7.329a.329.329,0,0,0,.354-.311.333.333,0,0,0-.311-.354c-5.346-.341-10.572,4.845-11.869,7.721a.334.334,0,0,0,.3.47" transform="translate(-182.091 -461.576)" fill="#141f26"/>
        <path id="Path_16037" data-name="Path 16037" d="M395.648,786.589c-2.047,6.167-4,28.516-4,28.516s4.947,4.628,21.233,6.844c2.9-2.285,7.09-17.24,7.09-17.24S427,823.021,428.24,823c24.28-.436,42.849-14.909,42.849-14.909s-.12-6.958-3.206-24.437c0,0-58.84-9.2-72.235,2.937" transform="translate(-227.874 -507.5)" fill="#dea98e"/>
        <path id="Path_16038" data-name="Path 16038" d="M376.794,328.73s21.569-18.332,43.389-26.476c13.817,7.228,43.5,25.262,45.5,27.807,1.229,14.737-5.173,59.651-5.856,67.933-1.39,16.885-2.511,31.608-3.357,38.056-.318,2.427-.951,5.813-1.106,8.493a45.137,45.137,0,0,1,.082,7.786l-76.528.517v-8.3a18.17,18.17,0,0,1-3.589-8.622c-.77-5.346-2.1-40.116-3.077-46.916s-1.782-14.03-.4-27.529,4.943-32.746,4.943-32.746" transform="translate(-213.098 -163.556)" fill="#476f91"/>
        <path id="Path_16039" data-name="Path 16039" d="M410.215,71.007a4.762,4.762,0,0,1,1.87-3.643c8.56-6.7,16.868,2.352,19.552,3.329s15.321-.75,19.71,2.272c6.769,4.661,4.571,8.878,4.571,8.878s4.718,1.787,6.262,5.918a17.615,17.615,0,0,1-1,14.8c-2.59,5.126-3.874,7.051-4.968,10.78s-1.084,6.448-4.255,8.35-14.944.87-14.944.87L414.194,91.618s-10.956-2.626-10.669-11.255c.213-6.421,3.386-8.722,6.691-9.356" transform="translate(-236.413 7.2)" fill="#252a4f"/>
        <path id="Path_16040" data-name="Path 16040" d="M472.829,216.617l-.241,18.336s-3.9,11.381,6.774,11.381c16.79,0,21.145-20.092,21.145-20.092s-2.248-11.43-2.248-35.547c0-9.079-25.431,25.922-25.431,25.922" transform="translate(-285.606 -82.213)" fill="#ffa59d"/>
        <path id="Path_16041" data-name="Path 16041" d="M462.852,311.753l3.346-6.111a18.251,18.251,0,0,0,1.131,7.681c.892,1.975,4.76,9.372,4.76,9.372s4.741-6.766,6.942-8.228c7.357-4.886,13.94-15.628,13.94-15.628l4.611,7.484s-8.01,20.632-24.618,19.433c-12.432-.9-10.113-14-10.113-14" transform="translate(-278.977 -161.099)" fill="#dea98e"/>
        <path id="Path_16042" data-name="Path 16042" d="M561.817,193.536s1.465-7.4,5.539-6.366,3.227,6.337,1.291,9.365a16.289,16.289,0,0,1-6.83,5.813Z" transform="translate(-350.302 -80.687)" fill="#ffa59d"/>
        <path id="Path_16043" data-name="Path 16043" d="M437.532,122.252c4.675-3.165,20.205-3.14,22.466,2.307s.208,9.193,2.919,11.9a17.429,17.429,0,0,1,4.509,10.075s-2.1,17.639-10.655,23.187c-10.248,6.647-18.167,2.656-19.748.031-1.746-2.9-7.148-14.058-6.317-19.732s1.725-7.3,1.541-9a29.012,29.012,0,0,1-.2-7.651c.461-2.629,2.923-9.38,5.489-11.118" transform="translate(-255.91 -32.516)" fill="#ffa59d"/>
        <path id="Path_16044" data-name="Path 16044" d="M453.444,245.881c3.086-.986,12.911-1.1,12.911-1.1a8.461,8.461,0,0,1-6.639,4.473c-4.855.385-5.456-1.569-6.272-3.375" transform="translate(-272.332 -122.208)" fill="#fff"/>
        <path id="Path_16045" data-name="Path 16045" d="M499.95,195.978c0-1.177.644-2.132,1.439-2.132s1.438.955,1.438,2.132-.644,2.132-1.438,2.132-1.439-.954-1.439-2.132" transform="translate(-305.791 -85.561)" fill="#4c3e42"/>
        <path id="Path_16046" data-name="Path 16046" d="M445.8,196.281c0-1.112.551-2.013,1.23-2.013s1.23.9,1.23,2.013-.55,2.014-1.23,2.014-1.23-.9-1.23-2.014" transform="translate(-266.831 -85.865)" fill="#4c3e42"/>
        <path id="Path_16047" data-name="Path 16047" d="M433.864,174.013a1.021,1.021,0,0,0,.89-.519c.97-1.716,3.724-1.749,4.461-1.376a1.022,1.022,0,1,0,.923-1.824c-1.581-.8-5.6-.569-7.163,2.194a1.022,1.022,0,0,0,.889,1.525" transform="translate(-257.51 -68.327)" fill="#252a4f"/>
        <path id="Path_16048" data-name="Path 16048" d="M494.3,172.82a1.022,1.022,0,0,0,.714-1.754,9.674,9.674,0,0,0-9.026-1.88,1.022,1.022,0,1,0,.718,1.914,7.731,7.731,0,0,1,6.881,1.43,1.018,1.018,0,0,0,.714.29" transform="translate(-295.269 -67.517)" fill="#252a4f"/>
        <path id="Path_16049" data-name="Path 16049" d="M675.543,743.722c-2.512-3.421-4.244-6.9-3.739-7.356s3.1,1.761,5.962,4.9,3.185,5.864,2.681,6.325-2.588-.711-4.9-3.865" transform="translate(-429.369 -475.838)" fill="#252a4f"/>
        <path id="Path_16050" data-name="Path 16050" d="M476.887,191.882V189.7a2.46,2.46,0,0,1,2.457-2.456h8.9a2.2,2.2,0,0,1,2.2,2.2v2.442a3.589,3.589,0,0,1-3.585,3.585h-6.384a3.589,3.589,0,0,1-3.585-3.585m2.457-3.776a1.6,1.6,0,0,0-1.594,1.594v2.181a2.725,2.725,0,0,0,2.722,2.723h6.384a2.725,2.725,0,0,0,2.721-2.723V189.44a1.334,1.334,0,0,0-1.333-1.333Z" transform="translate(-289.198 -80.811)" fill="#252a4f"/>
        <path id="Path_16051" data-name="Path 16051" d="M425.353,191.882V189.44a2.2,2.2,0,0,1,2.2-2.2h7.4a2.46,2.46,0,0,1,2.457,2.456v2.181a3.589,3.589,0,0,1-3.585,3.585h-4.884a3.589,3.589,0,0,1-3.585-3.585m2.2-3.776a1.335,1.335,0,0,0-1.333,1.333v2.442a2.725,2.725,0,0,0,2.722,2.723h4.884a2.725,2.725,0,0,0,2.722-2.723V189.7a1.6,1.6,0,0,0-1.594-1.594Z" transform="translate(-252.121 -80.811)" fill="#252a4f"/>
        <path id="Path_16052" data-name="Path 16052" d="M523.845,195.295h11.089a.431.431,0,1,0,0-.863H523.845a.431.431,0,1,0,0,.863" transform="translate(-322.672 -85.983)" fill="#252a4f"/>
        <path id="Path_16053" data-name="Path 16053" d="M465.671,193.166a.431.431,0,0,0,.367-.2,1.439,1.439,0,0,1,.924-.617,1.91,1.91,0,0,1,1.483.7.431.431,0,0,0,.6-.621,2.711,2.711,0,0,0-2.2-.936,2.3,2.3,0,0,0-1.542,1.021.431.431,0,0,0,.368.656" transform="translate(-280.818 -83.854)" fill="#252a4f"/>
        <path id="Path_16054" data-name="Path 16054" d="M486.694,662.364a.332.332,0,0,0,.267-.134c3.252-4.362,6.614-8.873,11.127-12.07,1.16-.822,2.419-1.57,3.636-2.293a20.589,20.589,0,0,0,10.8-11.909c.332-.718.664-1.435,1.013-2.141,1.937-3.917,4.029-6.227,6.587-7.271a.333.333,0,0,0-.252-.617c-3.57,1.457-5.667,5.031-6.933,7.593-.351.71-.686,1.433-1.02,2.156a19.961,19.961,0,0,1-10.539,11.615c-1.229.731-2.5,1.485-3.681,2.323-4.6,3.258-7.994,7.812-11.276,12.216a.333.333,0,0,0,.267.532" transform="translate(-296.014 -396.409)" fill="#141f26"/>
        <path id="Path_16055" data-name="Path 16055" d="M416,816.616h.005a.333.333,0,0,0,.328-.339l-.132-8.019a.333.333,0,0,0-.333-.328h-.005a.333.333,0,0,0-.328.339l.132,8.019a.333.333,0,0,0,.333.328" transform="translate(-245.059 -527.37)" fill="#141f26"/>
        <path id="Path_16056" data-name="Path 16056" d="M435.235,817.135h0a.333.333,0,0,0,.329-.337l-.095-8.542a.333.333,0,0,0-.333-.329h0a.333.333,0,0,0-.33.337l.1,8.541a.333.333,0,0,0,.333.329" transform="translate(-258.923 -527.367)" fill="#141f26"/>
        <path id="Path_16057" data-name="Path 16057" d="M453.744,816.625h.025a.333.333,0,0,0,.307-.357,46.589,46.589,0,0,1,.085-7.964.334.334,0,0,0-.3-.364.339.339,0,0,0-.364.3,47.246,47.246,0,0,0-.086,8.078.333.333,0,0,0,.332.308" transform="translate(-272.214 -527.375)" fill="#141f26"/>
        <path id="Path_16058" data-name="Path 16058" d="M469.465,816.945h0a.333.333,0,0,0,.329-.338l-.1-7.779a.333.333,0,0,0-.333-.329h0a.333.333,0,0,0-.329.337l.1,7.779a.333.333,0,0,0,.333.329" transform="translate(-283.548 -527.779)" fill="#141f26"/>
        <path id="Path_16059" data-name="Path 16059" d="M486.428,816.762h.029a.333.333,0,0,0,.3-.36,44.073,44.073,0,0,1,.022-7.682.333.333,0,0,0-.3-.362.328.328,0,0,0-.362.3,44.684,44.684,0,0,0-.022,7.8.333.333,0,0,0,.332.3" transform="translate(-295.709 -527.675)" fill="#141f26"/>
        <path id="Path_16060" data-name="Path 16060" d="M504.62,816.675h.015a.334.334,0,0,0,.318-.348l-.352-7.659a.333.333,0,1,0-.666.03l.352,7.659a.333.333,0,0,0,.333.318" transform="translate(-308.658 -527.671)" fill="#141f26"/>
        <path id="Path_16061" data-name="Path 16061" d="M521.043,815.883a.333.333,0,0,0,.332-.3,67.674,67.674,0,0,0,.233-7.9.326.326,0,0,0-.343-.323.333.333,0,0,0-.323.343,67,67,0,0,1-.231,7.824.333.333,0,0,0,.3.361h.029" transform="translate(-320.726 -526.954)" fill="#141f26"/>
        <path id="Path_16062" data-name="Path 16062" d="M537.608,816.439a.333.333,0,0,0,.333-.32c.106-2.562.1-5.163-.029-7.731a.338.338,0,0,0-.349-.317.333.333,0,0,0-.316.349c.124,2.548.134,5.128.028,7.671a.333.333,0,0,0,.319.347Z" transform="translate(-332.623 -527.471)" fill="#141f26"/>
        <path id="Path_16063" data-name="Path 16063" d="M558.32,817.1a.333.333,0,0,0,.333-.316,35.617,35.617,0,0,0-.443-7.735.333.333,0,1,0-.658.111,34.955,34.955,0,0,1,.435,7.59.334.334,0,0,0,.315.35Z" transform="translate(-347.23 -527.971)" fill="#141f26"/>
        <path id="Path_16064" data-name="Path 16064" d="M576.039,817.325a.333.333,0,0,0,.333-.322,51.269,51.269,0,0,0-.279-7.35.333.333,0,0,0-.662.076,51.342,51.342,0,0,1,.276,7.252.333.333,0,0,0,.321.345Z" transform="translate(-360.094 -528.395)" fill="#141f26"/>
        <path id="Path_16065" data-name="Path 16065" d="M591.684,817.077a.333.333,0,0,0,.332-.323,31.626,31.626,0,0,0-.538-6.853.337.337,0,0,0-.389-.266.333.333,0,0,0-.265.39,31.024,31.024,0,0,1,.527,6.708.333.333,0,0,0,.323.343Z" transform="translate(-371.166 -528.592)" fill="#141f26"/>
        <path id="Path_16066" data-name="Path 16066" d="M608.262,817.27a.333.333,0,0,0,.332-.311,37.81,37.81,0,0,0-.2-7.164.333.333,0,1,0-.661.082,37.188,37.188,0,0,1,.2,7.038.333.333,0,0,0,.31.355h.022" transform="translate(-383.332 -528.5)" fill="#141f26"/>
        <path id="Path_16067" data-name="Path 16067" d="M623.717,819.273h.01a.333.333,0,0,0,.323-.343c-.015-.5-.026-.978-.037-1.444a52.658,52.658,0,0,0-.316-5.346.333.333,0,1,0-.662.079,51.453,51.453,0,0,1,.311,5.283c.011.468.022.948.038,1.449a.333.333,0,0,0,.333.323" transform="translate(-394.344 -530.186)" fill="#141f26"/>
        <path id="Path_16068" data-name="Path 16068" d="M639.917,820.535a.334.334,0,0,0,.332-.307,29.134,29.134,0,0,0-.131-6.22.333.333,0,1,0-.662.078,28.561,28.561,0,0,1,.128,6.089.333.333,0,0,0,.305.359h.027" transform="translate(-406.158 -531.53)" fill="#141f26"/>
        <path id="Path_16069" data-name="Path 16069" d="M655.358,821.235a.333.333,0,0,0,.325-.259,24.273,24.273,0,0,0,.13-5.976.327.327,0,0,0-.352-.314.333.333,0,0,0-.314.352,23.9,23.9,0,0,1-.114,5.789.333.333,0,0,0,.251.4.363.363,0,0,0,.075.009" transform="translate(-417.361 -532.229)" fill="#141f26"/>
        <path id="Path_16070" data-name="Path 16070" d="M507.186,934.869a.333.333,0,0,0,.333-.333c0-7-.354-12.689-.7-18.188-.2-3.2-.387-6.221-.508-9.457a.352.352,0,0,0-.346-.321.334.334,0,0,0-.32.346c.121,3.244.309,6.27.509,9.474.342,5.489.7,11.166.7,18.147a.333.333,0,0,0,.333.333" transform="translate(-309.891 -598.336)" fill="#4e323e"/>
        <path id="Path_16071" data-name="Path 16071" d="M493.1,923.026a.334.334,0,0,0,.067-.66c-2.331-.481-4-1.694-4.568-6.052-.557-4.276-1.286-12.623-1.572-20.847a.333.333,0,1,0-.666.023c.287,8.245,1.018,16.619,1.577,20.91.53,4.065,2.006,5.982,5.095,6.62a.377.377,0,0,0,.068.007" transform="translate(-296.014 -590.116)" fill="#4e323e"/>
        <path id="Path_16072" data-name="Path 16072" d="M625.719,712.957s-5.16,7.389-9.443,9.5c-3,1.473-11.73.681-13.965,1.537-1.3.5-3.716,2.955-3.588,4.277a27.371,27.371,0,0,0,.506,2.981,10.388,10.388,0,0,0,.067,2.685,14.046,14.046,0,0,0,.975,2.127c.89,2.42,1.383,5.213,2.063,6.017,1.19,1.406,5.178,2.819,7.887,1.438a17.392,17.392,0,0,0,4.7-3.721,31.109,31.109,0,0,0,5.144-2.761,15.981,15.981,0,0,0,1.708-2.5l15.176-10.886Z" transform="translate(-376.851 -459.04)" fill="#ffa59d"/>
        <path id="Path_16073" data-name="Path 16073" d="M678.43,712.957s-3.5,3.972-6.446,6.607c6.123,3.225,8.644,11.244,8.644,11.244l9.562-6.1Z" transform="translate(-429.562 -459.04)" fill="#dea98e"/>
        <path id="Path_16074" data-name="Path 16074" d="M662.182,432.62c-13.019-15.463-9.648-33.637-1.1-38.619,6.085-3.547,18.449,9.988,22.61,14.149,14.147,14.147,32.452,41.96,33.021,45.659.575,3.74-3.288,12.227-6.726,16.006-5.824,6.4-31.212,25.115-37.839,28.185a23.355,23.355,0,0,0-9.588-12.379s6.809-7.932,11.083-13.08c2.519-3.034,7.54-10.667,12.882-16.858-8.313-7.4-20.352-18.324-24.342-23.064" transform="translate(-416.28 -229.143)" fill="#476f91"/>
        <path id="Path_16075" data-name="Path 16075" d="M671.837,457.459a.333.333,0,0,0,.275-.521c-11.856-17.385-8.867-28.514-6.03-33.6a.333.333,0,0,0-.582-.324c-2.912,5.221-6,16.621,6.062,34.3a.332.332,0,0,0,.276.145" transform="translate(-422.998 -250.314)" fill="#141f26"/>
        <path id="Path_16076" data-name="Path 16076" d="M709.493,720.319a.334.334,0,0,0,.314-.446c-1.928-5.422-6.553-11.175-10.758-13.381a.333.333,0,1,0-.31.59c4.073,2.137,8.561,7.733,10.439,13.015a.334.334,0,0,0,.314.222" transform="translate(-448.683 -454.361)" fill="#141f26"/>
        <path id="Path_16077" data-name="Path 16077" d="M695,733.939a.334.334,0,0,0,.314-.446c-1.963-5.52-5.859-10.4-9.7-12.144a.333.333,0,0,0-.276.607c3.682,1.674,7.436,6.4,9.343,11.761a.334.334,0,0,0,.314.222" transform="translate(-439.033 -465.056)" fill="#141f26"/>
        <path id="Path_16078" data-name="Path 16078" d="M787.22,602.129a2.409,2.409,0,0,0,2.186-.851,1.284,1.284,0,0,0-.289-1.565c-.569-.614-2.139-.767-3.8-.928-.965-.094-2.581-.251-2.749-.525.3-.486,2.174-.418,3.683-.364,2.383.088,4.847.176,5.679-1.027a1.252,1.252,0,0,0-.314-1.813c-2.081-1.662-10.841-1.82-16.314,4.13a.333.333,0,0,0,.49.451c5.014-5.451,13.4-5.664,15.408-4.061.463.371.34.682.182.913-.624.9-3.109.811-5.107.74-2.112-.077-3.781-.137-4.256.671a.666.666,0,0,0-.044.662c.29.568,1.379.7,3.278.885,1.328.129,2.982.29,3.378.718.151.164.378.479.2.77-.226.38-1.272.852-3.761.215a.333.333,0,1,0-.166.646,9.506,9.506,0,0,0,2.313.332" transform="translate(-503.83 -373.499)" fill="#141f26"/>
        <path id="Path_16079" data-name="Path 16079" d="M458.986,808.119a.333.333,0,0,0,0-.666l-56.194-.228h0a.333.333,0,0,0,0,.666l56.194.228Z" transform="translate(-235.65 -526.861)" fill="#141f26"/>
        <path id="Path_16080" data-name="Path 16080" d="M368.6,469.983a.329.329,0,0,0,.047,0,.333.333,0,0,0,.284-.376c-1.121-7.971-2.15-23.335,3.557-36.664a.333.333,0,1,0-.613-.263c-5.77,13.479-4.735,28.98-3.6,37.02a.333.333,0,0,0,.33.286" transform="translate(-210.422 -257.244)" fill="#141f26"/>
        <path id="Path_16081" data-name="Path 16081" d="M465.687,353.39a24.742,24.742,0,0,0,18.39-8.271,35.642,35.642,0,0,0,8.322-15.086.333.333,0,0,0-.648-.155,34.936,34.936,0,0,1-8.16,14.785,24.135,24.135,0,0,1-19.806,7.989c-6.233-.464-8.859-3.73-9.965-6.388-1.786-4.293-.692-9.487.878-11.321a.333.333,0,0,0-.506-.434c-1.646,1.922-2.945,7.306-.987,12.011,1.177,2.831,3.96,6.308,10.531,6.8q.983.073,1.952.073" transform="translate(-271.451 -183.246)" fill="#141f26"/>
        <path id="Path_16082" data-name="Path 16082" d="M453.918,358.357a.332.332,0,0,0,.261-.125,5.138,5.138,0,0,1,1.805-.948.333.333,0,1,0-.148-.65,5.456,5.456,0,0,0-2.178,1.183.333.333,0,0,0,.052.468.329.329,0,0,0,.208.073" transform="translate(-272.433 -202.674)" fill="#141f26"/>
        <path id="Path_16083" data-name="Path 16083" d="M452.862,370.7a.332.332,0,0,0,.243-.105,7.28,7.28,0,0,1,2.684-1.883.334.334,0,0,0-.26-.614,7.9,7.9,0,0,0-2.91,2.042.333.333,0,0,0,.243.561" transform="translate(-271.673 -210.91)" fill="#141f26"/>
        <path id="Path_16084" data-name="Path 16084" d="M456.755,381.932a.333.333,0,0,0,.291-.171,8.2,8.2,0,0,1,2.84-2.98.333.333,0,1,0-.346-.57,8.879,8.879,0,0,0-3.076,3.224.334.334,0,0,0,.291.5" transform="translate(-274.474 -218.17)" fill="#141f26"/>
        <path id="Path_16085" data-name="Path 16085" d="M464.328,390.91a.333.333,0,0,0,.283-.157c.169-.272.327-.537.479-.793a8.744,8.744,0,0,1,2.394-2.94.333.333,0,1,0-.39-.54,9.255,9.255,0,0,0-2.577,3.139c-.151.253-.306.514-.473.782a.333.333,0,0,0,.283.509" transform="translate(-279.923 -224.108)" fill="#141f26"/>
        <path id="Path_16086" data-name="Path 16086" d="M480.312,397.17a.334.334,0,0,0,.327-.272,14.02,14.02,0,0,1,1.917-4.681.334.334,0,0,0-.541-.39,14.568,14.568,0,0,0-2.031,4.948.333.333,0,0,0,.266.389.354.354,0,0,0,.061.006" transform="translate(-291.422 -227.901)" fill="#141f26"/>
        <path id="Path_16087" data-name="Path 16087" d="M500.258,399.909a.333.333,0,0,0,.333-.333c0-.959.053-1.886.109-2.867.037-.649.075-1.306.1-1.983a.333.333,0,0,0-.322-.344.342.342,0,0,0-.344.322c-.022.672-.059,1.324-.1,1.967-.057.991-.11,1.927-.11,2.9a.333.333,0,0,0,.333.333" transform="translate(-305.773 -229.838)" fill="#141f26"/>
        <path id="Path_16088" data-name="Path 16088" d="M514.834,398.988h.017a.334.334,0,0,0,.316-.35,30.517,30.517,0,0,0-.618-4.5.333.333,0,1,0-.65.149,30.368,30.368,0,0,1,.6,4.388.332.332,0,0,0,.332.316" transform="translate(-315.821 -229.475)" fill="#141f26"/>
        <path id="Path_16089" data-name="Path 16089" d="M540.5,389.3a.335.335,0,0,0,.306-.465c-.162-.376-.336-.826-.518-1.294a23.071,23.071,0,0,0-1.086-2.52.333.333,0,0,0-.584.321,22.646,22.646,0,0,1,1.049,2.44c.185.476.362.933.527,1.316a.335.335,0,0,0,.307.2" transform="translate(-333.579 -222.977)" fill="#141f26"/>
        <path id="Path_16090" data-name="Path 16090" d="M552.963,379.834a.334.334,0,0,0,.289-.5,34.47,34.47,0,0,0-2.331-3.418.333.333,0,1,0-.527.409,33.812,33.812,0,0,1,2.279,3.339.333.333,0,0,0,.29.169" transform="translate(-342.032 -216.461)" fill="#141f26"/>
        <path id="Path_16091" data-name="Path 16091" d="M563.5,369.426a.333.333,0,0,0,.267-.532,36.969,36.969,0,0,0-2.567-2.778.333.333,0,1,0-.471.471c.934.934,2.128,2.2,2.5,2.7a.333.333,0,0,0,.268.135" transform="translate(-349.447 -209.432)" fill="#141f26"/>
        <path id="Path_16092" data-name="Path 16092" d="M570.878,359.437a.327.327,0,0,0,.149-.036.333.333,0,0,0,.149-.447,8.726,8.726,0,0,0-2.654-2.762.333.333,0,1,0-.3.594,8.269,8.269,0,0,1,2.358,2.467.334.334,0,0,0,.3.184" transform="translate(-354.777 -202.337)" fill="#141f26"/>
        <path id="Path_16093" data-name="Path 16093" d="M578.877,346.341a.333.333,0,0,0,.283-.508,6.441,6.441,0,0,0-1.531-1.314c-.264-.192-.547-.4-.835-.617a.333.333,0,0,0-.4.531c.292.223.579.431.847.626a6.992,6.992,0,0,1,1.356,1.125.332.332,0,0,0,.284.158" transform="translate(-360.692 -193.471)" fill="#141f26"/>
        <path id="Path_16094" data-name="Path 16094" d="M584.873,334a.335.335,0,0,1-.124-.155c-.138-.12-.571-.4-.925-.631s-.734-.476-1.1-.733a.333.333,0,1,1,.381-.547c.363.252.745.5,1.085.72.995.645,1.158.765,1.2.983a.381.381,0,0,1-.053.271.335.335,0,0,1-.463.091m-.091-.461h0m0,0h0" transform="translate(-365.238 -184.866)" fill="#141f26"/>
        <path id="Path_16095" data-name="Path 16095" d="M523.255,364.9a.333.333,0,0,0,.242-.562c-1.057-1.119-2.076-2.116-3.061-3.081s-1.995-1.953-3.042-3.062a.334.334,0,1,0-.485.458c1.057,1.119,2.076,2.116,3.061,3.081s1.995,1.953,3.043,3.062a.333.333,0,0,0,.242.1" transform="translate(-317.926 -203.728)" fill="#7f6053"/>
        <path id="Path_16096" data-name="Path 16096" d="M490.943,847.926a.338.338,0,0,0,.135-.029.333.333,0,0,0,.169-.44c-.249-.56-.249-4.027-.249-7.086a.333.333,0,0,0-.667,0c0,4.134.015,6.7.306,7.358a.333.333,0,0,0,.3.2" transform="translate(-298.871 -550.468)" fill="#7f6053"/>
        <path id="Path_16097" data-name="Path 16097" d="M466.177,359.393a.333.333,0,0,0,.25-.113,31.994,31.994,0,0,1,2.9-2.732c.352-.305.692-.6,1.006-.884a.333.333,0,1,0-.446-.5c-.312.281-.65.574-1,.877a32.485,32.485,0,0,0-2.959,2.8.333.333,0,0,0,.25.553" transform="translate(-281.253 -201.564)" fill="#7f6053"/>
        <path id="Path_16098" data-name="Path 16098" d="M462.213,228.891c.052.1-.215.261-.636.273a2.639,2.639,0,0,1-1.667-.528.085.085,0,0,0-.037-.029,2.746,2.746,0,0,1-.78-.927,1.8,1.8,0,0,1-.247-1.094c.025-.127.065-.18.134-.178a.146.146,0,0,1,.092.026,7.023,7.023,0,0,1,.523.69,4.355,4.355,0,0,0,.693.714.6.6,0,0,0,.1.081,4.383,4.383,0,0,0,1.275.664c.319.117.536.189.552.308" transform="translate(-276.207 -108.988)" fill="#dd6478"/>
        <path id="Path_16099" data-name="Path 16099" d="M474.509,289.648a25.3,25.3,0,0,0,18.356-14.094l-10.6-1.493c-2.527.818-5.053,1.637-7.562,2.58a112.418,112.418,0,0,1-.2,13.007" transform="translate(-287.487 -143.272)" fill="#dd6478"/>
        <path id="Path_16100" data-name="Path 16100" d="M432.023,197.589a59.154,59.154,0,0,0,6.009,15.065c1.581,2.626,9.453,6.544,19.747-.031,9.3-5.936,9.727-26.648,13.467-30.23-.3.066-5.994-2.651-5.994-2.651.719,4.459.2,10.922-.084,11.447-1.343,2.443-3.175,2.882-4.06,4.32-1.089,1.772-1.814,7.285-3.594,7.653s-2.016-2.654-4.536-5.173c-1.733-1.732-5.595-2.255-9-2.115a2.023,2.023,0,0,1-1.2.5c-.683.064-1.455-.26-2.044-.149a10.8,10.8,0,0,0-1.95.533c-4.014,1.61-2.873,5.711-4.188,5.4-1.055-.25-1.922-2.294-2.572-4.573m6.468,1.691c2.624-.72,4.564-.407,11.587-1.142,1.978-.207,3.634,6.094,2.259,7.578-1.536,1.657-5.577.232-8.764.442-2.885.19-4.8,1.026-5.552.483-2.061-1.486-1.139-6.919.47-7.36" transform="translate(-256.92 -75.415)" fill="#252a4f"/>
      </g>
    </g>
  </g>
</svg>
