<svg xmlns="http://www.w3.org/2000/svg" xmlns:xlink="http://www.w3.org/1999/xlink" width="243.437" height="243.437" viewBox="0 0 243.437 243.437">
  <defs>
    <clipPath id="clip-path">
      <circle id="Ellipse_59" data-name="Ellipse 59" cx="86.068" cy="86.068" r="86.068" transform="translate(0 121.719) rotate(-45)" fill="none"/>
    </clipPath>
  </defs>
  <g id="Group_33581" data-name="Group 33581" transform="translate(0 0)" opacity="0.997">
    <g id="Group_33578" data-name="Group 33578" transform="translate(35.651 35.65)">
      <g id="Group_33582" data-name="Group 33582" transform="translate(0 0)">
        <path id="Path_16101" data-name="Path 16101" d="M172.136,86.065A86.068,86.068,0,1,1,86.068,0a86.068,86.068,0,0,1,86.068,86.068" transform="translate(0 0.003)" fill="#dbebfa"/>
      </g>
    </g>
    <g id="Group_33580" data-name="Group 33580" transform="translate(0 0)">
      <g id="Group_33579" data-name="Group 33579" transform="translate(0 0)" clip-path="url(#clip-path)">
        <path id="Path_16102" data-name="Path 16102" d="M272.882,815.185c-.548-6.043-10.279-48.2-10.279-76.293,0-10.015,9.577-29.984,9.577-29.984l41.787,1.456,4.937,29.227,21.888,137.653-20.889-.827a312.134,312.134,0,0,0-7.462-33.654c-2.763-9.411-3.628-23.734-5.456-29.088-3.929-11.508-8.106-25.777-11.658-38.572l-.171,42.788.744,58.165-18.457-.485s-3.882-29.114-4.56-36.592.548-17.751,0-23.794" transform="translate(-178.226 -541.719)" fill="#958897"/>
        <path id="Path_16103" data-name="Path 16103" d="M306.617,110.55s-6.832-5.479-.6-11.152c8.19-7.454-3.265-24.674,14.349-26.73,12.252-1.43,20.849,4.842,22.731,8.984a19.324,19.324,0,0,1,1.443,6.838,2.349,2.349,0,0,1-2.644,2.44l-.029,0c.221,6.4-.113,7.084,2.219,10.005,4.058,5.083,1.845,7.729.322,10.25-3.118,5.157-15.514,4-23.2,4-11.454,0-14.592-4.631-14.592-4.631" transform="translate(-211.45 -23.363)" fill="#b0abc3"/>
        <path id="Path_16104" data-name="Path 16104" d="M269.237,322.108l30.2-14.344,25.539,14-5.108,61.742-42.027-.918Z" transform="translate(-183.63 -215.007)" fill="#fcdede"/>
        <path id="Path_16105" data-name="Path 16105" d="M387.078,320.831a23.306,23.306,0,0,0,1.394,11c2.512,7.06,8.515,11.98,11.882,11.69,3.907-.336,6.447-4.986,6.447-9.264a22.037,22.037,0,0,0-3.72-12.72Z" transform="translate(-279.475 -225.65)" fill="#fec6bf"/>
        <path id="Path_16106" data-name="Path 16106" d="M306.289,698.793l1.074-7.408,41.964,1.667.716,7.682Z" transform="translate(-213.807 -527.448)" fill="#958897"/>
        <path id="Path_16107" data-name="Path 16107" d="M349.008,699.944,305.255,698a.233.233,0,0,1-.221-.267l1.074-7.408a.237.237,0,0,1,.24-.2l41.964,1.667a.234.234,0,0,1,.223.212l.716,7.683a.233.233,0,0,1-.233.255ZM306.539,690.6l-1.006,6.944,43.228,1.918-.672-7.212Z" transform="translate(-212.782 -526.424)" fill="#494a69"/>
        <path id="Path_16108" data-name="Path 16108" d="M424.191,700.911v-3.67a2.082,2.082,0,0,1,2.208-2.079l5.13.31a2.082,2.082,0,0,1,1.956,2.033l.077,3.556a2.082,2.082,0,0,1-2.16,2.126l-5.207-.2a2.082,2.082,0,0,1-2-2.081" transform="translate(-309.832 -530.521)" fill="#958897"/>
        <path id="Path_16109" data-name="Path 16109" d="M430.369,702.4l-5.207-.2a2.309,2.309,0,0,1-2.228-2.314v-3.67a2.315,2.315,0,0,1,2.455-2.312l5.13.31a2.329,2.329,0,0,1,2.176,2.261l.077,3.556a2.316,2.316,0,0,1-2.312,2.366l-.09,0m-6.387-7.526a1.831,1.831,0,0,0-.581,1.346v3.67a1.844,1.844,0,0,0,1.779,1.847l5.207.2a1.849,1.849,0,0,0,1.918-1.888l-.077-3.556a1.86,1.86,0,0,0-1.737-1.805l-5.13-.31c-.039,0-.077,0-.115,0a1.829,1.829,0,0,0-1.264.5" transform="translate(-308.807 -529.496)" fill="#494a69"/>
        <path id="Path_16110" data-name="Path 16110" d="M434.152,707.177v-2.222a1.261,1.261,0,0,1,1.337-1.259l3.107.188a1.261,1.261,0,0,1,1.185,1.232l.047,2.153a1.26,1.26,0,0,1-1.308,1.287l-3.153-.118a1.261,1.261,0,0,1-1.214-1.26" transform="translate(-317.945 -537.472)" fill="#958897"/>
        <path id="Path_16111" data-name="Path 16111" d="M437.484,707.764l-3.153-.119a1.49,1.49,0,0,1-1.438-1.494V703.93a1.494,1.494,0,0,1,1.585-1.492l3.107.188a1.5,1.5,0,0,1,1.4,1.459l.047,2.153a1.5,1.5,0,0,1-1.492,1.527h-.058m-3.8-4.583a1.018,1.018,0,0,0-.323.749v2.222a1.024,1.024,0,0,0,.989,1.027l3.153.119a1.028,1.028,0,0,0,1.066-1.05l-.047-2.152a1.034,1.034,0,0,0-.965-1l-3.106-.188-.064,0a1.017,1.017,0,0,0-.7.28" transform="translate(-316.919 -536.447)" fill="#494a69"/>
        <path id="Path_16112" data-name="Path 16112" d="M584.565,711.432c.393-1.179-.149-2.921-2.034-5.292s-4.244-3.732-5.273-3.254c-.155.265.454,2.425,2.338,4.8s3.422,3.511,4.968,3.749" transform="translate(-434.479 -536.738)" fill="#252a4f"/>
        <path id="Path_16113" data-name="Path 16113" d="M465.2,317.937s11.041,26.564,12.736,32.794c3.251,11.955.783,40.45.783,40.45l3.959,47.468a6.611,6.611,0,0,0,4.812,5.819l4.755,1.327s-10.987-38.609-9.46-54c.84-8.467,3.435-25.238,4.5-35.994a109.37,109.37,0,0,0-.645-25.564s-9.492-4.292-12.44-6.114a107.2,107.2,0,0,1-9-6.184" transform="translate(-343.235 -223.293)" fill="#dea98e"/>
        <path id="Path_16114" data-name="Path 16114" d="M501.442,694.459s-5.427,6.053-6.306,4.7c-3.191-4.932-4.48-4.666-4.48-4.666s-2.626,1.011-5.5,2.348c-1.523.709-5.079,3.578-5.515,4.682s1.473.827,2,.54a19.292,19.292,0,0,0,3.046-2.089,6.273,6.273,0,0,1,1.761-1.041,24.263,24.263,0,0,1,3.9-.808s-3.757.919-5.417,2.58c0,0-4.126,4.491-3.64,5.369s2.6-.418,2.6-.418-.964,1.068-.366,1.35c1.448.681,4.465-2.176,4.467-2.177v-.089s-2.218,2.017-1.394,2.417c.672.326,2.555-.634,4.36-1.228.116-.039.231-.072.346-.1a2.625,2.625,0,0,1,3.24,2.275,9.758,9.758,0,0,0,.371,1.863c.726,2.315,10.925-10.713,10.925-10.713Z" transform="translate(-354.943 -529.951)" fill="#fec6bf"/>
        <path id="Path_16115" data-name="Path 16115" d="M384.99,230.05l-.976,19.208,15.581.667-.553-14.146Z" transform="translate(-277.11 -151.713)" fill="#fec6bf"/>
        <path id="Path_16116" data-name="Path 16116" d="M260.059,403.327c1.888-9.487,4.909-18.425,4.909-23.05s-5.906-56.41-5.906-56.41,7.779-4.438,10.917-5.77c3.93-1.668,11.917-7.874,11.917-7.874s-2.213,11.083.367,22c3.791,16.037,3.213,35.824,2.189,49.428-.14,1.865-1.855,39.3-2.383,50.861a4.666,4.666,0,0,1-3.4,4.28l-20.658,5.8s-.509-26.4,2.05-39.264" transform="translate(-174.451 -217.01)" fill="#dea98e"/>
        <path id="Path_16117" data-name="Path 16117" d="M558.058,406.313l3.785-23.087s2.2.65,6.031,7.794c1.538,2.866,16.8,19.77,18.7,28.41.505,2.3-.923,5.881-3.182,9.41-2.059,3.216-14.434,22.322-14.434,22.322a18.747,18.747,0,0,0-3.017-5.2,14.847,14.847,0,0,0-4.307-3.343s5.368-12.951,9.963-21Z" transform="translate(-418.86 -276.467)" fill="#dea98e"/>
        <path id="Path_16118" data-name="Path 16118" d="M435.891,792.47a.233.233,0,0,0,.233-.228c.427-18.343.592-42.269-.226-54.407a.228.228,0,0,0-.249-.217.233.233,0,0,0-.217.249c.817,12.123.652,36.032.225,54.365a.233.233,0,0,0,.228.239Z" transform="translate(-318.987 -565.101)" fill="#494a69"/>
        <path id="Path_16119" data-name="Path 16119" d="M438.8,765.81a.234.234,0,0,0,.126-.036,7.776,7.776,0,0,0,3.369-5.134c.892-3.554.793-9.787.705-15.287-.045-2.806-.087-5.457.005-7.488a.234.234,0,0,0-.223-.244.239.239,0,0,0-.244.223c-.092,2.045-.05,4.7-.005,7.516.087,5.471.186,11.671-.692,15.165a7.338,7.338,0,0,1-3.168,4.854.233.233,0,0,0,.126.43" transform="translate(-321.54 -565.105)" fill="#494a69"/>
        <path id="Path_16120" data-name="Path 16120" d="M570.88,431.992a.233.233,0,0,0,.232-.209c.734-7.12-.163-11.927-1.2-17.493-.367-1.969-.748-4.005-1.079-6.271a.233.233,0,1,0-.462.068c.332,2.274.713,4.315,1.082,6.289,1.032,5.531,1.924,10.307,1.2,17.36a.233.233,0,0,0,.208.256h.024" transform="translate(-427.255 -296.498)" fill="#7f6053"/>
        <path id="Path_16121" data-name="Path 16121" d="M630.933,577.558a.232.232,0,0,0,.149-.054,9.152,9.152,0,0,1,9.484-1.271.233.233,0,0,0,.194-.425,9.629,9.629,0,0,0-9.977,1.337.233.233,0,0,0,.15.413" transform="translate(-478.023 -432.644)" fill="#7f6053"/>
        <path id="Path_16122" data-name="Path 16122" d="M654.537,585.984a.233.233,0,0,0,.161-.4,4.381,4.381,0,0,0-3.652-1.137.233.233,0,1,0,.074.461,3.9,3.9,0,0,1,3.255,1.013.232.232,0,0,0,.161.065" transform="translate(-494.434 -440.308)" fill="#7f6053"/>
        <path id="Path_16123" data-name="Path 16123" d="M391.28,380.093s5.914,16.635,4.658,25.813,4.754,11.377,5.847,15.151c.709,2.449-2.269,7.345,3.212,9.679,1.914-3.044,2.757-3.893,7.735-8.871s5.641-2.848,4-11.06-6.4-21.1-10.626-25.334-14.823-5.378-14.823-5.378" transform="translate(-283.027 -273.916)" fill="#83b4df"/>
        <path id="Path_16124" data-name="Path 16124" d="M215.644,832.911s.45,8.209.317,10.679c-2.125,4.595-3.784,7.687-3.893,9.7-.083,1.538,1.313,3.055,2.23,3.972,1.062,1.62,2.1,1.633,2.438,1.027.415,1.43,2.271,2.516,2.992,1.473.589,1.4,2.639,1.8,3.013.526-1.576-5.322.3-8.734.3-8.734l2.26,3.964s1.715-4.361.692-6.5c-.389-.813-1.674-5.523-1.674-5.523l-.289-11.965Z" transform="translate(-137.066 -641.586)" fill="#fec6bf"/>
        <path id="Path_16125" data-name="Path 16125" d="M214.442,380.093s-1.02.2-5.971,3.484c-4.751,3.152-7.394,37.221-7.071,48.806.289,10.365,4.556,41.1,4.556,41.1l11.653.141,2.126-41.649-.626-38.639Z" transform="translate(-128.358 -273.916)" fill="#dea98e"/>
        <path id="Path_16126" data-name="Path 16126" d="M226.753,494.081h0l11.556-.042a.232.232,0,0,0,.167-.071.235.235,0,0,0,.065-.171c-.07-1.883-.14-3.668-.207-5.39-.456-11.657-.786-20.08-.279-35.793.094-2.907.435-6.712.8-10.741,1.351-15.071,3.032-33.827-4.315-36.931a.233.233,0,0,0-.182.43c7.032,2.971,5.3,22.327,4.031,36.459-.361,4.035-.7,7.847-.8,10.767-.508,15.73-.178,24.159.279,35.826.065,1.647.131,3.354.2,5.148l-11.314.042a.233.233,0,0,0,0,.467" transform="translate(-148.839 -294.139)" fill="#7f6053"/>
        <path id="Path_16127" data-name="Path 16127" d="M449.109,521.689a.234.234,0,0,0,.222-.3,5.673,5.673,0,0,1,.324-3.536,11.807,11.807,0,0,0,.066-7.919,12.371,12.371,0,0,0-2.2-3.2,17.191,17.191,0,0,1-1.425-1.859c-.734-1.247-1.137-4.792-.509-5.985a.233.233,0,1,0-.413-.217c-.716,1.36-.3,5.055.52,6.439a17.4,17.4,0,0,0,1.468,1.921,12.454,12.454,0,0,1,2.114,3.041,11.4,11.4,0,0,1-.068,7.641,6.1,6.1,0,0,0-.321,3.813.234.234,0,0,0,.222.162" transform="translate(-326.624 -370.39)" fill="#141f26"/>
        <path id="Path_16128" data-name="Path 16128" d="M466.665,513.416a.233.233,0,0,0,.231-.205c.345-2.823-1.406-4.477-3.1-6.075-1.527-1.442-2.97-2.8-2.711-4.929a.233.233,0,1,0-.463-.056c-.288,2.358,1.309,3.867,2.854,5.325,1.609,1.519,3.272,3.09,2.956,5.68a.234.234,0,0,0,.2.26l.029,0" transform="translate(-339.477 -373.157)" fill="#141f26"/>
        <path id="Path_16129" data-name="Path 16129" d="M457.735,714.334h0a.669.669,0,0,0-.635-.657l-2.056-.1.022,1.34,1.967.1a.669.669,0,0,0,.7-.679" transform="translate(-334.96 -545.518)" fill="#958897"/>
        <path id="Path_16130" data-name="Path 16130" d="M456,714.222l-1.967-.1a.234.234,0,0,1-.222-.23l-.022-1.34a.234.234,0,0,1,.071-.172.261.261,0,0,1,.174-.065l2.056.1a.9.9,0,0,1-.046,1.8H456m-1.725-.555,1.749.089a.435.435,0,0,0,.044-.869l-1.807-.092Zm2.436-.357h0Z" transform="translate(-333.935 -544.495)" fill="#494a69"/>
        <path id="Path_16131" data-name="Path 16131" d="M248.014,666.69a.233.233,0,0,0,.19-.369,13.42,13.42,0,0,0-2.527-2.383,18.289,18.289,0,0,1-2.092-1.846.233.233,0,1,0-.346.314,18.621,18.621,0,0,0,2.146,1.9,13.106,13.106,0,0,1,2.438,2.289.233.233,0,0,0,.19.1" transform="translate(-162.407 -503.528)" fill="#7f6053"/>
        <path id="Path_16132" data-name="Path 16132" d="M250.435,686.753a.233.233,0,0,0,.111-.439,15.272,15.272,0,0,0-2.973-1.159c-.44-.135-.9-.275-1.385-.447a.233.233,0,1,0-.155.44c.5.176.958.317,1.4.454a14.881,14.881,0,0,1,2.889,1.124.231.231,0,0,0,.11.028" transform="translate(-164.604 -521.998)" fill="#7f6053"/>
        <path id="Path_16133" data-name="Path 16133" d="M286.072,745.618c.813,0,9.075-.033,11.158-1.359,2.192-1.4,2.311-7.376,2.316-7.63a.233.233,0,0,0-.072-.172.22.22,0,0,0-.175-.065l-13.272.764a.233.233,0,1,0,.027.466l13.017-.749c-.047,1.148-.346,5.88-2.091,6.992-2.029,1.292-10.878,1.281-10.958,1.286h0a.233.233,0,0,0,0,.466h.052" transform="translate(-197.109 -564.103)" fill="#7f6053"/>
        <path id="Path_16134" data-name="Path 16134" d="M408.991,262.179a15.153,15.153,0,0,0,10.683,8.838l-.544-6.389c-.815-1.366-1.631-2.732-2.517-4.072a67.326,67.326,0,0,1-7.622,1.623" transform="translate(-297.452 -176.559)" fill="#dd6478"/>
        <path id="Path_16135" data-name="Path 16135" d="M390.144,151.718c8.132,3.617,20.646,3.7,20.646,3.7s-.286,3.458-.4,5.716c-.106,2.151.127,5.05-.008,7.786-.193,3.925-1.678,8.305-6.755,10.4-5.365,2.213-12.479-3.671-14.136-9.4s.649-8.075.649-18.2" transform="translate(-281.086 -87.916)" fill="#fec6bf"/>
        <path id="Path_16136" data-name="Path 16136" d="M414.315,184.214a.358.358,0,0,0,.314-.186,2.381,2.381,0,0,1,1.756-.957,3.778,3.778,0,0,1,2.815.561.358.358,0,1,0,.5-.508,4.394,4.394,0,0,0-3.422-.762A2.955,2.955,0,0,0,414,183.684a.358.358,0,0,0,.313.53" transform="translate(-301.497 -112.829)" fill="#9e95c4"/>
        <path id="Path_16137" data-name="Path 16137" d="M421.866,200.819c0-.741.4-1.342.895-1.342s.895.6.895,1.342-.4,1.342-.895,1.342-.895-.6-.895-1.342" transform="translate(-307.938 -126.813)" fill="#4c3e42"/>
        <path id="Path_16138" data-name="Path 16138" d="M471.584,185.2a.357.357,0,0,0,.248-.1,2.749,2.749,0,0,1,3.7-.207.358.358,0,0,0,.506-.506,3.438,3.438,0,0,0-4.706.2.358.358,0,0,0,.247.616" transform="translate(-348.14 -113.838)" fill="#9e95c4"/>
        <path id="Path_16139" data-name="Path 16139" d="M482.26,201.662c0-.716-.341-1.3-.761-1.3s-.761.581-.761,1.3.34,1.3.761,1.3.761-.581.761-1.3" transform="translate(-355.887 -127.536)" fill="#4c3e42"/>
        <path id="Path_16140" data-name="Path 16140" d="M442.741,251.855c-1.194.125-.994,1.343-1.526,1.805a1.843,1.843,0,0,1-1.412.34c-2.917-.18-4.571-3.252-4.571-3.252s5.24,1.9,7.509,1.107" transform="translate(-318.824 -168.571)" fill="#fefefe"/>
        <path id="Path_16141" data-name="Path 16141" d="M436.606,250.159c.922.079,1.773-.43,3.026-.255a2.332,2.332,0,0,1,1.241.62.629.629,0,0,0,.78.059,1.71,1.71,0,0,1,1.164-.345c.416.069.906.319.739.923a11.474,11.474,0,0,1-2.8.015c-1.009-.207-4.15-1.017-4.15-1.017" transform="translate(-319.943 -167.853)" fill="#dd6478"/>
        <path id="Path_16142" data-name="Path 16142" d="M435.913,251.726c2.021,2.89,4.484,2.694,5.824,2.164l.038-.04a1.754,1.754,0,0,1-.737,1.494,2.87,2.87,0,0,1-1.581.179,5.269,5.269,0,0,1-3.811-4.174Z" transform="translate(-319.161 -169.06)" fill="#dd6478"/>
        <path id="Path_16143" data-name="Path 16143" d="M439.259,250.67a12.537,12.537,0,0,0,1.334-.07.233.233,0,0,0-.05-.464,15.623,15.623,0,0,1-7.6-1.311.233.233,0,0,0-.178.432,17.1,17.1,0,0,0,6.491,1.414" transform="translate(-316.701 -166.989)" fill="#dd6478"/>
        <path id="Path_16144" data-name="Path 16144" d="M464.73,233.55c.062-.012.1.153.044.376a1.443,1.443,0,0,1-.535.792.045.045,0,0,0-.021.015,1.5,1.5,0,0,1-.607.265.98.98,0,0,1-.612-.04c-.063-.033-.084-.062-.072-.1a.081.081,0,0,1,.028-.044,3.848,3.848,0,0,1,.442-.167,2.383,2.383,0,0,0,.482-.253.318.318,0,0,0,.058-.039,2.392,2.392,0,0,0,.545-.565c.111-.149.182-.252.247-.242" transform="translate(-341.379 -154.563)" fill="#dd6478"/>
        <path id="Path_16145" data-name="Path 16145" d="M318.945,289.688s17.973,31.611,31.918,27.852c16.08-4.335,8.316-20.713,4.388-26.752a23.474,23.474,0,0,0-8.856-10.967,5.609,5.609,0,0,1-.612.185c.544,1.8,1.422,6.329-3.791,5.628-6.382-.858-10.435-10.644-10.435-10.644s-2.558.818-3.2,1.6c-3.533,4.291-2.921,7.623-2.921,7.623a7.4,7.4,0,0,0-3.135.931c-.866.56-3.352,4.545-3.352,4.545" transform="translate(-224.114 -188.315)" fill="#83b4df"/>
        <path id="Path_16146" data-name="Path 16146" d="M375.131,344.94a10.385,10.385,0,0,0,7.712-3.165,7.594,7.594,0,0,0,.757-9.31.234.234,0,0,0-.375.279,7.115,7.115,0,0,1-.729,8.719,10.193,10.193,0,0,1-8.734,2.929,17.874,17.874,0,0,1-8.706-3.932c-5.807-4.5-9.5-9.446-10.967-14.7a.233.233,0,1,0-.449.125c1.5,5.355,5.243,10.383,11.13,14.945a18.33,18.33,0,0,0,8.937,4.026,11.966,11.966,0,0,0,1.424.085" transform="translate(-252.364 -229.524)" fill="#141f26"/>
        <path id="Path_16147" data-name="Path 16147" d="M374.137,392.068a7.224,7.224,0,0,0,5.729-2.332.233.233,0,0,0-.363-.294c-1.713,2.11-4.834,2.417-7.184,2a18.189,18.189,0,0,1-10.687-6.915,58.069,58.069,0,0,1-7.554-12,.233.233,0,0,0-.43.183,58.547,58.547,0,0,0,7.619,12.112,18.654,18.654,0,0,0,10.97,7.083,10.958,10.958,0,0,0,1.9.167" transform="translate(-252.363 -267.634)" fill="#141f26"/>
        <path id="Path_16148" data-name="Path 16148" d="M426.9,480.774c2.262,0,5.607-.491,6.8-1.786a.233.233,0,0,0-.344-.316c-1.27,1.382-5.768,1.81-7.7,1.57a16.3,16.3,0,0,1-10.013-4.805.234.234,0,0,0-.315.345,16.918,16.918,0,0,0,10.271,4.924,10.982,10.982,0,0,0,1.3.068" transform="translate(-302.551 -351.52)" fill="#141f26"/>
      </g>
    </g>
  </g>
</svg>
