<?xml version="1.0" encoding="UTF-8"?><svg xmlns="http://www.w3.org/2000/svg" viewBox="0 0 3465.49013 3280.10664"><defs><style>.d{fill:#f96969;}.e{fill:#f28a80;}.f{fill:#fff;}.g{fill:#ffa59d;}.h{fill:#f17785;}.i{fill:#fcdede;}.j{fill:#7f7171;}.k{fill:#a6c8e6;}.l{fill:#c94b5a;}.m{fill:#dd6478;}.n{fill:#dbebfa;}.o{fill:#d80c00;}.p{fill:#16162b;}.q{fill:#3e3e63;}.r{fill:#1b1b30;}.s{fill:#958897;}.t{fill:#87a3b2;}.u{fill:#8a4632;}.v{fill:#9ab8cc;}.w{fill:#4c3e42;}.x{fill:#4b454c;}.y{fill:#5d717f;}</style></defs><g id="a"/><g id="b"><g id="c"><path class="n" d="M3154.34291,3078.44716c-103.66732,13.33753-2861.88153,45.37725-2861.88153,45.37725C18.91728,2985.04005-33.48109,2607.44888,77.7889,2391.71478c111.0306-215.27094,194.79302-154.94537,182.65676-607.73426-21.03979-784.92287,756.74501-401.82481,1037.83874-590.8639,887.59997-596.92141,763.3602,183.43404,1464.28141,187.50534,807.72092,4.69174,362.15987,566.80662,572.40255,869.4526,232.31708,334.42174,118.94307,789.83202-180.62545,828.3726Z"/><g><path class="v" d="M2980.87696,1853.70547h-56.53055v-52.92724h-54.66662v-86.11556h-49.82663v-101.74821h-21.25257v101.74821h-49.82547v86.11556h-54.66908v52.92724h-56.53184v53.90528h-240.68131v134.66924h-148.97344v-277.34827h-167.84505v229.60253h-112.07197v-229.60253l-116.57782,33.01319v-83.28224h-49.82663v-101.74821h-21.25257v101.74821h-49.82676v86.11556h-54.66649v52.92724h-56.53313v38.43151h-148.08987v69.62607h-92.59144v80.51694h-148.97344v-277.34827h-167.84637v229.60253h-112.07067v-229.60253l-245.77826,69.60078v355.43908l-250.99499,3.96146v700.02885s2512.50495-10.67933,2521.9805-27.72211l5.92245-1012.5343Z"/><rect class="f" x="837.24177" y="1839.18458" width="34.11358" height="52.84154"/><rect class="f" x="1773.9137" y="1735.25224" width="34.11474" height="52.84025"/><rect class="f" x="1154.38797" y="1797.8201" width="34.11358" height="52.84283"/><path class="f" d="M1650.53864,1455.19596c-15.53546-3.70863-34.03033-12.79919-32.66278-27.90551,1.22378-13.51627,18.28063-20.47935,32.6149-20.20328,14.3344,.27723,28.83128,4.75727,42.7661,1.57238,18.20616-4.15932,30.24285-19.97897,41.4312-34.19166,11.86271-15.07044,24.97952-29.86663,42.22403-39.19041,17.24464-9.323,39.49667-12.29365,56.91129-3.25678,13.32732,6.91765,22.56088,19.9871,36.66206,25.35948,19.07334,7.26677,40.17464-1.56592,60.13787-6.22497,19.96439-4.6584,46.74124-1.49984,52.78734,17.09519,5.05915,15.55882-7.41868,35.37582,4.19584,47.36888,59.49371,61.43921-57.15715,40.29699-99.60937,43.05404-78.97553,5.12858-159.50628,15.12207-237.45847-3.47735Z"/><path class="f" d="M1640.14932,1579.95806c-11.44299,6.06868-25.55669,8.28443-39.237,10.36403-10.05273,1.52759-20.10687,3.05518-30.1596,4.58406-22.61638,3.43708-46.50557,6.82241-68.3215,1.13059-15.82546-4.12899-29.28004-12.77402-45.48469-15.93749-16.19084-3.16114-33.27415-.51561-49.96408-1.19241-4.76811-.19411-9.60668-.68055-13.93985-2.2044-9.25628-3.25549-14.99094-11.48713-13.33867-19.14135,1.6524-7.65499,10.5482-14.05898,20.68675-14.89143,13.4054-1.09975,29.60385,5.92942,38.95706-1.45828,3.25691-2.57184,4.43151-6.23891,6.69902-9.36534,4.55244-6.28112,13.3197-10.11197,22.12723-12.67245,27.77632-8.07341,50.92947-2.36263,78.74232,.61008,18.87303,2.01713,36.10373-1.25411,54.82292-2.43129,23.81241-1.49933,48.09744,1.13872,56.54449,20.77168,6.34603,14.75346-1.37259,32.94698-18.1344,41.83401Z"/><path class="f" d="M2495.2026,1650.57973c-12.17272,6.45316-27.18508,8.8114-41.73747,11.02212-10.69314,1.62581-21.38744,3.25175-32.08187,4.87639-24.05685,3.65636-49.46873,7.25722-72.67364,1.20235-16.83487-4.39111-31.14655-13.58815-48.38344-16.95335-17.22193-3.36274-35.39285-.54697-53.14781-1.26792-5.07179-.20676-10.21793-.72224-14.82716-2.3443-9.8461-3.46238-15.94769-12.21944-14.18933-20.36152,1.75694-8.14337,11.21984-14.95442,22.00371-15.84043,14.26122-1.1697,31.49192,6.30809,41.4414-1.5516,3.46354-2.73498,4.71377-6.63462,7.12364-9.96083,4.8449-6.68121,14.1679-10.75728,23.53892-13.47974,29.54578-8.58825,54.17373-2.51325,83.75861,.64777,20.07538,2.14645,38.40519-1.33348,58.31666-2.5863,25.32864-1.59432,51.16011,1.21255,60.14664,22.09587,6.75194,15.69291-1.45945,35.04619-19.28887,44.50148Z"/><path class="f" d="M997.3771,1623.95413c-12.42736,6.58932-27.75231,8.99544-42.60851,11.25405-10.91858,1.65859-21.83474,3.3186-32.75219,4.97719-24.56113,3.73328-50.50359,7.40977-74.19364,1.22894-17.18656-4.48443-31.79816-13.87183-49.39568-17.30762-17.58111-3.43205-36.13264-.55833-54.25814-1.29566-5.17892-.20921-10.43217-.73863-15.1373-2.39219-10.05144-3.53659-16.28157-12.47524-14.4868-20.78755,1.79486-8.31347,11.45564-15.26701,22.46638-16.17187,14.55613-1.19358,32.1473,6.43922,42.30599-1.58309,3.53659-2.79306,4.81212-6.77452,7.27232-10.17005,4.94583-6.82112,14.46539-10.98172,24.03052-13.76213,30.16463-8.76713,55.30551-2.56487,85.50935,.663,20.49626,2.19059,39.20925-1.36252,59.53669-2.64115,25.85922-1.62774,52.2302,1.23707,61.40449,22.55765,6.893,16.02203-1.49223,35.77978-19.69348,45.43048Z"/><rect class="f" x="2099.86998" y="2121.32741" width="34.11345" height="52.84025"/><rect class="f" x="2306.88517" y="2227.01798" width="34.11345" height="52.84154"/><rect class="f" x="1855.49695" y="1839.18458" width="34.11345" height="52.84154"/><rect class="f" x="1606.20468" y="2081.83719" width="34.11358" height="52.8427"/><rect class="f" x="865.93818" y="2081.83719" width="34.11345" height="52.8427"/><rect class="f" x="1520.7596" y="1962.54066" width="34.11358" height="52.84025"/><rect class="f" x="2792.17014" y="1735.25224" width="34.11216" height="52.84025"/><rect class="f" x="2911.42241" y="1881.18933" width="34.11345" height="52.84283"/><rect class="f" x="2174.942" y="1797.8201" width="34.11487" height="52.84283"/></g><path class="t" d="M3465.49013,3005.61106c0,176.78429-925.90044,244.78106-1103.60368,255.8557-206.48897,12.72346-419.72716,18.63988-629.15237,18.63988-251.471,0-515.87998-8.55198-768.69063-28.42435C803.33621,3239.07173,0,3167.64738,0,3005.61106c0-113.32038,433.51295-210.60826,1052.16387-252.52395,226.53481-15.10517,452.60603-21.97162,680.57021-21.97162,220.68069,0,449.98955,6.55869,674.92917,21.59462,621.66202,41.70825,1057.82688,139.23754,1057.82688,252.90096Z"/><g><g><path class="o" d="M3009.54292,859.81163c-3.03328,6.162-6.38936,12.11449-10.01704,17.78686-.62931,.98859-1.26716,1.97563-1.91355,2.94637-24.71863,37.12178-59.48145,64.05193-93.59633,90.29224-19.36053,14.89325-38.71253,29.78806-58.07383,44.67355-4.00325,3.07673-9.57085,3.07673-13.5741,0-19.36053-14.88549-38.71253-29.7803-58.07383-44.67355-34.11489-26.24031-68.87693-53.17046-93.59556-90.29224-.64716-.97074-1.28501-1.95778-1.91433-2.94637-3.6269-5.67236-6.98453-11.62485-10.0085-17.78686-16.6423-33.78354-23.65244-73.92076-12.12381-109.79322,15.17493-47.19081,63.55453-77.75717,107.56463-67.95896,37.95207,8.44336,68.60612,46.00279,74.93418,88.30808,6.33737-42.30528,36.99064-79.86471,74.94349-88.30808,44.00932-9.79821,92.3897,20.76815,107.56308,67.95896,11.52941,35.87246,4.51927,76.00968-12.11449,109.79322Z"/><path class="f" d="M3009.54292,859.81163c-3.03328,6.162-6.38936,12.11449-10.01704,17.78686h-92.13595l-10.01704,71.8233c-.73407,5.46285-5.3061,9.43118-10.83802,9.43118h-.07915c-5.57614-.01707-10.13033-4.03816-10.82095-9.59724l-19.44822-153.57518-27.8652,88.18547c-1.45107,4.58911-5.6646,7.67437-10.53228,7.67437-4.93053-.0613-9.11691-3.25133-10.43684-7.93665l-7.596-26.07348-4.94683,13.01462c-1.60006,4.22207-5.74298,7.0536-10.27078,7.0536h-105.75428c-3.6269-5.67236-6.98453-11.62485-10.0085-17.78686h111.07746l10.55867-27.6293c1.59152-4.21353,5.71659-7.04506,10.23586-7.04506h.46326c4.71093,.2002,8.76695,3.37393,10.08688,7.90096l6.94884,24.01171,30.43522-96.34095c1.46814-4.59764,5.6646-7.66584,10.43684-7.66584,.34065,0,.66346,.01785,1.01342,.04345,5.1835,.45472,9.25658,4.39744,9.8859,9.54525l16.92242,133.5931,3.75804-26.95653c.73407-5.39224,5.41086-9.45679,10.85664-9.45679h108.08763Z"/></g><path class="k" d="M2693.91816,1058.87824c-94.73624-60.03317-145.03792-170.74669-124.73614-281.66508,18.17252-99.2912,94.96205-183.56267,192.23805-210.66586,98.92261-27.56179,207.23916,2.77954,276.06721,79.38051,69.37821,77.21399,88.56415,189.02086,49.38837,285.10885-44.01941,107.97124-154.9021,174.37437-270.325,167.22843-26.21858-1.62411-29.20065,39.11138-2.91688,40.73937,117.09979,7.24992,231.95779-51.04972,291.42061-153.14452,60.10223-103.19357,56.21538-233.9016-10.57263-332.96466-66.54901-98.70922-185.85799-150.7421-303.53355-134.26043-115.097,16.12007-214.45649,99.85223-251.12898,209.90075-45.38512,136.18717,10.31268,287.55782,131.01842,364.04782,22.20059,14.06762,45.31451-19.61583,23.08055-33.70517h0Z"/></g><g><path class="l" d="M1279.67674,644.53419c-33.56705-38.71563-100.67321-44.9529-141.17901-13.56789-34.23982,26.53052-47.88298,71.63241-54.56566,114.42966-6.68346,42.79647-8.6878,87.3932-27.42988,126.44561-22.08109,46.00823-66.19905,81.56642-76.20678,131.60893-9.45679,47.28781,15.80425,96.74756,53.84245,126.38974,38.03743,29.64295,86.73984,42.25562,134.68179,47.46318,44.39498,4.82267,90.35587,3.73476,132.23902-11.75599,41.88238-15.49153,79.34326-46.97199,94.37153-89.02275,13.23267-37.03177,8.19816-78.06833-1.18414-116.25786-9.38307-38.18952-22.982-75.61781-26.64692-114.77187-3.67035-39.21303,2.72289-79.35878-5.87101-117.79273-8.59468-38.43473-42.73207-85.4362-82.05141-83.16803Z"/><path class="g" d="M1367.68917,968.11346c-11.54183,12.89435-26.26902,3.48179-42.82596,7.66506-21.05758,5.24635-42.50626,19.36208-63.38459,8.9912-4.34623-21.02577-14.4137-70.8867-21.1476-91.3592-.16063-.51137-.30651-.99014-.48343-1.45029-5.23316-15.93073-11.14608-31.70161-17.76047-47.17917-.65337-1.53875-1.33855-3.1458-2.06021-4.65196-.09855-.20563-.1614-.42834-.25995-.63319-.96453-2.27515-1.94459-4.49909-2.97663-6.74088-2.53976-5.47527-5.07952-10.86673-7.72171-16.29311-1.13137-2.36206-2.27981-4.67446-3.47946-7.00316,3.41583-17.29411,4.13283-35.56751,2.20144-53.75011,19.35122,3.23115,38.48439,8.29205,56.78727,17.32826,5.53502,14.98404,11.94921,30.2195,19.26353,45.48988,.21339,.52921,.4423,1.00799,.68906,1.52091,9.1495,19.10368,22.07954,43.46614,33.80527,62.93608,3.20477,5.28283,6.10381,10.33208,9.19528,14.53631,35.0996,47.74563,26.30549,55.55347,40.15816,70.59338Z"/><path class="h" d="M1230.79974,834.21541c31.57435,61.30343,89.96012,65.07699,96.74911,63.30544-13.08136-20.61994-30.58266-53.5794-42.21139-77.85572-7.56031-15.78329-14.333-31.4758-20.30489-46.84938-16.35984-9.97126-33.19148-16.13171-50.09062-20.54234,2.8742,17.75271,3.46317,35.39447,1.64429,51.93045,1.20198,2.30697,2.35197,4.63954,3.47481,6.98453,2.63831,5.4388,5.17807,10.80853,7.70929,16.29621,1.05067,2.26196,2.04624,4.47426,3.0294,6.73079Z"/><path class="g" d="M1340.0816,848.2644c-13.37467,22.87336-52.60089,30.66336-78.63247,25.67695-26.03002-4.98485-43.19843-17.27472-60.72921-37.20015-.98704-1.18646-2.03305-2.37215-3.02242-3.61759-.5975-3.07829-1.3145-6.15114-2.20532-9.21623-2.33646-8.15703-5.60175-16.15654-8.6327-24.10794-5.07021-13.25129-9.69889-27.16527-8.53958-41.26625,1.43089-17.33214,11.49527-32.68865,24.39737-44.65183,26.80444-19.65773,60.67722-37.40656,71.52766-42.92528,1.90113-.96686,4.21819-.1226,5.06167,1.83828l13.12636,30.49419,.0031,.05897c1.65282,4.49521,3.53844,8.92524,5.65064,13.16749,10.8256,21.9647,26.1759,41.57276,36.19837,63.92234,9.96427,22.35501,18.07319,46.63909,5.79652,67.82704Z"/><path class="g" d="M1186.09593,792.55108c-1.92752-4.81336-5.13151-10.03256-10.28397-10.6223-5.0834-.58198-9.43351,3.74873-11.80178,8.28507-6.08751,11.65201-4.07541,27.01783,4.8056,36.71284,8.88101,9.69113,24.01559,13.03713,36.15492,7.98787-5.45432-14.06607-13.26449-28.35949-18.87477-42.36348Z"/><path class="m" d="M1279.70856,783.39305c-.03414,.75114,2.06952,1.05222,4.71171,.07993,2.77488-.89935,6.22718-3.13416,8.81195-7.32208,.00233-.06829,.07837-.20098,.14976-.26693,1.48832-2.66702,2.08582-5.23549,2.19135-7.55487,.22193-3.33979-.68208-6.04794-1.58221-7.25147-.51447-.70614-.91487-.92962-1.3339-.74416-.20718,.05897-.34919,.18856-.49585,.38721-.45006,.86831-.68286,2.97663-1.27492,5.47915-.49662,1.8926-1.1399,3.98152-2.25963,6.04949-.0807,.27004-.22814,.46869-.37635,.73407-1.71723,3.20244-4.14835,5.48535-6.0037,7.17775-1.63963,1.49608-2.77643,2.47147-2.53821,3.23193Z"/><path class="e" d="M1536.47964,3138.12249c85.74504,24.27787,171.86409,30.7976,259.90679,19.62126,10.67894-1.36571,15.71035-13.90854,8.87869-22.22775-13.72153-16.70282-30.32115-12.63207-49.44501-18.59154-7.76128-2.48544-24.69069-22.25957-32.57613-24.43307-18.8771-5.40233-31.47658-12.73372-47.49887-23.10227-26.26359-17.01244-42.21993-45.01576-48.92666-73.88739-6.70596-28.87086-5.02831-58.79859-1.79948-88.10632-16.7649,3.04337-34.83344,.37402-49.67237-7.38726-19.62126,50.66484-32.535,109.83668-37.25292,167.02125-2.1122,24.33995-2.67245,48.30666-1.61402,71.09311Z"/><path class="e" d="M845.80996,3022.53197c3.58344,22.89509,7.28484,45.79095,10.9839,68.68604,2.54519,15.90047,5.37749,32.66537,15.55438,45.27028,14.5107,17.9211,39.77639,22.54745,62.78709,24.4579,30.52756,2.65848,61.22739,2.71513,91.81315,.40351,13.64471-1.09955,16.76568-20.17841,4.0467-25.20827-.1164,0-.23202-.05897-.34686-.1164-10.40813-4.0467-21.73889-5.37672-32.26109-9.07733-11.56433-4.04748-22.08575-11.0421-30.41272-19.94717-1.1562-1.21207-2.31162-2.48467-3.29556-3.81391-8.26722-9.88667-14.04977-21.91348-16.36139-34.57581-4.97166-27.11483,5.02986-54.80776,18.21209-79.03442,13.12481-24.28408,29.71667-46.77256,39.71896-72.44331-25.26491-.23124-51.16612-2.13936-73.77255-13.58651-9.3078,18.61715-17.11642,25.5753-36.60033,34.65263-4.39278,2.02607-22.25724,4.14137-26.24574,6.51197-7.22664,4.33691-13.64471,9.53981-18.27106,16.47779-11.6784,17.51837-8.84532,40.52908-5.54898,61.34301Z"/><path class="g" d="M1377.85675,1010.91382c2.91533,10.82793,7.74576,22.32164,14.32524,34.14903,2.99836,5.49622,6.66328,11.41069,11.65977,18.90659,3.99859,5.91292,8.66296,12.1595,14.74194,19.6554,10.24362,12.99212,23.07046,26.65158,38.2291,40.97759,16.9069,15.49075,33.06499,28.81732,49.47217,40.64315,19.73998,14.24144,39.81208,27.23511,59.71734,38.48051,21.57128,12.32633,44.47568,23.90153,68.04586,34.47959l2.58166,1.33235c7.41287,3.91401,15.74139,5.91447,24.07069,5.83144,6.57948,0,13.15973-1.3339,19.15567-3.91556,4.33148-1.91588,8.41233-4.32993,12.07647-7.41287l13.24276-10.57729v-.16761c.99945-.9979,6.74631-7.49435,15.74139-18.48911,.24986-.24986,.4167-.49895,.66578-.74959,5.74686-6.9954,20.90549-26.31868,20.9893-26.48552,51.22121-72.29199,103.85858-197.39051,103.85858-197.39051l-32.81435-26.48396c-5.08107,7.57815-10.57807,15.48998-16.49098,23.65244l-8.74522,12.07647-9.66242,12.65923c-4.16387,5.49855-8.57761,10.82793-13.24198,16.49176-2.4156,2.91456-4.7474,5.74686-6.91315,8.49458-14.07538,16.49098-29.56691,34.06445-46.64064,51.05593-3.58189,3.66337-8.16246,8.32852-12.82606,12.57542l-13.15973,12.57775c-2.99836,2.58166-5.82911,5.16333-8.74444,7.82802-5.74686,5.16488-11.74358,10.49349-17.90713,15.57533-8.41233-6.74631-16.99071-13.65946-25.90199-21.15458-11.49449-9.41178-22.4877-18.65672-33.1488-27.73561-4.49754-3.74717-8.82825-7.41132-13.24353-11.07624-.74881-.58353-1.4984-1.25009-2.24799-1.91665-5.24713-4.2469-10.24362-8.57761-15.15786-12.65923-9.91073-8.41233-19.40631-16.40718-28.65126-23.73702-12.5762-10.41046-25.48606-20.48802-39.31235-30.73242-6.07897-4.41374-11.82583-8.32852-18.15622-12.74381-5.66383-3.8302-11.07624-7.0792-17.15754-10.74335-11.74203-6.91392-21.90417-11.74435-31.14834-15.07561-10.16059-3.49809-18.74053-5.32938-26.15262-5.24558l-.74959,.08303c-8.91128,.16528-16.32492,2.74695-21.9872,7.57815-5.9975,4.99649-9.57861,11.99267-10.91096,20.90549-1.16629,8.41155-.41592,18.32228,2.49863,28.48287Z"/><path class="s" d="M895.15177,2917.49546c17.39189,37.98466,77.39867,76.82212,109.86616,85.34852,216.88373-321.06201,339.27177-709.17587,413.56965-1088.65003,93.21223,352.87458,87.4708,735.55275,88.97464,1064.72989,26.6733,2.25886,98.4935,4.12585,125.16603,6.34901,108.84343-451.58691,96.12756-1004.45772-46.27439-1446.16882,0,0,17.7822,54.71077-.11019-.4004-17.89394-55.11194-62.95936-133.98651-62.95936-133.98651l-110.18974-2.51571-47.58888-14.31981-37.27775,12.38919-53.15416,85.5526c-7.1987,12.26193-13.78439,29.63131-21.25468,47.34057-21.13363,50.1752-33.04947,103.26729-42.1594,157.05154-3.97065,23.46543-7.36011,47.04182-10.31191,70.65313v.03725c-2.04003,16.17982-3.82555,32.39378-5.46518,48.64654-14.50294,145.68121-92.07232,746.17892-300.83084,1107.94306Z"/><path class="i" d="M1370.86756,938.94929s78.21267,4.79163,184.17491,99.08867c0,0,10.70222,61.75272-54.65567,124.43118l-129.51924-223.51985Z"/><path class="i" d="M1520.11592,1210.25357c5.81747,54.46478,6.11855,124.26435,3.92953,196.7837q-.07605,.07527-.15131,.15131c-26.13788,7.10093-54.16293,11.7847-83.54903,13.82474-39.35658,2.79428-83.85166-2.41871-118.14502-9.14096-15.71346-67.08055-32.03062-142.54627-75.23991-198.97427-2.7935-3.39954-5.51484-6.49722-8.23385-9.29228-11.48208-11.7847-22.35967-24.17312-31.87853-37.54313-60.88596-86.04146-58.92197-140.65833-39.43185-174.65139,21.75596-37.84576,65.41764-49.93232,68.13743-50.53603l.15131-.07605c5.6646-2.03848,11.48208-3.55008,17.44931-4.45719,.60604-.07527,1.20974-.15131,1.81345-.22658,31.12351-3.77744,58.54407,2.4932,89.89417,1.51237,8.53648-.22736,16.92087,.14976,25.22922,1.20819,.22736,0,.52999,.07527,.75657,.07527,0,0,.15209,.07527,.37712,.15131,2.79506,.83107,5.44035,1.73663,8.15858,2.64374,20.4725,8.15781,73.65227,38.22289,110.81828,138.69202,0,0,65.19184,74.40885,29.98981,129.85523h-.07527Z"/><path class="r" d="M845.80996,3022.53197c3.58344,22.89509,7.28484,45.79095,10.9839,68.68604,2.54519,15.90047,5.37749,32.66537,15.55438,45.27028,14.5107,17.9211,39.77639,22.54745,62.78709,24.4579,30.52756,2.65848,61.22739,2.71513,91.81315,.40351,13.64471-1.09955,16.76568-20.17841,4.0467-25.20827-.1164,0-.23202-.05897-.34686-.1164-10.40813-4.0467-21.73889-5.37672-32.26109-9.07733-11.56433-4.04748-22.08575-11.0421-30.41272-19.94717-1.1562-1.21207-2.31162-2.48467-3.29556-3.81391-4.02808,1.05377-19.23405-5.38991-34.41596-2.59097-20.86282,3.84495-41.55492-6.9535-48.38969-27.03801-.26771-.78606-.52611-1.57445-.77365-2.36206-12.66311-40.29939-20.66106-85.26083-11.46966-126.48441-7.22664,4.33691-13.64471,9.53981-18.27106,16.47779-11.6784,17.51837-8.84532,40.52908-5.54898,61.34301Z"/><path class="r" d="M1536.47964,3138.12249c85.74504,24.27787,189.47093,29.53742,277.5144,18.3603,10.67894-1.36649,17.16841-15.36039,8.87946-22.2293-32.14857-26.63683-70.81221-29.67244-99.62953-41.7621-30.61137,23.96748-65.69001,32.65528-103.87643,25.20516-32.03761-6.27219-61.34378-24.96151-81.27388-50.66717-2.1122,24.33995-2.67245,48.30666-1.61402,71.09311Z"/><path class="x" d="M1402.09677,1984.05617c-.98303,0-2.08299-.51786-2.73834-1.28757-.56412-.66306-.76458-1.44434-.61295-2.38497,7.3862-46.61866,16.89009-95.8086,30.81825-159.5101,3.10714-14.23013,6.81695-28.79308,10.40468-42.87672,4.19297-16.45833,8.52729-33.47692,12.01736-50.36958l1.53686-8.07368,.10409-.11051,.21331-1.13851c4.19811-22.36806,6.16031-42.01063,5.99711-60.05209-.00643-1.06912,.41377-1.4906,.55127-1.62938,.44975-.45104,1.20662-.72089,2.02517-.72089,.79156,0,2.63426,.23516,2.64582,2.4081,.12079,15.60894-1.34668,32.22147-4.48338,50.79363l-1.48675,8.79971,7.51085-4.82005c18.50534-11.87472,32.53887-28.63631,46.11108-44.84535,5.3816-6.42759,10.94566-13.07363,16.73461-19.35858,.71575-.76972,1.26187-.76972,1.44177-.76972,.94833,0,2.07143,.86738,2.55844,1.97634,.65021,1.48289-.22231,2.43123-.50886,2.74348-6.04723,6.53553-11.81818,13.37561-17.39895,19.99081-16.82713,19.94455-32.72134,38.78399-55.9632,50.2912l-1.72448,.85453-.38936,1.88382c-3.36029,16.25658-7.50699,32.70977-11.5162,48.62069-3.30503,13.11732-6.72314,26.68182-9.67479,40.03687-10.03588,45.75128-22.82167,106.19915-32.69821,168.12348-.16705,1.06784-.53842,1.42507-1.47518,1.42507Z"/><path class="g" d="M1352.96819,938.94929s84.41192,123.78247-99.81576-2.58399c0,0,23.41266-54.18698,99.81576,2.58399Z"/><path class="j" d="M1478.26613,1048.98927c35.82746,51.46487,73.17893,114.11307,37.06281,175.37304-2.04081,3.46084-7.44236,.32203-5.39457-3.15278,34.93509-59.25564-2.78885-119.83509-37.06203-169.06749-2.30154-3.30797,3.1101-6.43282,5.39379-3.15278Z"/><path class="g" d="M1893.90996,903.37635c-18.93918,5.41319-37.86516,10.85354-56.85168,16.28147,10.49581-20.70064,12.41635-26.46922,7.74421-35.46973-.87607-1.68697-3.21874-1.91665-4.41684-.4423-4.61704,5.68788-10.45469,12.9409-16.39088,20.79996-17.75737,23.50966-23.91006,53.80521-17.02408,82.45103h0c10.60135,.25374,38.07623-1.91045,48.60618-1.68153,6.81072,.13502,13.71688,.22193,19.8913-2.52114,1.27492-.5556,2.45673-1.24078,3.59896-1.98416,.46326-.15287,.93505-.35462,1.41693-.62854,8.23773-4.68145,13.36381-9.10372,18.34245-17.14978,4.25078-6.87124-.71545-.84038,4.35709-7.87613,2.63055-3.6494,4.94062-6.37074,6.10148-10.85509,.7395-2.85248,.5975-6.40643,1.48211-8.40069,1.05377-2.37215,3.69441-4.24535,4.683-6.86271,1.69938-4.50064,1.79172-10.38252,.10476-15.27038,2.74384-4.01644,3.92254-8.59158-.53387-12.76709-5.56683-5.21687-14.25385-.98393-21.11113,2.37681Z"/><path class="q" d="M1120.00629,764.53069l67.99387-30.97685c4.24613-1.9345,9.25814-.06053,11.19264,4.18638l62.25478,136.645c1.9345,4.24613,.05975,9.25658-4.18715,11.19186l-67.9931,30.97607c-4.24613,1.93528-9.25658,.06208-11.19109-4.18405l-62.25478-136.64577c-1.93528-4.2469-.06053-9.25736,4.18482-11.19264Z"/><path class="g" d="M1143.90239,925.29604c-4.41451,39.227-16.65704,172.4034,6.91237,277.34523,8.07943,36.14794,39.8113,60.46693,70.6283,51.3896,1.41615-.41592,2.7485-.8334,4.16465-1.41693,3.33125-1.33157,6.32961-2.83153,9.16192-4.41451,7.74421-4.41296,13.74249-9.91073,17.82333-16.73929,.49973-.74881,.83184-1.49996,1.24854-2.24955,4.83121-9.24417,6.66328-20.73788,5.41396-35.22996-1.25009-16.24189-3.83098-36.22941-6.91315-56.63518-1.8313,0-45.05766-191.81048-57.8845-249.36364,5.99672-9.7439,19.65618-19.98752,25.15317-26.98447,6.57948-8.3293,12.99212-17.40663,15.82442-27.73483,5.1641-19.32173-5.74686-49.5552-18.73898-64.21333-2.74927-3.16597-8.08021-4.41606-12.07802-3.16597-20.40499,6.41419-47.47326,32.98274-58.88317,50.80607-16.24189,25.31923-7.57971,54.7193,.66578,81.28862,.49973,1.66524,1.24932,2.99758,2.16574,4.16387-2.24877,7.57893-3.74795,15.32392-4.66437,23.15426Z"/><path class="l" d="M1273.22297,717.49507c8.19428-3.59974,16.57867-6.21244,25.40614-7.72714,3.89151-.66811,5.56295,5.28903,1.64351,5.96103-8.25791,1.41848-16.25353,3.73166-23.93024,7.10481-3.6075,1.58531-6.75795-3.74019-3.11941-5.3387Z"/><path class="l" d="M1221.0962,748.55418c6.63612-6.00603,13.76576-11.13289,21.66207-15.36117,3.48102-1.86389,6.94962,3.25986,3.44299,5.13617-7.38649,3.95591-14.24066,8.67693-20.45776,14.30351-2.92232,2.64374-7.59367-1.41227-4.6473-4.07852Z"/><path class="o" d="M1087.84376,0h-407.21521c-15.0469,0-27.21571,12.16959-27.21571,27.15441V411.63826c0,15.0306,12.18511,27.21493,27.21571,27.21493h327.45293c2.7097,0,5.31076,1.07705,7.22819,2.99448l82.29816,82.29972c6.44135,6.43903,17.45086,1.87863,17.45086-7.22819V27.15441c0-14.98482-12.16804-27.15441-27.21493-27.15441Z"/><g><path class="f" d="M851.047,48.11732l49.82601-.08225c10.7612-.01707,19.49788,8.69168,19.5165,19.4521l-12.61189,192.16743c.01319,7.58048-6.12165,13.73705-13.70291,13.74869l-35.10115,.05897c-7.58048,.01242-13.73705-6.12243-13.74869-13.70291l-13.62919-192.12398c-.01785-10.76042,8.69012-19.49865,19.45132-19.51805Z"/><path class="f" d="M876.6223,310.11225c17.27316-.02871,31.30043,13.95122,31.32914,31.22439,.02871,17.27394-13.95122,31.29965-31.22439,31.32914-17.27394,.02871-31.29965-13.95122-31.32837-31.22439-.02949-17.27316,13.94967-31.30043,31.22361-31.32914Z"/></g><path class="w" d="M1292.87217,730.24509c.68596-1.21983,2.67866-1.41072,3.71148-.59828,2.20532,1.7312,3.39488,4.65041,3.19856,7.42994-.10088,1.43167-1.55815,2.49941-2.94094,2.34189-.64173-.07294-1.1787-.37402-1.58221-.80003-2.38767-1.75913-3.84184-5.78876-2.38689-8.37353Z"/><path class="w" d="M1236.61644,751.40898c.97074-1.72576,3.78908-1.9927,5.25101-.84659,3.12096,2.45052,4.8025,6.58025,4.5247,10.51133-.14123,2.02529-2.20376,3.53611-4.15999,3.31418-.90944-.1032-1.66834-.52921-2.23713-1.13214-3.37859-2.48855-5.43569-8.18807-3.37859-11.84678Z"/><path class="m" d="M1297.60172,802.67676c.19943-.23124,.43377-.42679,.66889-.61923,.01552-.10553,.00931-.21262,.03181-.3166,.7201-3.38712,3.96522-5.18505,7.23129-4.69464,4.13361,.62,7.92889,2.71668,9.11148,6.98221,1.3176,4.75128-1.90501,9.86572-6.9566,10.20327-.24986,.0163-.54629,.03725-.85279,.05199-1.92053,1.44564-5.04615,1.50384-7.05127,.54629-4.7055-2.24644-5.40698-8.41155-2.18281-12.15329Z"/></g><g><path class="p" d="M2213.65749,2980.92038c.25142-1.81655-12.05086-141.60347-11.94766-144.35662,.43998-11.90188,29.38455-14.83738,44.16995,9.53438,29.14478,48.03817,59.30298,16.43046,60.30476,36.95883,3.88918,79.75763,26.1728,180.08631,5.24247,208.49313-14.57743,19.78188-75.0886,33.86037-111.22489,32.88652-36.13552-.97074-44.64795-11.30205-8.9687-77.73699,13.34829-24.85985,19.68799-45.97564,22.42407-65.77925Z"/><path class="g" d="M1885.26874,1078.98992v187.91665l-136.12742,55.711c-4.80871-8.7879-7.35157-17.29955-7.40744-25.69946,0-.88539,.05587-1.71335,.05587-2.59873,.49817-64.88533,8.84377-176.30809,8.84377-176.30809l134.63523-39.02136Z"/><path class="g" d="M2389.48991,1270.83066c-2.76402,9.39548-16.19456,5.30533-15.91676-3.48179-31.89095-18.0181-65.16312-37.9707-91.85893-63.33881-19.61971-18.57137-25.58849-41.01018-29.8447-65.60543h-14.59062c-5.52726-42.83294-17.35464-94.2885-17.35464-94.2885l13.92794-9.56154c-2.04547-12.43575-3.869-24.87149-5.30533-37.30646-2.48777-21.22364-.60914-39.02059,21.72027-46.15023,21.00249-6.74321,71.7395-14.81255,91.13805-.16606,7.79387,5.74763,9.78269,17.5207,12.43575,26.08744,6.41187,20.72624,12.76786,41.34152,19.12386,62.06777,24.09707,78.20568,40.18067,151.05017,16.52513,231.74362Z"/><path class="p" d="M1979.63484,2928.47468l8.86161,159.91721s-109.03432,18.10889-246.98761,2.00046c-7.80551-.91254-11.465-10.19551-6.49722-16.28535,14.46414-17.72556,40.08445-22.28595,61.88929-29.91842,25.3394-8.8686,28.63496-6.28228,53.65389-16.01531,34.1498-13.28544,43.84792-55.87783,49.27973-92.11578,24.60456-9.02457,53.59259-7.34071,79.80031-7.58281Z"/><path class="s" d="M2336.21081,2930.73121c-30.6199,14.03891-65.10803,21.88632-101.47479,21.88632-15.0337,0-29.73452-1.32614-43.99458-3.9241-93.62582-400.36958-138.28385-1102.01229-138.28385-1102.01229-.11019-2.21152-.66268-10.00385-.82796-12.98902-31.55961,397.82826-72.12671,864.96412-23.65554,1123.62392-22.27353,6.79753-64.22265,10.38951-88.92886,10.38951-25.4783,0-50.07277-3.81313-72.95467-11.05374-13.54151-97.71598-28.29819-233.56638-34.37716-397.77239-16.91311-455.91606,9.61586-722.64521,10.39028-731.70858,8.18031-104.40409,19.56461-195.04552,24.98168-235.50321,139.60922,6.19071,280.21478-11.10806,414.24242-50.73701-13.81698,219.19768-12.15872,658.092,13.6517,985.67218,9.67251,121.37152,22.99209,255.84069,41.23134,404.12839Z"/><path class="x" d="M2307.7521,2885.53105c-2.67152-.00129-3.06859-2.12668-3.19837-2.82572-14.03096-75.2267-19.44339-153.68389-24.67593-229.55823-1.60625-23.28042-3.26648-47.35368-5.14901-70.88467-9.71463-121.53824-16.84255-219.70611-22.43103-308.94192-11.14869-177.99745-15.67576-324.8387-14.24427-462.11952l.01542-1.4482-.92649-1.11538c-30.08194-36.22169-50.73452-77.41506-61.38207-122.4326-.33796-1.42378-.11051-2.64839,.67334-3.64042,.93677-1.18349,2.58928-1.94935,4.20839-1.94935,1.92237,0,3.13284,.99331,3.59673,2.95037,8.91921,37.72257,24.7466,72.44209,47.04142,103.19609l6.9493,9.58613,.19404-11.83874c.7967-48.63868,2.35541-95.89084,4.63244-140.44578,.2146-4.2071,4.38315-4.32789,4.85731-4.32789,1.29785,0,2.48905,.43819,3.18681,1.17321,.62066,.65278,.89179,1.55228,.83011,2.75119-9.14794,179.09228-6.42759,375.81866,8.56198,619.10973,5.53066,89.78194,12.39129,185.10609,22.24856,309.08327,1.95578,24.60268,3.65969,49.82217,5.30835,74.21026,5.2184,77.19532,10.61542,157.01719,24.90466,233.63555,.27628,1.48161-.02827,2.7679-.90721,3.82546-1.01258,1.21947-2.69851,2.00718-4.29448,2.00718Z"/><path class="u" d="M1987.80583,478.36106c69.56056-6.85728,60.28924,112.15218,39.50324,184.30294-10.30725,35.78012-66.4753,62.3153-95.39659,63.47616,23.99775-47.66726,60.91157-96.14541,57.08524-155.07747,13.09222,1.11119-12.42876-84.40726-1.19189-92.70164Z"/><path class="g" d="M1899.92765,855.498c46.20222,8.76229,95.27554-1.2144,135.01158-26.22246-27.14199-41.44473-38.82815-124.22632-33.55696-173.61779-21.5317,12.79037-43.46924,23.9411-65.36876,35.32773-15.92685,8.38905-31.85603,16.78352-47.52137,25.98812,5.22773,23.08675,10.7806,56.52344,13.75723,87.10144,1.66834,15.99203-2.26274,39.0493-2.32171,51.42297Z"/><path class="m" d="M1902.24936,804.07503c79.62183-35.71649,90.60418-114.98759,90.60418-114.98759l-56.84004,1.89803c-15.92685,8.38905-31.85603,16.78352-47.52137,25.98812,5.22773,23.08675,10.7806,56.52344,13.75723,87.10144Z"/><path class="u" d="M1816.89774,506.00511c-12.43807,14.63796-23.97292,44.09468-6.03552,78.29181,8.20436,15.64284,21.21821,28.78938,37.07134,36.5786-5.88964-28.56668-10.83181-57.28777-16.72067-85.8529-9.36444,.84426-5.26653-26.46379-14.31515-29.01752Z"/><path class="g" d="M1867.65647,754.93498c28.15076,16.48555,73.56769,2.73143,97.34506-17.03494,23.77737-19.76559,33.82002-42.23001,39.45436-72.89259,.27547-1.7956,.61457-3.62147,.8559-5.47992-1.31062-3.55861-2.49475-7.17698-3.49421-10.88535-2.69418-9.84865-4.33148-20.05192-6.18218-30.07362-3.06199-16.71213-6.99385-33.87123-17.02563-47.99394-12.33797-17.35464-3.32194-57.17914-24.14829-62.50309-40.01694-5.61494-115.17615,24.0831-129.8467,24.36323-2.57158,.04966-4.43546,2.23092-4.08007,4.75439l5.53967,39.27433,.03337,.06363c1.10809,5.63279,1.9345,11.32533,2.4094,16.94803,2.57468,29.05632-1.00644,58.1685,2.63753,87.17904,3.7076,28.97949,10.54082,58.94758,36.50178,74.28081Z"/><path class="g" d="M1990.77083,611.65463c-.76899-6.03319,5.96801-17.53467,11.53639-21.32762,5.49467-3.74252,13.1993-2.09513,18.74596,.98859,14.25385,7.92346,15.19666,28.87784,10.99088,44.1358-4.2081,15.25718-19.56461,28.02194-36.68724,30.49497-2.45828-17.52147-2.34422-36.73457-4.586-54.29174Z"/><path class="m" d="M1890.36921,653.18937c.53387,.56879-.91022,2.10134-3.63854,2.96655-2.78109,1.00489-6.99385,1.37658-11.84601-.32048-.04811-.05199-.19787-.11096-.2972-.11872-2.96732-1.17715-5.16721-2.82609-6.81692-4.58445-2.42724-2.48544-3.54775-5.16953-3.65328-6.67027-.07372-.87219,.08924-1.29432,.54241-1.40762,.20253-.07915,.40118-.06596,.64949,0,.9397,.40428,2.54442,1.91743,4.69774,3.51749,1.66601,1.18026,3.57956,2.42492,5.85239,3.35919,.24676,.16295,.49429,.22814,.78994,.34531,3.50895,1.4565,6.95272,1.75215,9.54913,1.93916,2.29533,.16451,3.84417,.22814,4.17086,.97385Z"/><path class="u" d="M1939.07627,564.85258c-14.99879-5.53657-27.75811-9.52274-42.16406-1.5535-4.02652,2.2286-2.07107,7.91648,4.08627,7.5347,16.96976-1.053,22.24482-1.75292,37.76662,1.80026,6.91703,1.58299,9.03698-4.56039,.31117-7.78146Z"/><path class="u" d="M1827.96855,581.56472c4.51616-6.26521,12.28133-8.34637,19.1161-9.83701,4.56427-.9948,8.83445,2.72289,3.88763,6.12165-13.63462,9.36755-14.16694,7.43615-20.05813,12.96341-4.17396,3.91634-8.10194-2.09435-2.94559-9.24805Z"/><path class="u" d="M1957.05945,438.76703c-8.0515-6.24038-17.93429-10.58815-31.20731-13.15663-13.80301-2.6709-27.99634-3.19235-42.00964-2.39543-13.2575,.7558-53.69114,12.50714-61.53312-.86909-4.22207-7.20258-15.63586-.95212-11.38663,6.29702,4.15611,7.08852,10.27544,10.46555,17.28015,11.82971-11.31291,.04656-21.19959-2.31473-26.61976-10.20327-15.34409,15.6118-32.20289,76.37594,6.11156,104.36451,17.61847,12.87184,26.81453,15.84072,48.52005,13.59738,32.93075-3.40419,65.58758-11.15617,96.13377-23.92791-4.18715,27.87528,20.45233,49.70729,39.74147,70.26204,24.16148-24.89167,17.31739-56.09122,9.81296-89.96168-5.87101-26.4894-21.76062-53.23797-44.84349-65.83667Z"/><path class="w" d="M1848.79334,605.26372c-2.09513-1.098-5.09504,.46714-5.81204,2.57002-1.53332,4.48357-.53154,9.71596,2.30542,13.47555,1.46038,1.93683,4.5084,2.10832,6.32418,.61302,.84348-.69372,1.32614-1.6148,1.50694-2.59097,1.76534-4.68998,.11717-11.74125-4.3245-14.06762Z"/><path class="w" d="M1920.5018,592.1133c-2.09513-1.098-5.09349,.46946-5.81282,2.56925-1.53255,4.4859-.52999,9.71751,2.30464,13.4771,1.46116,1.93683,4.50996,2.1091,6.32573,.61379,.84426-.69605,1.32691-1.61635,1.50539-2.59175,1.76611-4.69076,.11872-11.74125-4.32295-14.06839Z"/><path class="k" d="M2289.94962,1589.45845c.94126,14.36947,1.4371,22.43882,1.4371,22.43882-162.159,84.72696-456.2474,62.61871-456.2474,62.61871,28.18723-107.55299,26.97128-240.03334,19.40011-342.83427-.77365-10.11326-1.60316-19.95105-2.43268-29.40318-6.41031-71.40816-15.08802-123.63658-16.69118-134.52504-.05509-.27625-.05509-.4974-.11019-.71855-.11096-.66346-.16606-.9948-.16606-.9948-36.92003-8.7879-64.99629-28.85068-84.50581-48.02886l6.46618-97.05252c4.31053-64.11323,36.86416-122.97468,88.92808-160.66835,7.18551-5.19514,14.75668-10.7224,22.82603-16.63531,14.42534-10.50202,30.17605-22.43959,47.25599-36.31244,6.90771-5.52726,14.03813-11.38508,21.33305-17.63166,6.74321,1.05067,12.76709,1.99037,18.56981,3.04104,15.47601,2.76324,29.01674,6.52205,47.1458,9.17433,.38643,.16606,.99402,1.32614,1.38123,1.21595,0,0,.05509,0,.16606-.05509,.66268-.11096,1.4922-.82952,5.52648-1.21673,4.36718-.38721,10.225-1.54729,17.0233-1.32691l-.66346-2.70737s1.71335-.44153,1.82431-.44153c.11019,0,5.8586-6.356,11.38585-6.02388,5.47139,.33056,8.78712,1.54651,9.89211,.55172,16.02928-.11019,27.41436,5.41629,51.67749,11.2198h.16606c100.42335-.66346,164.0384,35.70408,204.27494,80.41643,23.65477,26.19763,39.24019,55.26947,49.46596,81.4671,17.35386,44.15986,19.50952,80.02999,19.50952,80.02999-63.9464,58.69461-143.86621,49.24481-143.86621,49.24481,3.9241,20.50432,7.68291,42.83372,11.27567,66.43262,1.16086,7.51763,2.26507,15.08957,3.3716,22.66152,13.04333,88.76202,23.65399,180.01104,31.28258,256.11694,0,.05509,.05509,.05509,.05509,.11096,6.46618,64.38948,10.88768,117.94482,13.04256,149.83577Z"/><path class="f" d="M2042.09447,797.78422c-2.39233,4.35321-4.63566,9.05018-6.83167,12.81753-2.44432,4.70395-4.922,9.26667-7.33062,13.5578-36.69267,64.22808-66.37907,97.30859-93.48304,103.83375-12.18045,2.9324-23.81229,.58508-33.62757-6.83477-14.39896-10.76973-22.62893-31.50296-27.26537-50.76339-2.36517-9.82227-3.74485-19.19447-4.68067-26.72684,14.39585-10.55013,30.15665-22.43416,47.25522-36.33572,12.6569-6.55542,26.04942-11.46345,39.87105-14.5883,20.3111-4.75361,29.71279-7.6154,50.78124-4.45564,.22193,.08148,.23124-.33677,7.44624,1.5372,.34996,.05121,.79848-.19167,1.18103-.28401,0,0,1.39132,.28944,1.51858,.2584,.63863-.15364,5.19592,.63863,9.22399,.27702,4.36407-.37712,7.91027,.37092,14.71711,.61923l4.6054,.97307c-.03104-.12804-3.38092,6.11467-3.38092,6.11467Z"/><path class="g" d="M2028.88508,793.04923c-2.45751,4.52004-4.78853,8.96171-7.21034,13.23267-2.45596,4.52004-4.83043,8.78014-7.2732,12.96108-4.31363,7.55177-8.46509,14.5883-12.50791,21.07078-5.08883,8.31378-9.95496,15.76157-14.62244,22.44037-94.02312,135.35145-101.97762-31.20887-101.97762-31.20887,2.01287-1.58687,4.11731-3.19391,6.11932-4.82655,2.29843-1.79793,4.56272-3.73243,6.80606-5.75772,4.46495-3.4492,3.62457-18.71259,3.86435-18.91357,10.96916,7.87458,27.22347-9.84555,41.15063-15.0663,22.30457-8.43638,61.82954-39.32011,68.60612-15.72665,1.28579,4.47737,2.62667,8.3161,5.01589,15.64983,.23357,.71545,4.0498,6.62914,4.72568,6.85029,.40739-.09855,6.87512-.6976,7.30346-.70536Z"/><path class="x" d="M2065.20634,1934.79523c-1.71677,0-5.09119-.94576-5.56921-4.52707-2.99277-22.44516-5.40858-45.6292-7.3862-70.87696l-.18119-2.3053-2.09841-.97018c-17.95664-8.29727-30.56639-24.35468-33.73135-42.95382-.25443-1.49703,.07839-2.80388,.98945-3.882,1.03828-1.22975,2.73706-2.02388,4.32789-2.02388,2.32072,0,2.85913,1.58312,3.06216,2.77304,2.31429,13.60691,9.4088,25.3557,19.97667,33.08371l6.80024,4.97297-.53071-8.40907c-1.57927-24.99461-2.44922-47.89595-2.66253-70.01472-.01157-1.23746,.3174-2.1768,1.00616-2.87198,.77743-.78514,1.99561-1.23489,3.3423-1.23489,.74787,0,4.47952,.20046,4.51679,4.18269,.51786,53.8301,4.38829,108.19219,11.50207,161.57382,.14649,1.09482-.01928,1.92237-.49087,2.46078-.56155,.64122-1.63452,1.02286-2.87327,1.02286Z"/><path class="m" d="M1891.49359,681.23149c-.35152-.10165-.71234-.14511-1.07395-.18623-.08381-.09389-.14821-.20563-.23745-.29487-2.92619-2.92697-7.34769-2.61658-10.30182,0-3.73786,3.31108-6.17597,7.88156-4.58678,12.92539,1.77077,5.61805,8.3293,8.64589,13.61057,5.6972,.26073-.14588,.57034-.31737,.88849-.50205,2.86489,.19943,6.03474-1.77698,7.42141-4.04127,3.25288-5.31231-.05587-11.94766-5.72047-13.59815Z"/><path class="y" d="M2243.40519,1127.5992c-6.08363-16.1837-10.80931-32.69796-14.20729-49.65064-1.04834-5.22696-9.04009-3.01466-7.99485,2.20376,3.39876,16.95191,8.12366,33.46617,14.20729,49.65064,1.86078,4.94761,9.87736,2.80359,7.99485-2.20376Z"/><path class="y" d="M1834.47664,1085.89918v102.24844c0,5.33482,8.28972,5.34258,8.28972,0v-102.24844c0-5.33404-8.28972-5.34335-8.28972,0Z"/><path class="g" d="M2391.86671,1267.68021c-11.44095,38.90962-31.17239,57.093-55.6559,61.18316-106.22763-4.8638-274.6883-202.5065-274.6883-202.5065-7.90329-18.84684-13.92717-30.84105-18.57059-37.91483,.93893-5.14005,3.26064-10.11403,7.40589-14.75668,5.91447-6.57715,14.03813-9.06337,23.04796-9.17433l222.56851,92.63102,.22115,.11019c23.93179,11.88248,47.36618,24.65034,69.91518,38.68847,27.96685,17.29877,35.09649,40.07048,25.7561,71.7395Z"/><path class="g" d="M1990.61175,1133.54238l-.66268-2.48777s-62.64587,136.34703-147.99361,212.48551c-24.79933,22.123-63.68257,21.1732-85.16073-4.18715-.97695-1.15232-1.90967-2.34577-2.79118-3.58112-2.1541-2.98439-3.97919-5.96879-5.52648-8.84299-4.36563-8.01425-6.68734-15.69639-6.74321-23.32343,0-.82952,.05587-1.54807,.05587-2.37681,.49817-9.83779,4.69852-19.56616,12.93392-29.62433,9.17356-11.38585,21.27718-24.76053,33.98918-38.19107,.88539,2.21152,181.06248-158.89913,183.82572-161.3869,4.31208-.38643,8.51243,.38721,12.49084,2.59873,21.66517,12.04854,13.37467,41.17547,5.58235,58.91732Z"/><path class="g" d="M2001.01057,976.14553c-14.23135,21.40522-28.427,42.82441-42.69404,64.28162-7.09627-29.4606-10.0698-36.80751-22.34648-41.79392-2.29378-.91332-4.81491,.83805-4.73654,3.32737,.63319,26.82927,2.16341,73.99991,11.24773,99.56124l42.93382,31.2562c10.74335-8.71883,36.20381-34.12109,46.85637-42.80346,6.879-5.62969,13.81387-11.38741,17.62546-19.33803,.79692-1.62799,1.39132-3.30953,1.89648-5.01356,.33056-.54551,.62854-1.14378,.8753-1.82354,4.22285-11.62175,5.56994-20.35222,3.70682-32.55751-1.59152-10.42287-1.42081-.23046-2.33646-11.51079-.47412-5.85161-.48421-10.51056-3.12484-15.94625-1.67998-3.45851-4.82888-6.86814-5.63822-9.59879-.9591-3.24745,.07837-7.34226-1.15387-10.77904-2.12073-5.90826-7.00549-11.82971-12.8183-15.25718-.67587-6.31177-3.37393-11.85377-11.33464-12.23011-9.9441-.47024-14.99025,11.08478-18.95858,20.22574Z"/><path class="g" d="M2012.84726,985.76915c19.3582,16.91078,38.68614,33.84485,58.09246,50.79598-.89858-30.29089,.03802-38.16003,10.57186-46.19912,1.9733-1.48444,4.86535-.45782,5.445,1.96476,6.44291,26.05175,17.36938,71.96608,15.32469,99.01573l-33.20467,41.44473c-12.65767-5.58701-43.90224-23.40102-56.46291-28.97717-8.11746-3.62379-16.32104-7.35545-22.08963-14.02339-1.19655-1.36261-2.2123-2.82842-3.14735-4.34002-.46326-.43842-.90789-.93815-1.32459-1.52789-7.12964-10.10239-10.7255-18.17252-12.13622-30.43755-1.20509-10.47486,1.30984-.59672-.77209-11.7203-1.08093-5.77091-2.2961-10.26768-1.17793-16.20775,.71157-3.77821,2.85403-7.8963,2.91611-10.74335,.07217-3.3848-2.00667-7.06291-1.72111-10.703,.49352-6.25822,3.6494-13.2544,8.35646-18.09104-1.00799-6.26598,.13812-12.32245,7.72093-14.77919,9.46998-3.0682,17.37714,6.75329,23.60898,14.52855Z"/><g><path class="d" d="M2100.38868,366.2275c17.07684-22.08342,30.80458-43.25275,38.47973-60.11154,7.74033-16.81534,9.42885-29.31937,4.11421-32.92842-5.31386-3.60905-16.31251,2.57235-29.09046,15.9672-12.83848,13.35372-27.45393,33.91856-41.68062,57.93649-14.23057,24.01792-25.69092,46.72445-33.43048,63.54056-7.6767,16.85879-11.63184,27.82329-9.16347,29.49862,2.46604,1.67455,11.19962-6.04406,24.0381-19.397,12.7764-13.39563,29.6577-32.42404,46.73299-54.50591Z"/><path class="d" d="M2188.3755,414.78014c-15.34177,1.16629-35.77702,5.81825-57.88217,12.82063-22.10515,7.00393-41.77064,14.72797-55.87007,20.86204-14.08624,6.19459-22.60332,10.79844-22.00272,13.20163,.6006,2.40164,10.2832,2.45363,25.62651,1.28734,15.32702-1.22681,36.31322-3.67191,59.11286-7.90251,22.79964-4.22828,43.01685-9.747,57.10154-15.94082,14.10021-6.13484,22.06557-12.94478,20.7697-18.12208-1.29355-5.17574-11.52863-7.4346-26.85566-6.20623Z"/><path class="d" d="M1985.56405,283.37917c-2.868,15.11596-3.69518,36.05792-2.68875,59.22383,1.00799,23.16668,3.34755,44.16451,5.59865,59.37514,2.31473,15.21295,4.54332,24.63482,7.01945,24.67983,2.47535,.04656,5.04693-9.28918,7.91415-24.40668,2.80514-15.11984,5.90748-36.01757,7.7574-59.13226,1.85302-23.11469,1.78707-44.07062-.52689-59.2828-2.25265-15.2114-6.75485-24.6744-12.09044-24.77139-5.33482-.09777-10.17922,9.19606-12.98358,24.31434Z"/></g></g></g></g></svg>