<svg xmlns="http://www.w3.org/2000/svg" xmlns:xlink="http://www.w3.org/1999/xlink" width="329.881" height="367.023" viewBox="0 0 329.881 367.023">
  <defs>
    <clipPath id="clip-path">
      <rect id="Rectangle_2231" data-name="Rectangle 2231" width="329.881" height="256.82" transform="translate(0 0)" fill="none"/>
    </clipPath>
    <clipPath id="clip-path-2">
      <ellipse id="Ellipse_62" data-name="Ellipse 62" cx="76.673" cy="183.511" rx="76.673" ry="183.511" fill="#dbebfa"/>
    </clipPath>
    <clipPath id="clip-path-3">
      <rect id="Rectangle_2205" data-name="Rectangle 2205" width="123.14" height="282.321" fill="none"/>
    </clipPath>
  </defs>
  <g id="Group_33686" data-name="Group 33686" transform="translate(81.021 -308.778)">
    <g id="bg_image" data-name="bg image" transform="translate(-81.021 418.983)" opacity="0.184">
      <g id="Group_33613" data-name="Group 33613" transform="translate(0 -0.003)" clip-path="url(#clip-path)">
        <path id="Path_16510" data-name="Path 16510" d="M316.337,216.655q-1.762,4.016-3.759,7.931c-1.024,2.009-2.141,4-3.36,5.937a50.564,50.564,0,0,1-8.385,10.329,30.533,30.533,0,0,1-12.308,7.139,145.294,145.294,0,0,1-18.093,3.674s0,0,0,0c-7.471,1.1-15.763,1.973-24.368,2.656-40.948,3.246-88.951,2.257-88.951,2.257-15.671.742-46.6-.267-70.662-2.75-.034,0-4.593-.469-8.905-1.032-4.779-.627-10.237-1.456-14.927-2.559a102.5,102.5,0,0,1-11.041-3.263A93.068,93.068,0,0,1,37,240.322a78.825,78.825,0,0,1-11.922-8.256,63.432,63.432,0,0,1-14.877-17.9c-4.51-8.2-7-17.375-8.512-26.613C-9.032,122,32.392,37.726,94.173,10.524c27.3-12.021,58.541-12.749,87.851-7.183C202.941,7.315,223.111,14.35,242.813,22.3c16.478,6.65,35.883,12.906,49.275,25.015A77.01,77.01,0,0,1,305.075,63.5c28.532,45.03,32.675,104.42,11.262,153.153" transform="translate(0 0.003)" fill="#b5d8f4"/>
      </g>
    </g>
    <g id="older_woman_circle" data-name="older woman+ circle" transform="translate(0 308.778)">
      <circle id="Ellipse_63" data-name="Ellipse 63" cx="76.673" cy="76.673" r="76.673" transform="translate(0 0)" fill="#dbebfa" opacity="0"/>
      <g id="older_woman" data-name="older woman" transform="translate(0 0)" clip-path="url(#clip-path-2)">
        <g id="older_womwn" data-name="older womwn" transform="translate(7.786 16.749)">
          <g id="Group_33605" data-name="Group 33605" transform="translate(0 0)" clip-path="url(#clip-path-3)">
            <path id="Path_16341" data-name="Path 16341" d="M295.106,1508.749l10.347-.089a2.842,2.842,0,0,0,2.8-2.952l-1.005-7.968-1.656-24.213-11.384-.652s3.5,14.684,4.355,19.507a17.216,17.216,0,0,1-.909,8.541,17.621,17.621,0,0,1-2.12,4.579c-.082.142-1,3.255-.426,3.246" transform="translate(-244.999 -1226.529)" fill="#fec6bf"/>
            <path id="Path_16342" data-name="Path 16342" d="M531.7,1514.242c.426.022.842.035,1.234.044a12.4,12.4,0,0,1,5.678,1.527l4.888,2.672a9.019,9.019,0,0,0,4.1,1.1l12.131.306s.078-2.55-1.695-2.868a24.508,24.508,0,0,1-7.519-2.69,29.334,29.334,0,0,1-10.5-9.647c-1.157-2.059-4.143-18.513-4.143-18.513l-11.594-.037,4.671,15.482a8.277,8.277,0,0,1-.037,4.96,16.916,16.916,0,0,0-.758,3.564,3.756,3.756,0,0,0,3.548,4.1" transform="translate(-436.59 -1237.571)" fill="#fec6bf"/>
            <path id="Path_16343" data-name="Path 16343" d="M295.8,1636.312c.387-1.171,1.424-1.887,2.728-4.923-1.1,2.9-.039,2.513,2.664,2.513,3.439,0,5.8.167,6.7-.991s.658-2.962.759-4.678l.873,6.848c.062,1.6-.5,2.929-2.1,2.952l-11.045.088c-.577.009-.758-1.262-.577-1.809" transform="translate(-246.269 -1355.901)" fill="#404581"/>
            <path id="Path_16344" data-name="Path 16344" d="M205.845,732.247c-.494-5.447-9.265-43.452-9.265-68.771,0-9.027,8.632-27.028,8.632-27.028l37.667,1.313,4.45,26.345,19.73,124.081-18.83-.745a281.362,281.362,0,0,0-6.726-30.336c-2.49-8.483-3.271-21.394-4.918-26.22-3.542-10.374-7.307-23.236-10.509-34.769l-.154,38.57.67,52.43-16.637-.438s-3.5-26.243-4.11-32.984.494-16,0-21.448" transform="translate(-163.701 -529.998)" fill="#958897"/>
            <path id="Path_16345" data-name="Path 16345" d="M547.362,1599.59a16.9,16.9,0,0,1,.758-3.564,8.1,8.1,0,0,0,.4-2.476c1.023,3.214,3.588,4.436,5.453,5.885,3.506,2.724,10.516,6.045,16.629,4.81a24.339,24.339,0,0,0,6.642,2.228c1.773.318,1.694,2.868,1.694,2.868l-12.131-.306a9.025,9.025,0,0,1-4.1-1.1l-4.888-2.672a12.4,12.4,0,0,0-5.458-1.515l-.087,5.251-1.9.084-1.013-3.921a11.858,11.858,0,0,0-1.455-3.251,3.723,3.723,0,0,1-.542-2.32" transform="translate(-455.799 -1327.021)" fill="#404581"/>
            <path id="Path_16346" data-name="Path 16346" d="M240.275,34.334s-6.158-4.939-.538-10.053c7.382-6.719-2.943-22.242,12.934-24.095,11.044-1.289,18.793,4.365,20.49,8.1a17.418,17.418,0,0,1,1.3,6.164,2.117,2.117,0,0,1-2.383,2.2l-.026,0c.2,5.77-.1,6.385,2,9.019,3.658,4.582,1.663,6.967.29,9.239-2.811,4.648-13.985,3.6-20.915,3.6-10.325,0-13.153-4.175-13.153-4.175" transform="translate(-197.67 0.001)" fill="#b0abc3"/>
            <path id="Path_16347" data-name="Path 16347" d="M203.214,248.233l27.22-12.929,23.021,12.621-4.6,55.654-37.883-.827Z" transform="translate(-169.225 -195.948)" fill="#fcdede"/>
            <path id="Path_16348" data-name="Path 16348" d="M321.039,248.37a21.008,21.008,0,0,0,1.257,9.912c2.264,6.364,7.676,10.8,10.71,10.537,3.522-.3,5.811-4.494,5.811-8.351A19.865,19.865,0,0,0,335.465,249Z" transform="translate(-267.224 -206.829)" fill="#fec6bf"/>
            <path id="Path_16349" data-name="Path 16349" d="M240.266,625.6l.968-6.677,37.826,1.5.645,6.925Z" transform="translate(-200.08 -515.406)" fill="#958897"/>
            <path id="Path_16350" data-name="Path 16350" d="M278.648,626.516l-39.44-1.75a.21.21,0,0,1-.2-.241l.968-6.677a.214.214,0,0,1,.217-.18l37.827,1.5a.21.21,0,0,1,.2.191l.645,6.925a.21.21,0,0,1-.21.23Zm-38.282-8.42-.907,6.26,38.966,1.729-.606-6.5Z" transform="translate(-199.032 -514.359)" fill="#494a69"/>
            <path id="Path_16351" data-name="Path 16351" d="M358.168,627.884v-3.308a1.877,1.877,0,0,1,1.99-1.874l4.624.28a1.877,1.877,0,0,1,1.763,1.833l.07,3.2a1.877,1.877,0,0,1-1.947,1.917l-4.694-.177a1.877,1.877,0,0,1-1.806-1.876" transform="translate(-298.262 -518.548)" fill="#958897"/>
            <path id="Path_16352" data-name="Path 16352" d="M363.613,629.1l-4.694-.177a2.081,2.081,0,0,1-2.009-2.086v-3.308a2.087,2.087,0,0,1,2.213-2.084l4.624.28a2.1,2.1,0,0,1,1.961,2.038l.07,3.205a2.088,2.088,0,0,1-2.084,2.132h-.082m-5.758-6.784a1.651,1.651,0,0,0-.524,1.214v3.308a1.662,1.662,0,0,0,1.6,1.665l4.694.177a1.667,1.667,0,0,0,1.729-1.7l-.07-3.205a1.677,1.677,0,0,0-1.566-1.627l-4.624-.28c-.035,0-.069,0-.1,0a1.648,1.648,0,0,0-1.139.453" transform="translate(-297.215 -517.501)" fill="#494a69"/>
            <path id="Path_16353" data-name="Path 16353" d="M368.129,634.374v-2a1.137,1.137,0,0,1,1.205-1.135l2.8.169a1.137,1.137,0,0,1,1.068,1.11l.042,1.941a1.136,1.136,0,0,1-1.179,1.16l-2.842-.107a1.137,1.137,0,0,1-1.094-1.136" transform="translate(-306.557 -525.656)" fill="#958897"/>
            <path id="Path_16354" data-name="Path 16354" d="M371.009,634.779l-2.842-.107a1.343,1.343,0,0,1-1.3-1.346v-2a1.347,1.347,0,0,1,1.429-1.345l2.8.169a1.355,1.355,0,0,1,1.266,1.315l.042,1.941a1.348,1.348,0,0,1-1.345,1.376h-.053m-3.426-4.131a.918.918,0,0,0-.292.675v2a.923.923,0,0,0,.891.926l2.842.107a.927.927,0,0,0,.961-.946l-.042-1.94a.932.932,0,0,0-.87-.9l-2.8-.17-.058,0a.917.917,0,0,0-.633.252" transform="translate(-305.509 -524.608)" fill="#494a69"/>
            <path id="Path_16355" data-name="Path 16355" d="M517.819,638.121c.354-1.063-.135-2.633-1.833-4.77s-3.825-3.364-4.753-2.933c-.14.239.409,2.186,2.108,4.323s3.084,3.165,4.478,3.38" transform="translate(-425.709 -524.905)" fill="#252a4f"/>
            <path id="Path_16356" data-name="Path 16356" d="M399.181,245.477s9.953,23.945,11.48,29.561c2.931,10.776.706,36.462.706,36.462l3.569,42.788a5.96,5.96,0,0,0,4.337,5.245l4.287,1.2s-9.9-34.8-8.527-48.679c.757-7.632,3.1-22.75,4.058-32.445a98.591,98.591,0,0,0-.581-23.044s-8.556-3.869-11.214-5.511a96.616,96.616,0,0,1-8.114-5.574" transform="translate(-332.416 -204.419)" fill="#dea98e"/>
            <path id="Path_16357" data-name="Path 16357" d="M433.264,622s-4.892,5.457-5.684,4.233c-2.876-4.446-4.038-4.206-4.038-4.206s-2.367.911-4.955,2.117c-1.373.639-4.578,3.225-4.971,4.22s1.328.746,1.8.486a17.388,17.388,0,0,0,2.746-1.883,5.652,5.652,0,0,1,1.587-.939,21.9,21.9,0,0,1,3.517-.729s-3.387.829-4.883,2.326c0,0-3.719,4.048-3.281,4.84s2.346-.376,2.346-.376-.869.963-.33,1.217c1.305.613,4.025-1.962,4.027-1.963v-.081s-2,1.818-1.257,2.179c.606.294,2.3-.571,3.93-1.107q.157-.052.312-.092a2.366,2.366,0,0,1,2.921,2.051,8.825,8.825,0,0,0,.334,1.679c.654,2.086,9.848-9.657,9.848-9.657Z" transform="translate(-344.387 -517.966)" fill="#fec6bf"/>
            <path id="Path_16358" data-name="Path 16358" d="M318.87,157.59l-.879,17.314,14.045.6-.5-12.752Z" transform="translate(-264.805 -131.232)" fill="#fec6bf"/>
            <path id="Path_16359" data-name="Path 16359" d="M193.83,321.688c1.7-8.552,4.425-16.609,4.425-20.778s-5.324-50.848-5.324-50.848,7.012-4,9.84-5.2c3.542-1.5,10.742-7.1,10.742-7.1a52.725,52.725,0,0,0,.331,19.828c3.418,14.456,2.9,32.292,1.973,44.555-.126,1.682-1.672,35.429-2.148,45.846a4.206,4.206,0,0,1-3.065,3.858l-18.622,5.231s-.459-23.8,1.848-35.393" transform="translate(-159.841 -197.996)" fill="#dea98e"/>
            <path id="Path_16360" data-name="Path 16360" d="M492.035,331.577l3.412-20.811s1.981.586,5.436,7.026c1.386,2.583,15.147,17.821,16.858,25.609.456,2.075-.832,5.3-2.868,8.482-1.856,2.9-13.011,20.121-13.011,20.121a16.9,16.9,0,0,0-2.719-4.687,13.381,13.381,0,0,0-3.882-3.014s4.838-11.675,8.981-18.931Z" transform="translate(-409.739 -258.788)" fill="#dea98e"/>
            <path id="Path_16361" data-name="Path 16361" d="M369.823,714.6a.21.21,0,0,0,.21-.205c.385-16.535.533-38.1-.2-49.042a.205.205,0,0,0-.224-.2.211.211,0,0,0-.2.224c.736,10.928.587,32.479.2,49a.21.21,0,0,0,.205.215Z" transform="translate(-307.623 -553.905)" fill="#494a69"/>
            <path id="Path_16362" data-name="Path 16362" d="M267.346,1235.843a.21.21,0,0,0,.15-.358c-2.989-3.051-4.084-7.454-5.028-12.077-.863-4.226-1.841-9.017-4.9-12.4a.21.21,0,0,0-.312.282c2.987,3.3,3.953,8.029,4.8,12.2.957,4.687,2.071,9.153,5.14,12.287a.212.212,0,0,0,.15.063" transform="translate(-214.179 -1008.403)" fill="#494a69"/>
            <path id="Path_16363" data-name="Path 16363" d="M505.7,1421.931a.21.21,0,0,0,.149-.358l-7.3-7.336c-2.4-2.412-5.385-5.413-6.328-9.134a.21.21,0,1,0-.408.1c.972,3.832,4,6.879,6.438,9.326l7.3,7.337a.209.209,0,0,0,.149.062" transform="translate(-409.552 -1169.959)" fill="#494a69"/>
            <path id="Path_16364" data-name="Path 16364" d="M372.753,690.57a.212.212,0,0,0,.113-.033,7.01,7.01,0,0,0,3.037-4.628c.8-3.2.715-8.822.636-13.78-.04-2.529-.078-4.919,0-6.749a.211.211,0,0,0-.2-.22.215.215,0,0,0-.22.2c-.083,1.844-.045,4.239,0,6.775.078,4.931.167,10.52-.624,13.67a6.614,6.614,0,0,1-2.856,4.376.21.21,0,0,0,.114.388" transform="translate(-310.233 -553.909)" fill="#494a69"/>
            <path id="Path_16365" data-name="Path 16365" d="M504.609,357.149a.21.21,0,0,0,.209-.189c.662-6.418-.147-10.751-1.084-15.768-.331-1.775-.674-3.611-.972-5.653a.211.211,0,0,0-.417.061c.3,2.05.643,3.889.975,5.669.93,4.986,1.734,9.291,1.079,15.648a.21.21,0,0,0,.188.231h.022" transform="translate(-418.323 -279.269)" fill="#7f6053"/>
            <path id="Path_16366" data-name="Path 16366" d="M564.888,504.844a.209.209,0,0,0,.135-.049,8.249,8.249,0,0,1,8.549-1.146.21.21,0,0,0,.175-.383,8.68,8.68,0,0,0-8.993,1.205.21.21,0,0,0,.135.372" transform="translate(-470.232 -418.473)" fill="#7f6053"/>
            <path id="Path_16367" data-name="Path 16367" d="M588.15,513.367A.21.21,0,0,0,588.3,513,3.95,3.95,0,0,0,585,511.98a.21.21,0,0,0,.067.416,3.516,3.516,0,0,1,2.934.913.21.21,0,0,0,.145.058" transform="translate(-487.012 -426.309)" fill="#7f6053"/>
            <path id="Path_16368" data-name="Path 16368" d="M202.914,866.234a18.564,18.564,0,0,1-.357,4.931c-.28,1.376.031,2.551.942,2.438s.733-1.258.733-1.258l1.343-4.411Z" transform="translate(-168.595 -721.351)" fill="#fec6bf"/>
            <path id="Path_16369" data-name="Path 16369" d="M325.257,307.633s5.331,14.995,4.2,23.268,4.285,10.255,5.27,13.657c.639,2.208-2.045,6.621,2.9,8.725,1.726-2.744,2.486-3.509,6.972-8s5.085-2.567,3.6-9.97-5.766-19.024-9.579-22.837-13.362-4.848-13.362-4.848" transform="translate(-270.856 -256.179)" fill="#83b4df"/>
            <path id="Path_16370" data-name="Path 16370" d="M382.662,446.947a.211.211,0,0,0,.2-.275,5.114,5.114,0,0,1,.292-3.187,10.643,10.643,0,0,0,.059-7.138,11.152,11.152,0,0,0-1.982-2.881,15.49,15.49,0,0,1-1.284-1.676c-.662-1.124-1.025-4.319-.459-5.395a.21.21,0,1,0-.372-.2c-.645,1.226-.266,4.557.469,5.8a15.709,15.709,0,0,0,1.323,1.731,11.229,11.229,0,0,1,1.905,2.741,10.279,10.279,0,0,1-.062,6.888,5.5,5.5,0,0,0-.29,3.437.211.211,0,0,0,.2.146" transform="translate(-315.432 -354.821)" fill="#141f26"/>
            <path id="Path_16371" data-name="Path 16371" d="M400.044,439.825a.21.21,0,0,0,.209-.185c.311-2.545-1.267-4.035-2.793-5.476-1.377-1.3-2.677-2.528-2.443-4.443a.21.21,0,1,0-.418-.051c-.26,2.126,1.18,3.485,2.572,4.8,1.45,1.369,2.949,2.786,2.664,5.12a.211.211,0,0,0,.183.234h.026" transform="translate(-328.574 -357.65)" fill="#141f26"/>
            <path id="Path_16372" data-name="Path 16372" d="M391.446,641.8h0a.6.6,0,0,0-.572-.592l-1.853-.094.02,1.208,1.773.09a.6.6,0,0,0,.633-.611" transform="translate(-323.954 -533.883)" fill="#958897"/>
            <path id="Path_16373" data-name="Path 16373" d="M389.753,641.574l-1.773-.09a.211.211,0,0,1-.2-.207l-.02-1.208a.211.211,0,0,1,.064-.155.235.235,0,0,1,.157-.059l1.853.094a.813.813,0,0,1-.041,1.625h-.041m-1.555-.5,1.576.08a.392.392,0,0,0,.04-.784l-1.629-.083Zm2.2-.322h0Z" transform="translate(-322.906 -532.836)" fill="#494a69"/>
            <path id="Path_16374" data-name="Path 16374" d="M181.514,593.769a.21.21,0,0,0,.171-.332,12.1,12.1,0,0,0-2.278-2.148,16.453,16.453,0,0,1-1.885-1.664.21.21,0,1,0-.312.283,16.791,16.791,0,0,0,1.935,1.71,11.815,11.815,0,0,1,2.2,2.063.21.21,0,0,0,.172.088" transform="translate(-147.525 -490.949)" fill="#7f6053"/>
            <path id="Path_16375" data-name="Path 16375" d="M183.961,614.09a.211.211,0,0,0,.1-.4,13.793,13.793,0,0,0-2.68-1.045c-.4-.122-.807-.248-1.248-.4a.21.21,0,1,0-.14.4c.449.159.864.286,1.265.409a13.422,13.422,0,0,1,2.6,1.013.209.209,0,0,0,.1.026" transform="translate(-149.771 -509.834)" fill="#7f6053"/>
            <path id="Path_16376" data-name="Path 16376" d="M220.021,672.249c.732,0,8.18-.03,10.058-1.225,1.975-1.258,2.084-6.649,2.087-6.877a.21.21,0,0,0-.065-.155.2.2,0,0,0-.158-.058l-11.964.689a.21.21,0,1,0,.024.42l11.733-.676c-.042,1.035-.312,5.3-1.885,6.3-1.829,1.165-9.805,1.155-9.878,1.159h0a.21.21,0,1,0,0,.42h.047" transform="translate(-183.007 -552.885)" fill="#7f6053"/>
            <path id="Path_16377" data-name="Path 16377" d="M342.968,189.558a13.66,13.66,0,0,0,9.63,7.966l-.491-5.759c-.735-1.231-1.47-2.463-2.269-3.67a60.7,60.7,0,0,1-6.871,1.463" transform="translate(-285.605 -156.635)" fill="#dd6478"/>
            <path id="Path_16378" data-name="Path 16378" d="M324,79.258c7.33,3.26,18.61,3.338,18.61,3.338s-.258,3.117-.358,5.152c-.1,1.939.114,4.552-.007,7.018-.174,3.538-1.512,7.486-6.089,9.374-4.836,1.995-11.249-3.309-12.742-8.475S324,88.386,324,79.258" transform="translate(-268.871 -66.001)" fill="#fec6bf"/>
            <path id="Path_16379" data-name="Path 16379" d="M348.256,111.566a.323.323,0,0,0,.283-.167,2.145,2.145,0,0,1,1.583-.863,3.4,3.4,0,0,1,2.537.506.323.323,0,0,0,.455-.458,3.962,3.962,0,0,0-3.084-.687,2.664,2.664,0,0,0-2.056,1.192.322.322,0,0,0,.283.478" transform="translate(-289.74 -91.474)" fill="#9e95c4"/>
            <path id="Path_16380" data-name="Path 16380" d="M355.842,128.226c0-.668.361-1.21.806-1.21s.807.542.807,1.21-.361,1.21-.807,1.21-.806-.541-.806-1.21" transform="translate(-296.326 -105.772)" fill="#4c3e42"/>
            <path id="Path_16381" data-name="Path 16381" d="M405.526,112.576a.322.322,0,0,0,.223-.089,2.478,2.478,0,0,1,3.339-.187.323.323,0,0,0,.456-.456,3.1,3.1,0,0,0-4.242.177.323.323,0,0,0,.223.556" transform="translate(-337.431 -92.506)" fill="#9e95c4"/>
            <path id="Path_16382" data-name="Path 16382" d="M416.087,129.074c0-.646-.307-1.169-.686-1.169s-.686.524-.686,1.169.307,1.169.686,1.169.686-.523.686-1.169" transform="translate(-345.352 -106.512)" fill="#4c3e42"/>
            <path id="Path_16383" data-name="Path 16383" d="M375.978,179.286c-1.076.112-.9,1.21-1.375,1.627a1.661,1.661,0,0,1-1.273.307c-2.63-.162-4.121-2.931-4.121-2.931s4.724,1.715,6.769,1" transform="translate(-307.457 -148.468)" fill="#fefefe"/>
            <path id="Path_16384" data-name="Path 16384" d="M370.583,177.67c.831.072,1.6-.387,2.728-.23a2.1,2.1,0,0,1,1.119.559.567.567,0,0,0,.7.053,1.541,1.541,0,0,1,1.049-.311c.375.063.817.288.666.832a10.342,10.342,0,0,1-2.524.013c-.91-.186-3.741-.916-3.741-.916" transform="translate(-308.601 -147.735)" fill="#dd6478"/>
            <path id="Path_16385" data-name="Path 16385" d="M369.863,179.229c1.822,2.6,4.042,2.428,5.249,1.951l.034-.036a1.582,1.582,0,0,1-.665,1.347,2.587,2.587,0,0,1-1.425.161,4.75,4.75,0,0,1-3.436-3.762Z" transform="translate(-307.801 -148.969)" fill="#dd6478"/>
            <path id="Path_16386" data-name="Path 16386" d="M372.582,178.026a11.293,11.293,0,0,0,1.2-.063.21.21,0,1,0-.045-.418,14.083,14.083,0,0,1-6.847-1.182.21.21,0,0,0-.161.389,15.412,15.412,0,0,0,5.851,1.275" transform="translate(-305.285 -146.851)" fill="#dd6478"/>
            <path id="Path_16387" data-name="Path 16387" d="M398.528,161.09c.056-.011.093.138.04.339a1.3,1.3,0,0,1-.482.714.041.041,0,0,0-.019.014,1.352,1.352,0,0,1-.547.239.884.884,0,0,1-.551-.036c-.056-.029-.076-.056-.065-.088a.073.073,0,0,1,.025-.04,3.464,3.464,0,0,1,.4-.151,2.151,2.151,0,0,0,.434-.228.291.291,0,0,0,.052-.035,2.16,2.16,0,0,0,.491-.51c.1-.134.164-.227.222-.218" transform="translate(-330.517 -134.146)" fill="#dd6478"/>
            <path id="Path_16388" data-name="Path 16388" d="M252.922,215.778s16.2,28.495,28.771,25.106c14.494-3.908,7.5-18.671,3.955-24.115a21.159,21.159,0,0,0-7.983-9.886,5.1,5.1,0,0,1-.552.167c.49,1.623,1.282,5.705-3.418,5.073-5.753-.773-9.406-9.595-9.406-9.595a9.09,9.09,0,0,0-2.887,1.442c-3.185,3.868-2.633,6.871-2.633,6.871a6.674,6.674,0,0,0-2.825.839c-.781.5-3.022,4.1-3.022,4.1" transform="translate(-210.619 -168.656)" fill="#83b4df"/>
            <path id="Path_16389" data-name="Path 16389" d="M306.988,270.572a9.361,9.361,0,0,0,6.951-2.853,6.846,6.846,0,0,0,.682-8.392.211.211,0,0,0-.338.251,6.413,6.413,0,0,1-.657,7.859,9.188,9.188,0,0,1-7.873,2.641,16.112,16.112,0,0,1-7.848-3.544c-5.235-4.056-8.561-8.515-9.886-13.252a.21.21,0,1,0-.405.113c1.35,4.827,4.726,9.36,10.033,13.472A16.524,16.524,0,0,0,305.7,270.5a10.794,10.794,0,0,0,1.284.076" transform="translate(-239.504 -210.791)" fill="#141f26"/>
            <path id="Path_16390" data-name="Path 16390" d="M306.092,317.666a6.512,6.512,0,0,0,5.164-2.1.21.21,0,0,0-.327-.265c-1.544,1.9-4.357,2.179-6.476,1.8a16.4,16.4,0,0,1-9.633-6.233,52.34,52.34,0,0,1-6.809-10.82.21.21,0,1,0-.387.165,52.766,52.766,0,0,0,6.868,10.918,16.814,16.814,0,0,0,9.888,6.384,9.878,9.878,0,0,0,1.712.15" transform="translate(-239.503 -249.756)" fill="#141f26"/>
            <path id="Path_16391" data-name="Path 16391" d="M359.728,407.782c2.039,0,5.054-.443,6.126-1.61a.21.21,0,0,0-.31-.285c-1.145,1.246-5.2,1.632-6.939,1.415a14.69,14.69,0,0,1-9.026-4.331.211.211,0,0,0-.284.311,15.251,15.251,0,0,0,9.258,4.439,9.942,9.942,0,0,0,1.174.061" transform="translate(-290.818 -335.526)" fill="#141f26"/>
            <path id="Path_16392" data-name="Path 16392" d="M131.754,878.623H106.968v-6.914a5.44,5.44,0,0,1,5.434-5.434H126.32a5.44,5.44,0,0,1,5.434,5.434Zm-22.8-1.983h20.82v-4.931a3.455,3.455,0,0,0-3.451-3.451H112.4a3.455,3.455,0,0,0-3.451,3.451Z" transform="translate(-89.077 -721.385)" fill="#d80c00"/>
            <path id="Path_16393" data-name="Path 16393" d="M67.382,940.735v25.237a1.713,1.713,0,0,1-1.713,1.713H11.952a1.713,1.713,0,0,1-1.713-1.713V940.735a1.713,1.713,0,0,1,1.713-1.712H65.669a1.713,1.713,0,0,1,1.713,1.712" transform="translate(-8.526 -781.966)" fill="#e0e2e2"/>
            <path id="Path_16394" data-name="Path 16394" d="M67.382,940.735v7.706H10.239v-7.706a1.713,1.713,0,0,1,1.713-1.712H65.669a1.713,1.713,0,0,1,1.713,1.712" transform="translate(-8.526 -781.966)" fill="#c9c9c9"/>
            <rect id="Rectangle_2200" data-name="Rectangle 2200" width="25.597" height="28.661" transform="translate(17.485 157.057)" fill="#d80c00"/>
            <rect id="Rectangle_2201" data-name="Rectangle 2201" width="2.524" height="12.979" transform="translate(29.022 167.512)" fill="#fff"/>
            <rect id="Rectangle_2202" data-name="Rectangle 2202" width="12.979" height="2.524" transform="translate(23.794 172.74)" fill="#fff"/>
            <path id="Path_16395" data-name="Path 16395" d="M58.753,929.182H1.815A1.815,1.815,0,0,1,0,927.366v-7.005a1.815,1.815,0,0,1,1.815-1.815H58.753a1.815,1.815,0,0,1,1.815,1.815v7.005a1.815,1.815,0,0,1-1.815,1.815" transform="translate(0 -764.914)" fill="#e0e2e2"/>
            <rect id="Rectangle_2203" data-name="Rectangle 2203" width="13.61" height="0.27" transform="translate(3.019 164.111) rotate(-0.39)" fill="#2f2f33"/>
            <rect id="Rectangle_2204" data-name="Rectangle 2204" width="13.61" height="0.27" transform="translate(43.938 164.111) rotate(-0.39)" fill="#2f2f33"/>
            <path id="Path_16396" data-name="Path 16396" d="M149.268,760.315s.406,7.4.286,9.626c-1.916,4.142-3.411,6.93-3.509,8.742-.075,1.387,1.184,2.754,2.01,3.581.958,1.46,1.889,1.472,2.2.926.374,1.289,2.047,2.268,2.7,1.328.531,1.262,2.378,1.624,2.716.474a11.277,11.277,0,0,1,.268-8l2.924.007s.215.381-.264-2.168c-.15-.8-1.509-4.978-1.509-4.978l-.26-10.785Z" transform="translate(-121.616 -632.109)" fill="#fec6bf"/>
            <path id="Path_16397" data-name="Path 16397" d="M147.131,307.633s-.92.18-5.382,3.141c-4.282,2.841-6.665,33.552-6.374,43.994.26,9.344,4.107,37.048,4.107,37.048l10.5.127L151.9,354.4l-.565-34.829Z" transform="translate(-112.713 -256.179)" fill="#dea98e"/>
            <path id="Path_16398" data-name="Path 16398" d="M160.707,412.831h0l10.416-.038a.209.209,0,0,0,.151-.064.211.211,0,0,0,.059-.154c-.063-1.7-.126-3.306-.187-4.858-.412-10.508-.709-18.1-.252-32.264.084-2.621.392-6.051.717-9.682,1.218-13.585,2.733-30.492-3.889-33.29a.21.21,0,0,0-.164.388c6.339,2.678,4.775,20.125,3.634,32.865-.326,3.637-.634,7.073-.719,9.706-.458,14.179-.16,21.777.252,32.294.058,1.485.118,3.023.179,4.64l-10.2.038a.21.21,0,0,0,0,.421" transform="translate(-133.653 -276.857)" fill="#7f6053"/>
          </g>
        </g>
      </g>
    </g>
  </g>
</svg>
